<svg xmlns="http://www.w3.org/2000/svg" viewBox="0 0 1142.96 331.66"><defs><style>.cls-1,.cls-2{fill:#fff;}.cls-2{font-size:30.54px;font-family:Helvetica-Bold, Helvetica;font-weight:700;letter-spacing:0.1em;}.cls-3{fill:#c6dab3;fill-rule:evenodd;}</style></defs><g id="Capa_2" data-name="Capa 2"><g id="Layer_1" data-name="Layer 1"><path class="cls-1" d="M0,271.63a39.06,39.06,0,0,1,3.39-16.19,42.58,42.58,0,0,1,9.2-13.21,43.84,43.84,0,0,1,13.57-8.95,42.74,42.74,0,0,1,32.89,0,43.73,43.73,0,0,1,13.57,8.95,41.94,41.94,0,0,1,9.15,13.21,39.5,39.5,0,0,1,3.34,16.19,40.12,40.12,0,0,1-1.49,11,41.93,41.93,0,0,1-4.21,9.87,39.83,39.83,0,0,1-6.58,8.38,46.37,46.37,0,0,1-8.48,6.53,39.19,39.19,0,0,0,5.29,3.18,11.58,11.58,0,0,0,5.19,1.24,11,11,0,0,0,1.24-.11,8.73,8.73,0,0,0,1.85-.46,8.46,8.46,0,0,0,2-1.08,7.23,7.23,0,0,0,1.85-1.95l15.52,12.54a23.18,23.18,0,0,1-4.88,5,29.44,29.44,0,0,1-5.7,3.39,26.9,26.9,0,0,1-6,1.9,31.36,31.36,0,0,1-5.8.57,25.47,25.47,0,0,1-11-2.32,67.18,67.18,0,0,1-9.51-5.44c-3-2.1-6.08-4.2-9.1-6.33a37.33,37.33,0,0,0-9.76-4.93,42.07,42.07,0,0,1-14-4.88A42.36,42.36,0,0,1,2.78,286.27,39,39,0,0,1,0,271.63Zm20.76,0a21.72,21.72,0,0,0,1.7,8.53,21.25,21.25,0,0,0,4.68,6.94,22.3,22.3,0,0,0,6.94,4.62,21.27,21.27,0,0,0,8.48,1.7,21.58,21.58,0,0,0,8.58-1.7,22,22,0,0,0,11.51-28.63,21.57,21.57,0,0,0-20.09-13.26,21.27,21.27,0,0,0-8.48,1.7,22.15,22.15,0,0,0-6.94,4.63,21.1,21.1,0,0,0-4.68,6.93A21.73,21.73,0,0,0,20.76,271.63Z"/><path class="cls-1" d="M200.24,231.54v45.12a42,42,0,0,1-2.42,14.39,32.14,32.14,0,0,1-18.65,19.38,46,46,0,0,1-31.77,0,32.35,32.35,0,0,1-11.51-7.76,32.81,32.81,0,0,1-7-11.62,42.72,42.72,0,0,1-2.36-14.39V231.54H147.1v43.89q0,8.73,4.11,13.36t12.13,4.63q8.11,0,12.28-4.63t4.16-13.36V231.54Z"/><path class="cls-1" d="M284.53,231.54a35.2,35.2,0,0,1,13.36,2.31,25.06,25.06,0,0,1,14.86,15.68,35.43,35.43,0,0,1,1.79,11.3,34.77,34.77,0,0,1-1,8.23,29,29,0,0,1-2.93,7.45,27,27,0,0,1-4.94,6.27,25.77,25.77,0,0,1-7,4.68l17.38,24.25H291.52l-15.21-21.48H265.82v21.48H245.37V231.54Zm-18.71,18.7v21.39H283.4a14,14,0,0,0,5.24-.88,9.64,9.64,0,0,0,3.5-2.31,8.81,8.81,0,0,0,1.95-3.39,13.27,13.27,0,0,0,.62-4,11.63,11.63,0,0,0-2.57-7.71q-2.58-3.09-8.74-3.09Z"/><path class="cls-1" d="M404.69,231.54l32.38,80.17H414.66L410.24,300H378.69l-4.42,11.71H351.86l32.48-80.17Zm-10.17,26.31-8.84,23.54h17.57Z"/><path class="cls-1" d="M477.53,231.54H512.9a35.49,35.49,0,0,1,13.92,2.51,27.26,27.26,0,0,1,15.63,16.61,35.51,35.51,0,0,1,1.9,11.61,37.43,37.43,0,0,1-1.9,12,27.62,27.62,0,0,1-5.81,9.92,28,28,0,0,1-9.82,6.78,35.31,35.31,0,0,1-13.92,2.52H498.09v18.19H477.53Zm20.56,18.7v24.57h13.67q6.48,0,9.15-3.54a14.39,14.39,0,0,0,2.68-8.9,17,17,0,0,0-.62-4.57,10.21,10.21,0,0,0-2.06-3.91,9.89,9.89,0,0,0-3.7-2.67,13.72,13.72,0,0,0-5.45-1Z"/><path class="cls-1" d="M586.18,231.54h20.46v60.34h38.44v19.83h-58.9Z"/><path class="cls-1" d="M733.18,231.54l32.38,80.17H743.15L738.73,300H707.17l-4.42,11.71H680.34l32.48-80.17ZM723,257.85l-8.84,23.54h17.58Z"/><path class="cls-1" d="M805.65,311.71V231.54h17.47l35.77,44.81V231.54h20.46v80.17H862L826.2,267v44.71Z"/><path class="cls-1" d="M925.6,231.54h61.58v19.94h-41V263h33.72V281.6H946.16v10.28h41v19.83H925.6Z"/><path class="cls-1" d="M1026.13,231.54h70.52v19.94h-25v60.23h-20.56V251.48h-25Z"/><text class="cls-2" transform="translate(1117.41 252.18)">®</text><path class="cls-3" d="M571.37,3.69a94.75,94.75,0,1,1-94.63,94.86c0-52.35,42.5-94.86,94.63-94.86Z"/><path class="cls-3" d="M666.22,98.55a91.1,91.1,0,0,0-2.46-20.81H652.58c-4.92-.67-9,0-17-4-8.05-3.81-21.92-4-28.18,6.93-6,11-9.62,16.78,3.8,22.15,13.42,5.14,24.16,21.47,21,30.87a48.9,48.9,0,0,0-2.7,12.05c-10.31-2.65-22.1.8-28.4,10.1-8.72,13.42-13.87,26-24.83,34,28.86,5.59,51,4.7,63.09-6.71,5.37-5.14,8-11.18,8-17a20.93,20.93,0,0,0-2.14-8.33A94.4,94.4,0,0,0,666.22,98.55Z"/><path class="cls-3" d="M599.78,43.74c16.33-7.16,21.92.67,40.27-10.52a91.82,91.82,0,0,0-28.86-20.58,84.55,84.55,0,0,0-10.74,9.17c-3.58,4-9.17,11.86-11,17.68C587.92,45.3,594.41,46,599.78,43.74Z"/><path class="cls-3" d="M540.05,87.59c-17.9-2.24-25.06-4.93-27.52-13.43s24.84-6,37.14-10.06c7.38-2.47,6.93-8.73,3.58-16.34a78,78,0,0,0-7.53-12.87C552.32,24,557.43,14,566.67,7.05c-28.86-5.37-51-4.7-63.09,6.71C498,18.91,495.53,25.17,495.53,31a20.37,20.37,0,0,0,3.13,9.84l.21.31c-10,10.78-16.07,21.75-18.33,33-.22.23.9.45,3.36,1.12,15,2.91,28.86,20.36,32.21,38,3.13,17.68,18.12,53.69,36,59.51s5.37-28.19,11.41-39.15,17.9-13.42,18.57-25.73C582.56,95.64,558.17,89.6,540.05,87.59Z"/><path class="cls-1" d="M585.91,108.08c.62-17.29-31.57-22.73-45.39-24.27-19-2.37-22.71-5.1-24.52-10.13,1.51-1.71,11.06-2.6,16.76-3.13,6.49-.61,13.2-1.24,18.11-2.85,3.69-1.22,6.23-3.35,7.54-6.31,1.71-3.86,1.18-8.68-1.68-15.16a3.8,3.8,0,0,0-7,3.07c2.34,5.31,2.21,7.83,1.69,9-.16.35-.62,1.39-3,2.17-4.09,1.34-10.37,1.92-16.44,2.49-11.89,1.11-19.33,2-22.31,6.39a6.78,6.78,0,0,0-.86,5.86c3.14,10.85,12.4,13.85,30.75,16.14,23,2.56,38.94,9.32,38.68,16.37-.31,5.7-3.59,8.62-8.14,12.67-3.37,3-7.18,6.39-10,11.43s-2.42,12.86-2,21c.31,5.94.76,14.89-1.39,16.54-.52.43-1.83.34-3.51-.21-16.09-5.24-30.54-40.11-33.46-56.6C516.12,93,501.05,75.18,485.33,71.7a84.47,84.47,0,0,1,13.23-24.92,29.79,29.79,0,0,0,21.47,9h.23A29.59,29.59,0,0,0,545,43.15c2.45-3.69,4.61-7.34,6.7-10.85C557,23.36,561.62,15.63,569,10.09a3.81,3.81,0,0,0-1.59-6.78C534.16-2.88,513.06-.43,501,11c-6,5.51-9.28,12.62-9.28,20a3.8,3.8,0,0,0,7.6,0c0-5.26,2.43-10.38,6.87-14.46,9.16-8.66,26.25-11,52.12-7-5.2,5.55-9.09,12.09-13.15,18.92-2,3.42-4.13,7-6.48,10.51a21.71,21.71,0,0,1-18.61,9.29,22.1,22.1,0,0,1-16.43-7.13c8.43-8.39,18.88-14,31.44-16.91a3.8,3.8,0,1,0-1.71-7.41q-22.35,5.19-37,21a3.78,3.78,0,0,0-.95,1.05Q479.25,57,473,88.41a3.8,3.8,0,1,0,7.46,1.48q1.13-5.7,2.58-10.91l.12,0c12.92,2.51,26,18.22,29.2,35,3.37,19,19.14,56.14,38.59,62.46a15.61,15.61,0,0,0,4.84.84,9,9,0,0,0,5.65-1.82c5.33-4.08,4.85-13.25,4.36-23-.33-6.46-.71-13.78,1.06-17,2.15-3.9,5.31-6.71,8.35-9.42C580.24,121.62,585.42,117,585.91,108.08Z"/><path class="cls-1" d="M607.86,172.91a3.81,3.81,0,0,0,.87,7.52,4.38,4.38,0,0,0,.87-.1c32.15-7.52,52.46-31.7,60.35-71.88a3.8,3.8,0,0,0-7.46-1.46q-5.25,26.71-18.17,43.06a30.07,30.07,0,0,0-21.63-9,29.72,29.72,0,0,0-24.75,12.7c-2.35,3.6-4.44,7.15-6.46,10.56-5.37,9.12-10,17-17.44,22.45a3.79,3.79,0,0,0,1.53,6.79,163.65,163.65,0,0,0,30.73,3.39c16.08,0,27.87-3.69,35.71-11.09,6-5.69,9.23-12.71,9.23-19.74a3.81,3.81,0,0,0-7.61,0c0,4.94-2.44,10-6.86,14.23-9.35,8.84-26.43,11.17-52.09,7.1,5.29-5.59,9.24-12.28,13.35-19.26,2-3.32,4-6.77,6.24-10.23a21.94,21.94,0,0,1,18.36-9.29h0a22.41,22.41,0,0,1,16.57,7.1A63.71,63.71,0,0,1,607.86,172.91Z"/><path class="cls-1" d="M579.31,7.94a90.9,90.9,0,0,1,54.41,24.45c-6.89,3.42-11.54,3.65-16.79,3.91-5.08.24-10.85.51-18.61,3.93-2.86,1.19-5,.94-5.2.38,1.48-4.8,6.34-12,10.17-16.27a3.8,3.8,0,1,0-5.68-5.05c-3.11,3.5-9.58,12-11.79,19.21-.88,3.25-.13,6.21,2,8.12a9.45,9.45,0,0,0,6.37,2.09,19.21,19.21,0,0,0,7.08-1.49c6.54-2.88,11.13-3.09,16-3.33,6.13-.3,12.45-.6,22-5.82a90.56,90.56,0,0,1,19.28,34.55c-11,2.1-14.71,1-21.33-2.34-9.25-4.36-25.64-4.63-33.14,8.54l-.4.71c-3.8,6.89-6.81,12.34-4.88,17.72,1.33,3.73,4.82,6.61,11,9.09,9.76,3.78,21.76,16.8,18.35,27a3.81,3.81,0,0,0,2.41,4.81,3.87,3.87,0,0,0,1.2.2,3.81,3.81,0,0,0,3.61-2.6c5-15-10.18-31.62-22.78-36.51-4.85-1.94-6.3-3.55-6.66-4.57-.77-2.15,1.62-6.48,4.38-11.48l.37-.67c5.07-8.89,16.67-8.51,23.18-5.43,8.41,4.22,13.87,5.35,26.51,2.89a90,90,0,0,1,1.82,15.32A3.79,3.79,0,0,0,666,99h.12a3.79,3.79,0,0,0,3.68-3.92,98.18,98.18,0,0,0-2.69-19.83,5.58,5.58,0,0,0-.08-.57,4.29,4.29,0,0,0-.25-.74A98.25,98.25,0,0,0,643.27,31.2a3.74,3.74,0,0,0-1-1.09A98.51,98.51,0,0,0,580,.35a3.77,3.77,0,0,0-4.13,3.45A3.83,3.83,0,0,0,579.31,7.94Z"/><path class="cls-1" d="M563.65,189.16a91.48,91.48,0,0,1-83.11-87.62,3.8,3.8,0,0,0-7.6.28,99.12,99.12,0,0,0,90,94.92h.34a3.8,3.8,0,0,0,.33-7.59Z"/></g></g></svg>