<svg xmlns="http://www.w3.org/2000/svg" viewBox="0 0 1920 132.13"><defs><style>.cls-1{fill:#c6dab3;opacity:0.57;}</style></defs><g id="Capa_2" data-name="Capa 2"><g id="Capa_1-2" data-name="Capa 1"><path class="cls-1" d="M0,0H1920V104c-61.69-13.58-116.5,35.5-214.5,10.5-76.47-19.51-148,34.19-262,9-78.74-17.39-113.75-20.58-198-2-47.64,10.51-155.23-16.22-181-8-96.21,30.68-104-7.08-222-6-131.55,1.2-109.28,21.35-215,2-56.29-10.3-107.68,17.19-163,22-56.51,4.91-86.21-20.14-138-27-49.65-6.57-127.32,33.54-172,26C81.7,118.22,8.26,104.38.5,104Z"/></g></g></svg>