<svg xmlns="http://www.w3.org/2000/svg" viewBox="0 0 1920 215.08"><defs><style>.cls-1{fill:#c5e8e7;}</style></defs><g id="Capa_2" data-name="Capa 2"><g id="Capa_1-2" data-name="Capa 1"><path class="cls-1" d="M1920,200c-46.09-3.39-82.52,0-108,4-24.54,3.84-39-4.5-73-6-26.25-1.15-78,17-109,11-65.14-12.61-110,6-169,1-74-6.28-77.72-6.5-141-2-45.52,3.24-54,7.72-92,7-55.64-1.06-51-8.09-105-7-31.3.63-44.09-9.72-84-11-23.32-.75-59.94,12.52-79,11-46.71-3.74-59.24-12.55-116-12-78.53.76-59.47,8-125,11-48.77,2.23-57.87-11.72-99-11-56.45,1-54.77,13.37-120,13-40.44-.23-43.39-15.3-93-15-49.39.3-57,10.42-117,9-73.63-1.74-64.34-16.46-118-19-49.09-2.32-63.92,9.48-110,11-26.52.88-48.12,3.21-62,5V0H1920Z"/></g></g></svg>