<svg id="_Layer_" data-name="&lt;Layer&gt;" xmlns="http://www.w3.org/2000/svg" viewBox="0 0 6296.8 4094.74"><defs><style>.cls-1{fill:#c6dab3;}</style></defs><path class="cls-1" d="M3045,331.1c-1-176.67,98.19-166,98.19-166-51.68,26.94-67.69,61.88-67.69,61.88,107.74,56.78,181.26-85.17,181.26-85.17-105.55-61.88-178.35-27.66-195.09-4.37s-6.6,52.4-6.6,52.4c-8.57,16.56-14.31,37.93-18.15,59.76-3.85-21.83-9.58-43.2-18.16-59.76,0,0,10.15-29.11-6.59-52.4S2922.58,80,2817,141.83c0,0,73.53,141.95,181.27,85.17,0,0-16-34.94-67.69-61.88,0,0,99.17-10.69,98.19,166H2786.45v77.64h192.18l-149.34,20.58,50.19,449.92h314.77l52.49-470.5h40.55V331.1Z" transform="translate(-239.25 -106.79)"/><path class="cls-1" d="M1771.35,331.1c-1-176.67,98.19-166,98.19-166-51.68,26.94-67.69,61.88-67.69,61.88,107.74,56.78,181.26-85.17,181.26-85.17C1877.56,80,1804.75,114.17,1788,137.46s-6.6,52.4-6.6,52.4c-8.58,16.56-14.31,37.93-18.15,59.76-3.85-21.83-9.58-43.2-18.16-59.76,0,0,10.15-29.11-6.59-52.4S1649,80,1543.42,141.83c0,0,73.53,141.95,181.26,85.17,0,0-16-34.94-67.69-61.88,0,0,99.18-10.69,98.19,166H1512.85v77.64H1705l-149.35,20.58,50.2,449.92h314.77l52.49-470.5h40.54V331.1Z" transform="translate(-239.25 -106.79)"/><path class="cls-1" d="M4318.55,331.1c-1-176.67,98.19-166,98.19-166-51.67,26.94-67.69,61.88-67.69,61.88,107.74,56.78,181.26-85.17,181.26-85.17C4424.76,80,4352,114.17,4335.22,137.46s-6.6,52.4-6.6,52.4c-8.57,16.56-14.31,37.93-18.15,59.76-3.85-21.83-9.58-43.2-18.16-59.76,0,0,10.15-29.11-6.59-52.4s-89.54-57.51-195.09,4.37c0,0,73.52,141.95,181.26,85.17,0,0-16-34.94-67.69-61.88,0,0,99.18-10.69,98.19,166H4060.05v77.64h192.18l-149.34,20.58,50.19,449.92h314.78l52.49-470.5h40.54V331.1Z" transform="translate(-239.25 -106.79)"/><path class="cls-1" d="M497.75,331.1c-1-176.67,98.19-166,98.19-166C544.26,192.06,528.25,227,528.25,227,636,283.78,709.51,141.83,709.51,141.83,604,80,531.15,114.17,514.42,137.46s-6.6,52.4-6.6,52.4c-8.58,16.56-14.31,37.93-18.16,59.76-3.84-21.83-9.57-43.2-18.15-59.76,0,0,10.15-29.11-6.6-52.4S375.38,80,269.82,141.83c0,0,73.52,141.95,181.26,85.17,0,0-16-34.94-67.69-61.88,0,0,99.18-10.69,98.19,166H239.25v77.64H431.43L282.08,429.32l50.2,449.92H647.05l52.49-470.5h40.54V331.1Z" transform="translate(-239.25 -106.79)"/><path class="cls-1" d="M5592.15,331.1c-1-176.67,98.19-166,98.19-166-51.67,26.94-67.69,61.88-67.69,61.88,107.74,56.78,181.26-85.17,181.26-85.17-105.55-61.88-178.35-27.66-195.09-4.37s-6.59,52.4-6.59,52.4c-8.58,16.56-14.31,37.93-18.16,59.76-3.84-21.83-9.58-43.2-18.15-59.76,0,0,10.14-29.11-6.6-52.4s-89.54-57.51-195.09,4.37c0,0,73.52,141.95,181.26,85.17,0,0-16-34.94-67.69-61.88,0,0,99.18-10.69,98.19,166H5333.65v77.64h192.18l-149.34,20.58,50.19,449.92h314.78L5794,408.74h40.54V331.1Z" transform="translate(-239.25 -106.79)"/><path class="cls-1" d="M3746.51,1438.52c-1-176.66,98.19-166,98.19-166-51.68,26.93-67.69,61.87-67.69,61.87,107.73,56.79,181.26-85.17,181.26-85.17-105.56-61.87-178.36-27.65-195.1-4.36s-6.59,52.4-6.59,52.4c-8.58,16.55-14.31,37.93-18.16,59.76-3.84-21.83-9.57-43.21-18.15-59.76,0,0,10.15-29.11-6.6-52.4s-89.54-57.51-195.09,4.36c0,0,73.52,142,181.26,85.17,0,0-16-34.94-67.69-61.87,0,0,99.18-10.69,98.19,166H3488v77.65h192.18l-149.35,20.57,50.2,449.93h314.77l52.49-470.5h40.54v-77.65Z" transform="translate(-239.25 -106.79)"/><path class="cls-1" d="M2472.9,1438.52c-1-176.66,98.2-166,98.2-166-51.68,26.93-67.7,61.87-67.7,61.87,107.74,56.79,181.27-85.17,181.27-85.17-105.56-61.87-178.36-27.65-195.1-4.36s-6.59,52.4-6.59,52.4c-8.58,16.55-14.31,37.93-18.16,59.76-3.84-21.83-9.58-43.21-18.15-59.76,0,0,10.15-29.11-6.6-52.4s-89.54-57.51-195.09,4.36c0,0,73.52,142,181.26,85.17,0,0-16-34.94-67.69-61.87,0,0,99.18-10.69,98.19,166H2214.4v77.65h192.19l-149.35,20.57,50.2,449.93h314.77l52.49-470.5h40.54v-77.65Z" transform="translate(-239.25 -106.79)"/><path class="cls-1" d="M5020.11,1438.52c-1-176.66,98.19-166,98.19-166-51.68,26.93-67.69,61.87-67.69,61.87,107.74,56.79,181.26-85.17,181.26-85.17-105.55-61.87-178.36-27.65-195.09-4.36s-6.6,52.4-6.6,52.4c-8.58,16.55-14.31,37.93-18.15,59.76-3.85-21.83-9.58-43.21-18.16-59.76,0,0,10.15-29.11-6.59-52.4s-89.54-57.51-195.1,4.36c0,0,73.53,142,181.26,85.17,0,0-16-34.94-67.69-61.87,0,0,99.18-10.69,98.19,166H4761.61v77.65h192.18l-149.35,20.57,50.2,449.93h314.77l52.49-470.5h40.54v-77.65Z" transform="translate(-239.25 -106.79)"/><path class="cls-1" d="M1199.3,1438.52c-1-176.66,98.19-166,98.19-166-51.67,26.93-67.69,61.87-67.69,61.87,107.74,56.79,181.26-85.17,181.26-85.17-105.55-61.87-178.35-27.65-195.09-4.36s-6.59,52.4-6.59,52.4c-8.58,16.55-14.31,37.93-18.16,59.76-3.84-21.83-9.58-43.21-18.15-59.76,0,0,10.14-29.11-6.6-52.4s-89.54-57.51-195.09,4.36c0,0,73.52,142,181.26,85.17,0,0-16-34.94-67.69-61.87,0,0,99.18-10.69,98.19,166H940.8v77.65H1133l-149.34,20.57,50.19,449.93h314.78l52.49-470.5h40.54v-77.65Z" transform="translate(-239.25 -106.79)"/><path class="cls-1" d="M6293.71,1438.52c-1-176.66,98.19-166,98.19-166-51.68,26.93-67.69,61.87-67.69,61.87,107.74,56.79,181.26-85.17,181.26-85.17-105.55-61.87-178.35-27.65-195.09-4.36s-6.6,52.4-6.6,52.4c-8.57,16.55-14.31,37.93-18.15,59.76-3.85-21.83-9.58-43.21-18.16-59.76,0,0,10.15-29.11-6.59-52.4s-89.54-57.51-195.1,4.36c0,0,73.53,142,181.27,85.17,0,0-16-34.94-67.7-61.87,0,0,99.18-10.69,98.19,166H6035.21v77.65h192.18l-149.34,20.57,50.19,449.93H6443l52.49-470.5h40.55v-77.65Z" transform="translate(-239.25 -106.79)"/><path class="cls-1" d="M3045,2546c-1-176.66,98.19-166,98.19-166-51.68,26.94-67.69,61.88-67.69,61.88,107.74,56.78,181.26-85.17,181.26-85.17-105.55-61.88-178.35-27.66-195.09-4.37s-6.6,52.41-6.6,52.41c-8.57,16.55-14.31,37.93-18.15,59.75-3.85-21.82-9.58-43.2-18.16-59.75,0,0,10.15-29.11-6.59-52.41s-89.54-57.51-195.1,4.37c0,0,73.53,142,181.27,85.17,0,0-16-34.94-67.69-61.88,0,0,99.17-10.68,98.19,166H2786.45v77.65h192.18l-149.34,20.57,50.19,449.93h314.77l52.49-470.5h40.55V2546Z" transform="translate(-239.25 -106.79)"/><path class="cls-1" d="M1771.35,2546c-1-176.66,98.19-166,98.19-166-51.68,26.94-67.69,61.88-67.69,61.88,107.74,56.78,181.26-85.17,181.26-85.17-105.55-61.88-178.36-27.66-195.09-4.37s-6.6,52.41-6.6,52.41c-8.58,16.55-14.31,37.93-18.15,59.75-3.85-21.82-9.58-43.2-18.16-59.75,0,0,10.15-29.11-6.59-52.41s-89.54-57.51-195.1,4.37c0,0,73.53,142,181.26,85.17,0,0-16-34.94-67.69-61.88,0,0,99.18-10.68,98.19,166H1512.85v77.65H1705l-149.35,20.57,50.2,449.93h314.77l52.49-470.5h40.54V2546Z" transform="translate(-239.25 -106.79)"/><path class="cls-1" d="M4318.55,2546c-1-176.66,98.19-166,98.19-166-51.67,26.94-67.69,61.88-67.69,61.88,107.74,56.78,181.26-85.17,181.26-85.17-105.55-61.88-178.35-27.66-195.09-4.37s-6.6,52.41-6.6,52.41c-8.57,16.55-14.31,37.93-18.15,59.75-3.85-21.82-9.58-43.2-18.16-59.75,0,0,10.15-29.11-6.59-52.41s-89.54-57.51-195.09,4.37c0,0,73.52,142,181.26,85.17,0,0-16-34.94-67.69-61.88,0,0,99.18-10.68,98.19,166H4060.05v77.65h192.18l-149.34,20.57,50.19,449.93h314.78l52.49-470.5h40.54V2546Z" transform="translate(-239.25 -106.79)"/><path class="cls-1" d="M497.75,2546c-1-176.66,98.19-166,98.19-166-51.68,26.94-67.69,61.88-67.69,61.88,107.73,56.78,181.26-85.17,181.26-85.17C604,2294.8,531.15,2329,514.42,2352.31s-6.6,52.41-6.6,52.41c-8.58,16.55-14.31,37.93-18.16,59.75-3.84-21.82-9.57-43.2-18.15-59.75,0,0,10.15-29.11-6.6-52.41s-89.53-57.51-195.09,4.37c0,0,73.52,142,181.26,85.17,0,0-16-34.94-67.69-61.88,0,0,99.18-10.68,98.19,166H239.25v77.65H431.43l-149.35,20.57,50.2,449.93H647.05l52.49-470.5h40.54V2546Z" transform="translate(-239.25 -106.79)"/><path class="cls-1" d="M5592.15,2546c-1-176.66,98.19-166,98.19-166-51.67,26.94-67.69,61.88-67.69,61.88,107.74,56.78,181.26-85.17,181.26-85.17-105.55-61.88-178.35-27.66-195.09-4.37s-6.59,52.41-6.59,52.41c-8.58,16.55-14.31,37.93-18.16,59.75-3.84-21.82-9.58-43.2-18.15-59.75,0,0,10.14-29.11-6.6-52.41s-89.54-57.51-195.09,4.37c0,0,73.52,142,181.26,85.17,0,0-16-34.94-67.69-61.88,0,0,99.18-10.68,98.19,166H5333.65v77.65h192.18l-149.34,20.57,50.19,449.93h314.78L5794,2623.6h40.54V2546Z" transform="translate(-239.25 -106.79)"/><path class="cls-1" d="M3746.51,3653.38c-1-176.67,98.19-166,98.19-166-51.68,26.94-67.69,61.88-67.69,61.88,107.73,56.78,181.26-85.17,181.26-85.17-105.56-61.88-178.36-27.66-195.1-4.37s-6.59,52.4-6.59,52.4c-8.58,16.56-14.31,37.93-18.16,59.76-3.84-21.83-9.57-43.2-18.15-59.76,0,0,10.15-29.11-6.6-52.4s-89.54-57.51-195.09,4.37c0,0,73.52,141.95,181.26,85.17,0,0-16-34.94-67.69-61.88,0,0,99.18-10.69,98.19,166H3488V3731h192.18l-149.35,20.58,50.2,449.92h314.77L3948.3,3731h40.54v-77.64Z" transform="translate(-239.25 -106.79)"/><path class="cls-1" d="M2472.9,3653.38c-1-176.67,98.2-166,98.2-166-51.68,26.94-67.7,61.88-67.7,61.88,107.74,56.78,181.27-85.17,181.27-85.17-105.56-61.88-178.36-27.66-195.1-4.37s-6.59,52.4-6.59,52.4c-8.58,16.56-14.31,37.93-18.16,59.76-3.84-21.83-9.58-43.2-18.15-59.76,0,0,10.15-29.11-6.6-52.4s-89.54-57.51-195.09,4.37c0,0,73.52,141.95,181.26,85.17,0,0-16-34.94-67.69-61.88,0,0,99.18-10.69,98.19,166H2214.4V3731h192.19l-149.35,20.58,50.2,449.92h314.77L2674.7,3731h40.54v-77.64Z" transform="translate(-239.25 -106.79)"/><path class="cls-1" d="M5020.11,3653.38c-1-176.67,98.19-166,98.19-166-51.68,26.94-67.69,61.88-67.69,61.88,107.74,56.78,181.26-85.17,181.26-85.17-105.55-61.88-178.36-27.66-195.09-4.37s-6.6,52.4-6.6,52.4c-8.58,16.56-14.31,37.93-18.15,59.76-3.85-21.83-9.58-43.2-18.16-59.76,0,0,10.15-29.11-6.59-52.4s-89.54-57.51-195.1,4.37c0,0,73.53,141.95,181.26,85.17,0,0-16-34.94-67.69-61.88,0,0,99.18-10.69,98.19,166H4761.61V3731h192.18l-149.35,20.58,50.2,449.92h314.77L5221.9,3731h40.54v-77.64Z" transform="translate(-239.25 -106.79)"/><path class="cls-1" d="M1199.3,3653.38c-1-176.67,98.19-166,98.19-166-51.67,26.94-67.69,61.88-67.69,61.88,107.74,56.78,181.26-85.17,181.26-85.17-105.55-61.88-178.35-27.66-195.09-4.37s-6.59,52.4-6.59,52.4c-8.58,16.56-14.31,37.93-18.16,59.76-3.84-21.83-9.58-43.2-18.15-59.76,0,0,10.14-29.11-6.6-52.4s-89.54-57.51-195.09,4.37c0,0,73.52,141.95,181.26,85.17,0,0-16-34.94-67.69-61.88,0,0,99.18-10.69,98.19,166H940.8V3731H1133L983.64,3751.6l50.19,449.92h314.78L1401.1,3731h40.54v-77.64Z" transform="translate(-239.25 -106.79)"/><path class="cls-1" d="M6293.71,3653.38c-1-176.67,98.19-166,98.19-166-51.68,26.94-67.69,61.88-67.69,61.88,107.74,56.78,181.26-85.17,181.26-85.17-105.55-61.88-178.35-27.66-195.09-4.37s-6.6,52.4-6.6,52.4c-8.57,16.56-14.31,37.93-18.15,59.76-3.85-21.83-9.58-43.2-18.16-59.76,0,0,10.15-29.11-6.59-52.4s-89.54-57.51-195.1,4.37c0,0,73.53,141.95,181.27,85.17,0,0-16-34.94-67.7-61.88,0,0,99.18-10.69,98.19,166H6035.21V3731h192.18l-149.34,20.58,50.19,449.92H6443L6495.5,3731h40.55v-77.64Z" transform="translate(-239.25 -106.79)"/></svg>