<svg xmlns="http://www.w3.org/2000/svg" xmlns:xlink="http://www.w3.org/1999/xlink" viewBox="0 0 661.49 302"><defs><style>.cls-1,.cls-7{fill:none;}.cls-2{clip-path:url(#clip-path);}.cls-3{fill:#ddbc93;}.cls-4{fill:#b8b835;}.cls-5{fill:#675958;}.cls-6{fill:#fff;}.cls-7{stroke:#fff;stroke-miterlimit:10;stroke-width:0.51px;}.cls-8{fill:#2d180b;}</style><clipPath id="clip-path"><rect class="cls-1" width="660" height="302"/></clipPath></defs><g id="Capa_2" data-name="Capa 2"><g id="OBJECT"><g class="cls-2"><rect class="cls-3" width="660" height="302"/><rect class="cls-4" x="554" y="0.04" width="106" height="301.95"/><rect class="cls-4" y="102.71" width="33.17" height="96.59"/><path class="cls-5" d="M274.12,258.08c-.7,0-1.13-2.19-.93-5.48a53.29,53.29,0,0,1,.63-5.4c.27-1.71.93-3.44,1.35-5.26s.83-3.54,1.35-5.26,1-3.57,1.6-5.18c.7-1.87,1.5-3.54,2.19-5,1.41-2.94,2.64-4.7,3.1-4.51s-.18,2.17-1.06,5.25l-1.5,5.09c-.48,1.62-1.05,3.32-1.54,5.08s-.51,3.53-.94,5.23-.79,3.52-1.17,5.16c-.46,1.89-1.24,3.59-1.59,5.1C274.89,256,274.49,258.09,274.12,258.08Z"/><path class="cls-5" d="M284.23,220.76c.36,0,.52.91.5,2.43s-.19,3.65-.18,6.15a18.38,18.38,0,0,0,1.5,7.73c.07.11,0,.06,0,.1a.54.54,0,0,0,0,.2c.09.18.11.17.22-.42l.28-1.54c.13-.72.26-1.44.42-2.16.29-1.45.63-2.89,1-4.3.79-2.93,1.55-5.81,2.55-8.43a79,79,0,0,1,3.62-8c2.39-4.7,4.48-7.45,4.9-7.21s-1.07,3.25-2.91,8.07c-.9,2.34-1.91,5.08-2.89,8.08-.84,2.59-1.73,5.34-2.46,8.21a39,39,0,0,0-.77,4.21l-.28,2.13-.44,2.82a23.83,23.83,0,0,1-.73,3.69l-.46,1.57-.24.77s0,.11,0,.06l-.08-.08-.16-.16-.33-.33c-.86-.89-1.62-1.57-2.39-2.49a15.25,15.25,0,0,1-2-3.29c-1.41-3.41-1.08-6.68-.83-9.27a36.93,36.93,0,0,1,1.21-6.25C283.74,221.56,284.06,220.75,284.23,220.76Z"/><path class="cls-5" d="M301.1,201.5c-.54-.45-.34-1.67.57-3.05a17.85,17.85,0,0,1,1.68-2.13c.57-.64,1.43-1.06,2.11-1.69s1.31-1.23,2-1.78,1.38-1.21,2.11-1.67a20.33,20.33,0,0,1,2.4-1.27c1.49-.7,2.59-.91,2.88-.5s-.46,1.13-1.57,2.24c-.54.54-1.2,1.13-1.92,1.77s-1.33,1.05-2,1.63-1,1.45-1.69,2-1.28,1.21-1.92,1.73-1.7.89-2.31,1.35C302.19,201.09,301.37,201.73,301.1,201.5Z"/><path class="cls-5" d="M316.4,190.06c.71.05,1.24,1.23,1.35,3a24.9,24.9,0,0,1,0,2.86c0,.9-.42,1.82-.53,2.8s-.17,1.89-.32,2.82-.18,1.93-.37,2.81c-.22,1-.54,2-.79,2.77-.52,1.66-1.09,2.7-1.6,2.65s-.53-1.18-.56-2.9c0-.83,0-1.8.1-2.84s.24-1.84.35-2.81-.21-1.93-.07-2.86.21-1.93.37-2.82.79-1.93,1-2.74C315.75,191.12,316,190,316.4,190.06Z"/><path class="cls-5" d="M318,211.62c-.7-.15-.93-1.76-.7-4.06.11-1.11.3-2.39.51-3.76.18-1.19.69-2.39.92-3.68s.37-2.5.59-3.74.3-2.56.53-3.75c.26-1.37.59-2.63.84-3.73.51-2.24,1-3.71,1.53-3.68s.6,1.53.63,3.86c0,1.13,0,2.45-.15,3.87-.09,1.22-.33,2.51-.52,3.83s0,2.63-.22,3.89-.46,2.61-.78,3.8a39,39,0,0,1-1.5,3.63C318.93,210.29,318.36,211.69,318,211.62Z"/><path class="cls-5" d="M322.52,182.8c-.48-.58,2-2.88,5.76-6.4.89-.87,1.89-1.75,2.88-2.78l1.55-1.55,1.57-1.67c1.86-2,4-3.93,5.86-6.18.9-1.1,1.78-2.22,2.66-3.35l2.59-3.41c1.77-2.36,3.36-4.79,4.94-7l5.07-7c3-4.21,5.17-6.86,5.61-6.59s-1.19,3.22-3.77,7.74c-1.26,2.19-2.77,4.72-4.51,7.4-1.49,2.32-3.23,4.69-5,7.12-.85,1.17-1.66,2.38-2.46,3.61s-1.66,2.41-2.6,3.52c-2,2.28-3.89,4.55-5.9,6.48-.58.57-1.17,1.1-1.76,1.61l-1.79,1.4c-1.15.91-2.33,1.67-3.33,2.46C325.73,181.4,322.73,183,322.52,182.8Z"/><path class="cls-5" d="M361.35,137.85c.52-.45,3,1.93,5.71,6.43a48.63,48.63,0,0,1,3.81,7.87,45.66,45.66,0,0,1,2,8.57,54.27,54.27,0,0,1,.75,8.7,75.75,75.75,0,0,1-.35,8.66c-.36,3.16-.95,6-1.46,8.47-1.06,5-2.09,8.22-2.58,8.14s-.08-3.38.43-8.44c.24-2.46.54-5.31.75-8.39.17-2.66.37-5.49.32-8.36a60.46,60.46,0,0,0-1.09-8.21,51.34,51.34,0,0,0-2-7.95,73.61,73.61,0,0,0-2.73-7.87C362.79,140.92,361.05,138.09,361.35,137.85Z"/><path class="cls-5" d="M367.59,194.36c.35.61,0,1.55-1,2.32a8.86,8.86,0,0,1-1.77,1,14.81,14.81,0,0,1-2,.36,14.2,14.2,0,0,1-2,.41,13.94,13.94,0,0,1-2,.22,9.26,9.26,0,0,1-2-.37c-1.19-.31-1.9-.83-1.86-1.33s.75-.6,1.83-.84c.52-.12,1.12-.21,1.76-.32s1.16-.1,1.76-.21,1.08-.63,1.64-.74,1.15-.33,1.69-.44,1.37.1,1.9,0C366.7,194.23,367.41,194,367.59,194.36Z"/><path class="cls-5" d="M353.56,198c0-.72,4.38-.86,11.15-.39a9.63,9.63,0,0,1,1.41.16,3.58,3.58,0,0,1,1.9,1,3.85,3.85,0,0,1,1,2,9.38,9.38,0,0,1,.16,1.62c.06,1.92.13,3.95,0,6.06a49.53,49.53,0,0,1-.61,5.58c-.37,1.89-.69,3.81-1.14,5.73s-.88,3.7-1.37,5.55c-.27.91-.58,1.82-.87,2.73s-.61,1.8-1,2.68A70.42,70.42,0,0,1,359.4,241a65.74,65.74,0,0,1-6.61,9.26c-4.45,5.2-8.09,7.77-8.38,7.44s2.77-3.39,6.65-8.76a85.37,85.37,0,0,0,5.82-9.31,77.39,77.39,0,0,0,4.61-10,22,22,0,0,0,.86-2.6c.24-.89.49-1.77.7-2.66q.58-2.7,1.15-5.36c.45-1.83.7-3.68,1-5.48.1-.91.2-1.81.3-2.69s.19-1.77.24-2.63.2-2,.24-2.95.14-1.91.2-2.83a4,4,0,0,0-.09-1.88c-.06-.26-.73-.48-1.57-.58C357.9,199.05,353.58,198.37,353.56,198Z"/><path class="cls-5" d="M343.29,257.82c-.07.71-2,1.07-4.83,1-1.37,0-3-.18-4.69-.34-1.48-.15-3-.63-4.61-.83s-3.12-.34-4.66-.57-3.18-.32-4.65-.56c-1.71-.29-3.27-.66-4.62-1-2.77-.6-4.56-1.2-4.51-1.71s1.88-.5,4.72-.45c1.38,0,3,.11,4.7.25,1.5.12,3.07.36,4.68.55s3.18,0,4.73.19,3.19.39,4.67.66c1.7.31,3.22,1,4.56,1.34C341.53,257,343.32,257.47,343.29,257.82Z"/><path class="cls-5" d="M312.81,254.09c.26-.66,1.79-.68,3.88-.15,1,.25,2.16.6,3.4,1,1.07.34,2.1,1,3.25,1.38s2.26.69,3.36,1.07,2.32.64,3.38,1c1.23.44,2.35.93,3.32,1.32,2,.8,3.28,1.5,3.18,2s-1.51.38-3.67.11a35.59,35.59,0,0,1-3.56-.65c-1.12-.26-2.28-.66-3.47-1s-2.44-.31-3.57-.73-2.35-.79-3.41-1.26c-1.22-.54-2.18-1.45-3.11-2C313.88,255.17,312.68,254.42,312.81,254.09Z"/><path class="cls-5" d="M339.31,264.64c.17.06.21.32.12.77a5.83,5.83,0,0,1-.71,1.84,14.51,14.51,0,0,1-5,5.15,27.7,27.7,0,0,1-9.19,3.66,48.78,48.78,0,0,1-9.69.7,84.81,84.81,0,0,1-9.56-.39A86.3,86.3,0,0,1,295.8,275a73.9,73.9,0,0,1-9.15-2.74c-5.38-2-8.58-3.89-8.39-4.33s3.6.86,9,2.25c2.62.68,5.7,1.39,9.05,2,2.9.51,6,1,9.17,1.33s6.21,0,9.26,0a52.08,52.08,0,0,0,9-.79c3.23-.58,6.3-1.13,8.63-2.36a18.28,18.28,0,0,0,5.12-3.87c.55-.55.92-1,1.21-1.37S339.23,264.6,339.31,264.64Z"/><path class="cls-5" d="M359.35,154.47c.17-1,.39-1.9.47-2.74s.16-1.59.2-2.21c.07-1.24-.06-2-.18-2a15.27,15.27,0,0,0-.15,1.65c-.18,1.06-.29,2.61-.72,4.49a99.46,99.46,0,0,1-4.13,14.27c-2,5.38-4.45,11-6.87,16-.61,1.24-1.21,2.44-1.79,3.59s-1.18,2.23-1.73,3.26c-1.08,2.06-2.1,3.84-2.94,5.24a201.66,201.66,0,0,1-11.74,17.86c-4,5.43-8,10.43-12,14.92a199.82,199.82,0,0,1-23,22.31,160.18,160.18,0,0,1-18.49,13c-2.89,1.63-5.54,3.22-8.15,4.44l-3.73,1.85L260.81,272c-1.15.48-2.23,1-3.3,1.39l-3.11,1.1-2.87,1c-.91.32-1.82.53-2.66.78l-4.67,1.34-3.87.84-3.1.71-2.43.4c-1.41.25-2.41.46-3.11.64-1.41.38-1.63.66-1.6,1s1.9.14,5.32-.15c.84-.1,1.81-.11,2.82-.32l3.34-.58c1.19-.23,2.48-.4,3.82-.74l4.21-1.09c11.84-3,27.37-10.34,42-21.6a174.67,174.67,0,0,0,24.29-23A230.51,230.51,0,0,0,336,207.09c10-15.38,17.23-30.45,21.12-41.81a79.51,79.51,0,0,0,3.57-13.73c.11-.83.2-1.57.28-2.21s.05-1.2.07-1.64a8,8,0,0,0,0-1.34c-.32,0-.51,1-.66,2.46S359.87,152.34,359.35,154.47Z"/><path class="cls-5" d="M271.36,233.81c.48.05.62,1.6.44,3.91l-.33,3.79c-.1,1.2-.4,2.45-.47,3.74s0,2.51,0,3.75.22,2.54.35,3.71c.15,1.36.33,2.62.55,3.69.47,2.2.95,3.64.63,3.81s-1.14-1.14-2-3.37a21.81,21.81,0,0,1-1.07-3.81,30.41,30.41,0,0,1-.39-3.93,34.58,34.58,0,0,1-.24-3.94c.09-1.35.18-2.67.37-3.9.22-1.42.74-2.67,1-3.77C270.73,235.24,271.13,233.79,271.36,233.81Z"/><path class="cls-5" d="M287.83,246.89a1.14,1.14,0,0,1,1.24-.17,1.82,1.82,0,0,1,.5.43c.13.16.06.43.14.62a2.45,2.45,0,0,1,.24.58,2.67,2.67,0,0,1,.16.6,2,2,0,0,1-.16.66,1,1,0,0,1-.75.7c-.34,0-.46-.15-.66-.4a2.72,2.72,0,0,1-.27-.44c-.07-.14-.07-.3-.13-.46s-.38-.2-.42-.34-.14-.28-.17-.43.16-.48.14-.64C287.67,247.26,287.64,247,287.83,246.89Z"/><path class="cls-5" d="M315.47,213.94a1.27,1.27,0,0,1,1,1.13,5.33,5.33,0,0,1,.06,1c0,.32-.24.62-.29,1s-.07.65-.14,1-.08.68-.18,1a6.72,6.72,0,0,1-.46.93c-.31.55-.66.89-1,.84s-.38-.45-.43-1.06a5.55,5.55,0,0,1,0-1c0-.31.11-.64.16-1s-.18-.7-.11-1,.09-.67.18-1,.48-.64.6-.91C315.06,214.27,315.23,213.91,315.47,213.94Z"/><path class="cls-5" d="M328.69,177.69c.45-.12,1.2,2.49,1.59,6.65.18,2,.31,4.35.29,6.89,0,2.19-.29,4.51-.46,6.88l-.3,3.43c-.14,1.15-.26,2.29-.44,3.42-.36,2.35-.67,4.66-1.17,6.79-.55,2.47-1.24,4.72-1.85,6.63-1.26,3.93-2.42,6.36-2.72,6.26S324.06,222,325,218c.43-1.93.93-4.18,1.37-6.63.4-2.11.81-4.36,1.14-6.67.16-1.11.21-2.24.28-3.37s.09-2.26.19-3.38c.19-2.32.28-4.6.35-6.74.11-2.48.38-4.78.38-6.77C328.64,180.41,328.44,177.75,328.69,177.69Z"/><path class="cls-5" d="M303.19,201.42c.48.06.21,2.68-.62,6.62-.4,1.9-.88,4.1-1.39,6.48-.45,2-1.09,4.2-1.52,6.44s-.74,4.35-1.06,6.51-.48,4.46-.63,6.54c-.11,1.21-.19,2.37-.25,3.47s-.09,2.14-.11,3.1c0,4,.13,6.56-.23,6.61s-.89-2.51-1.22-6.54a54.25,54.25,0,0,1-.1-6.73c.06-2.13.34-4.39.63-6.68s.37-4.48.81-6.66.9-4.49,1.44-6.54c.6-2.39,1.49-4.5,2.05-6.36C302.15,203.87,303,201.4,303.19,201.42Z"/><path class="cls-5" d="M302.63,244.41c.05-.5,2.71-.25,6.74.27,1.95.24,4.21.54,6.67.76,2.12.22,4.36.59,6.68.72,1.11.06,2.23.08,3.35.12l3.36,0c2.31,0,4.58-.13,6.71-.23,2.47-.08,4.76-.2,6.72-.34,4-.32,6.68-.57,6.75-.22s-2.52,1-6.56,1.65c-2,.32-4.26.63-6.77.82-2.16.19-4.46.22-6.82.25-1.13,0-2.27.05-3.41.11s-2.29.06-3.42,0c-2.35-.16-4.66-.31-6.81-.61-2.5-.33-4.74-1-6.68-1.44C305.16,245.41,302.62,244.63,302.63,244.41Z"/><path class="cls-5" d="M341.82,196.62c-.05-.49,1.48-.9,3.71-1.57,1.07-.33,2.32-.73,3.63-1.26,1.13-.45,2.4-.81,3.6-1.41s2.28-1.26,3.39-1.93,2.22-1.49,3.27-2.18l3.35-2.13c2-1.31,3.41-2.07,3.62-1.8s-.93,1.33-2.72,2.93c-.88.78-1.94,1.65-3.12,2.55-1,.78-2.18,1.51-3.36,2.26a37.4,37.4,0,0,1-3.43,2.24,31.25,31.25,0,0,1-3.79,1.62,22,22,0,0,1-4.08.69C343.45,197,341.84,196.84,341.82,196.62Z"/><path class="cls-5" d="M352.09,150.52c.48.06.58,1.55.42,3.74-.08,1.07-.17,2.29-.27,3.6-.09,1.14-.36,2.34-.43,3.59s-.05,2.41-.07,3.61.08,2.47.1,3.61c0,1.32,0,2.57,0,3.64,0,2.19,0,3.64-.31,3.71s-.7-1.34-1.12-3.53a35.79,35.79,0,0,1-.49-3.69c-.11-1.17-.11-2.43-.12-3.71s-.26-2.5-.18-3.73.15-2.55.32-3.72a34.06,34.06,0,0,1,.95-3.62C351.42,151.86,351.87,150.48,352.09,150.52Z"/><path class="cls-5" d="M357.94,236.73c.16.17-.3.85-1.27,1.65a16.07,16.07,0,0,1-1.68,1.19c-.56.35-1.22.59-1.85.9a19.62,19.62,0,0,1-1.89.82,19.37,19.37,0,0,1-1.95.65,15,15,0,0,1-2,.36c-1.23.15-2,.09-2-.07s.74-.31,1.89-.63c.56-.16,1.21-.34,1.9-.57s1.24-.39,1.87-.64,1.17-.63,1.76-.9,1.2-.61,1.75-.91,1.29-.57,1.8-.86C357.22,237.1,357.85,236.64,357.94,236.73Z"/><path class="cls-5" d="M349.34,238.09c.15.18-.27.75-1.1,1.39a14.63,14.63,0,0,1-1.43,1c-.46.29-1,.49-1.55.76s-1,.53-1.55.75-1.07.49-1.59.67-1.18.34-1.67.46c-1,.24-1.69.28-1.74.12s.57-.4,1.5-.8l1.54-.67c.49-.21,1-.41,1.55-.65s1-.61,1.46-.85,1-.54,1.48-.78,1.12-.44,1.56-.67C348.69,238.33,349.26,238,349.34,238.09Z"/><path class="cls-5" d="M341,240c.13.19-.07.58-.53,1a6.15,6.15,0,0,1-.8.55,9.58,9.58,0,0,1-.91.36c-.29.14-.58.29-.88.4s-.61.26-.91.34a6.63,6.63,0,0,1-1,.18c-.58.08-1,0-1-.13s.29-.31.8-.56l.85-.38.87-.34c.29-.12.52-.38.8-.5l.84-.39c.31-.13.67-.14.92-.24C340.59,240.07,340.93,239.93,341,240Z"/><path class="cls-5" d="M332.62,242.84c0,.23-.29.49-.82.63a6.38,6.38,0,0,1-.9.16c-.28,0-.59,0-.9,0s-.6,0-.9,0a8.64,8.64,0,0,1-.9,0,6.21,6.21,0,0,1-.89-.2c-.53-.14-.86-.32-.85-.49s.36-.19.89-.23c.26,0,.56,0,.88,0s.57,0,.87,0,.59-.14.87-.14h.88c.32,0,.62.15.88.17C332.26,242.7,332.61,242.72,332.62,242.84Z"/><path class="cls-5" d="M352.94,244.66a2.16,2.16,0,0,1,.31.47.15.15,0,0,1,0,.11s-.07,0-.08,0,0,0,0,0,0,0,0,0a.37.37,0,0,1-.14-.09,1.69,1.69,0,0,1-.31-.3.51.51,0,0,1-.14-.26s0-.07,0-.09,0,0,0,0-.06-.13,0-.13,0,0,.05,0,.15.12.19.14A1,1,0,0,1,352.94,244.66Z"/><path class="cls-5" d="M367.66,178.8a.78.78,0,0,1,.54.24.66.66,0,0,1,.09.19c0,.06-.09.11-.1.18a.37.37,0,0,1,0,.18c0,.06,0,.12,0,.18a.69.69,0,0,1-.18.16.58.58,0,0,1-.44.13.31.31,0,0,1-.28-.21.59.59,0,0,1-.05-.19.57.57,0,0,1,0-.18c0-.06-.13-.14-.11-.2a1.16,1.16,0,0,1,0-.18c0-.06.2-.1.24-.15S367.55,178.78,367.66,178.8Z"/><path class="cls-5" d="M330.56,214c0-.25,1.69-.28,4.33-.34,1.27,0,2.75-.08,4.35-.21,1.37-.09,2.85-.15,4.34-.34s2.87-.45,4.29-.73,2.9-.67,4.23-1c1.55-.4,3-.81,4.2-1.2,2.49-.8,4.1-1.41,4.17-1.24s-1.46.93-3.92,1.92c-1.2.47-2.62,1-4.18,1.44-1.34.41-2.8.73-4.29,1.05s-2.88.69-4.34.87-3,.35-4.41.41c-1.63.08-3.13-.08-4.42-.13A18.89,18.89,0,0,1,330.56,214Z"/><path class="cls-5" d="M332.41,174.65c.18-.11,1,2.06,1.6,5.61a47.74,47.74,0,0,1,.55,5.89c.08,1.89-.06,3.89-.16,5.92s-.27,3.94-.52,5.88-.5,4-.84,5.84c-.38,2.13-.81,4.09-1.18,5.76-.77,3.44-1.38,5.66-1.55,5.62s.25-2.28.84-5.75c.28-1.69.62-3.65.94-5.78.3-1.83.59-3.78.83-5.78s.27-3.9.39-5.82.14-4,.1-5.82c0-1.07,0-2.1,0-3.07s-.09-1.9-.16-2.75C332.84,176.94,332.27,174.72,332.41,174.65Z"/><path class="cls-5" d="M315,224.16a.61.61,0,0,1,.4.51.84.84,0,0,1,0,.35c0,.11-.14.18-.18.29a3,3,0,0,1-.12.32,1.69,1.69,0,0,1-.13.31,1.64,1.64,0,0,1-.27.26.53.53,0,0,1-.52.16c-.16-.06-.16-.2-.15-.41a1.5,1.5,0,0,1,0-.35c0-.1.09-.2.13-.31s-.05-.26,0-.36a2.88,2.88,0,0,1,.13-.31c.07-.11.26-.16.33-.24S314.84,224.12,315,224.16Z"/><path class="cls-5" d="M310.82,233.17c.17.16,0,.63-.43,1.18-.21.26-.47.56-.76.86s-.6.46-.88.74-.55.53-.83.78-.56.55-.84.78-.66.48-.94.67c-.58.39-1,.59-1.12.46s.17-.46.62-1c.22-.25.48-.54.78-.84s.55-.5.83-.78.46-.62.75-.87.56-.54.84-.78.71-.42,1-.62C310.37,233.35,310.74,233.09,310.82,233.17Z"/><path class="cls-5" d="M270.35,261c.14-.19.47-.21.84-.06a4.08,4.08,0,0,1,.57.31c.18.11.29.31.47.44s.35.25.51.39.35.26.5.4.29.36.41.52c.24.32.34.59.24.73s-.33,0-.68-.16a5,5,0,0,1-.56-.33c-.17-.11-.32-.26-.5-.39s-.42-.15-.58-.29-.35-.26-.5-.4a5,5,0,0,1-.37-.57C270.44,261.33,270.28,261.13,270.35,261Z"/><path class="cls-5" d="M361.76,131.8c.19.14.12.57-.15,1.1-.13.26-.3.54-.49.85s-.43.47-.62.75l-.53.81c-.19.28-.34.57-.52.82s-.44.54-.63.76c-.38.46-.69.73-.84.65s0-.45.21-1a8.16,8.16,0,0,1,.44-.9c.15-.28.35-.55.53-.84s.24-.64.44-.91.38-.56.58-.81a8.33,8.33,0,0,1,.78-.66C361.38,132,361.67,131.73,361.76,131.8Z"/><path class="cls-5" d="M366.38,172.31a.62.62,0,0,1,.74-.09,2.55,2.55,0,0,1,.44.29c.13.1.18.29.3.42a3.17,3.17,0,0,1,.34.39,2.94,2.94,0,0,1,.31.41,2.28,2.28,0,0,1,.17.5c.09.31.07.56-.07.65s-.29,0-.52-.23l-.34-.34c-.1-.11-.18-.25-.29-.38s-.31-.14-.4-.27-.23-.23-.31-.35-.11-.37-.19-.49S366.3,172.4,366.38,172.31Z"/><path class="cls-5" d="M365.41,167.52c.18-.16.57,0,1,.33a7.74,7.74,0,0,1,.66.64c.2.21.32.5.52.74s.39.46.57.7.41.47.57.71.32.56.45.8c.26.49.37.86.24,1s-.39-.13-.8-.51c-.19-.18-.41-.4-.63-.65s-.37-.46-.57-.7-.49-.38-.67-.62-.4-.48-.57-.71-.26-.62-.4-.84C365.5,167.91,365.32,167.6,365.41,167.52Z"/><path class="cls-5" d="M366.49,164.83a.62.62,0,0,1,.69-.14,2,2,0,0,1,.41.21c.12.08.18.25.3.35a4.38,4.38,0,0,1,.34.29,3.18,3.18,0,0,1,.33.3,2.12,2.12,0,0,1,.23.41c.14.26.17.48.06.61s-.27.06-.53-.06a3.21,3.21,0,0,1-.38-.23c-.12-.09-.22-.2-.34-.3s-.32-.09-.42-.19-.24-.2-.33-.31-.12-.34-.19-.46S366.41,164.92,366.49,164.83Z"/><path class="cls-5" d="M367.12,162.13a.51.51,0,0,1,.18-.56.6.6,0,0,1,.3-.07c.1,0,.16.13.24.17a.7.7,0,0,1,.24.13c.06.07.16.11.19.2a.53.53,0,0,1,0,.3.4.4,0,0,1-.3.36.59.59,0,0,1-.32,0l-.11,0s0-.05-.06-.07-.12.09-.13.07-.05,0-.06,0a1.06,1.06,0,0,0-.05-.23A.62.62,0,0,1,367.12,162.13Z"/><path class="cls-5" d="M270.7,264.75a.65.65,0,0,1-.28.65,2.89,2.89,0,0,1-.39.24c-.12.06-.29,0-.43.08a3.56,3.56,0,0,1-.41.17c-.14.05-.26.14-.4.18a2.75,2.75,0,0,1-.47.06c-.28,0-.51,0-.6-.14s0-.29.25-.49a2.47,2.47,0,0,1,.39-.29,4.48,4.48,0,0,1,.44-.2c.14-.06.24-.25.39-.3a3.07,3.07,0,0,1,.46-.15c.18,0,.39.07.53.06C270.48,264.62,270.67,264.63,270.7,264.75Z"/><path class="cls-5" d="M273.48,231a.94.94,0,0,1,.47.34.61.61,0,0,1,.05.18c0,.05-.11.07-.12.11a.47.47,0,0,1-.06.15s0,.1-.06.13a.88.88,0,0,1-.2.09.73.73,0,0,1-.46,0,.32.32,0,0,1-.22-.25.47.47,0,0,1,0-.17,1.39,1.39,0,0,1,.06-.13s-.09-.15-.07-.19,0-.1.07-.14.22,0,.27-.06A.34.34,0,0,1,273.48,231Z"/><path class="cls-5" d="M286.38,215.23a.58.58,0,0,1,.46.5,1.65,1.65,0,0,1,0,.44c0,.13-.16.24-.21.37a3.34,3.34,0,0,1-.17.38,2.57,2.57,0,0,1-.21.37,1.65,1.65,0,0,1-.35.27.53.53,0,0,1-.58.07c-.13-.1-.08-.25,0-.47a2.92,2.92,0,0,1,.13-.34,2.38,2.38,0,0,1,.17-.31c.05-.11,0-.27,0-.38s.08-.22.14-.32.25-.18.31-.27S286.26,215.21,286.38,215.23Z"/><path class="cls-5" d="M319.58,186.11a.6.6,0,0,1,0,.7,1.62,1.62,0,0,1-.31.34c-.1.09-.28.09-.41.17a2.36,2.36,0,0,1-.38.22c-.14.06-.26.15-.39.19a1.91,1.91,0,0,1-.46,0c-.29,0-.5-.07-.56-.23s.07-.26.26-.43a3.14,3.14,0,0,1,.33-.24c.11-.07.24-.11.36-.18s.16-.25.28-.31.23-.14.35-.19.34,0,.45,0S319.51,186,319.58,186.11Z"/><path class="cls-5" d="M370.86,196.25a.81.81,0,0,1-.13.57.52.52,0,0,1-.18.12c-.06,0-.13-.06-.19-.05a1.28,1.28,0,0,1-.19,0c-.07,0-.13,0-.19,0a.66.66,0,0,1-.2-.14.62.62,0,0,1-.22-.41.32.32,0,0,1,.16-.31.61.61,0,0,1,.18-.09,1.21,1.21,0,0,1,.19,0c.06,0,.11-.15.18-.14s.12,0,.18,0,.15.18.21.21S370.85,196.13,370.86,196.25Z"/><path class="cls-5" d="M328.81,267.08c.1.2-1.84.91-5,1.52-1.51.29-3.28.58-5.21.79-1.67.19-3.46.2-5.27.28s-3.53.08-5.27,0-3.6-.13-5.26-.32c-1.93-.2-3.7-.51-5.21-.79-3.11-.59-5.07-1.21-5-1.36s2,.24,5.14.64c1.5.19,3.26.41,5.17.55,1.65.15,3.4.26,5.2.32s3.48-.1,5.2-.15,3.54-.19,5.19-.33c1.9-.15,3.67-.24,5.18-.44C326.75,267.38,328.75,267,328.81,267.08Z"/><path class="cls-5" d="M293.81,264.7c.06.23-.39.55-1.12.8-.35.12-.76.24-1.21.36s-.82.09-1.25.18-.82.18-1.23.25-.84.18-1.24.23-.9.08-1.27.1c-.76,0-1.28,0-1.32-.17s.44-.32,1.16-.54c.36-.11.77-.22,1.23-.32s.81-.16,1.24-.25.8-.3,1.21-.37.85-.18,1.25-.24.91,0,1.28,0C293.29,264.63,293.79,264.59,293.81,264.7Z"/><path class="cls-5" d="M286.68,264.52c0,.24-.25.48-.7.65a7,7,0,0,1-.73.24c-.24.07-.51,0-.77.1l-.74.21c-.26.06-.49.17-.73.22a6.66,6.66,0,0,1-.78.13c-.47.08-.81.08-.89-.07s.19-.34.61-.59a6.19,6.19,0,0,1,.73-.37,8,8,0,0,1,.78-.24c.26-.08.49-.29.75-.35s.55-.13.81-.16a5.21,5.21,0,0,1,.84.08C286.35,264.38,286.67,264.41,286.68,264.52Z"/><path class="cls-5" d="M334.41,265.12a.88.88,0,0,1,0,.59.44.44,0,0,1-.12.15s-.12,0-.18,0a.67.67,0,0,1-.15.06c-.06,0-.1,0-.16,0a1,1,0,0,1-.21-.09.65.65,0,0,1-.3-.35.33.33,0,0,1,.05-.33.8.8,0,0,1,.13-.13c.05,0,.11,0,.16,0s.05-.17.11-.18.1-.05.16,0,.17.13.23.15S334.37,265,334.41,265.12Z"/><path class="cls-5" d="M301.71,251.92a1,1,0,0,1,.35.46.49.49,0,0,1,0,.17s-.12,0-.14,0-.05.08-.09.1,0,.08-.09.09a.5.5,0,0,1-.21,0,.66.66,0,0,1-.41-.17.31.31,0,0,1-.14-.29.26.26,0,0,1,0-.15s.06-.06.09-.1,0-.15,0-.18.05-.07.1-.09.2.05.25,0A.32.32,0,0,1,301.71,251.92Z"/><path class="cls-5" d="M25,64.62c-.08-.39,1-.9,2.74-1.39l2.86-.75c.91-.22,1.91-.31,2.9-.56l2.84-.8c1-.27,1.92-.62,2.82-.88L42,59.48c1.72-.48,2.88-.72,3-.45s-.92.8-2.56,1.57c-.79.37-1.74.77-2.78,1.15s-1.88.6-2.87.91-1.87.78-2.84,1-2,.51-2.94.67-2.15.12-3,.22C26.19,64.75,25,64.81,25,64.62Z"/><path class="cls-5" d="M45.5,58c.07.18-.33.48-1.11.82a14,14,0,0,1-3.48,1,10.36,10.36,0,0,1-5.18-.54,8.37,8.37,0,0,1-1.86-1.08c-.5-.43-.88-.84-1.33-1.29l-.34-.35.45-.12.88-.25a14.92,14.92,0,0,1,2-.41l.94-.17.58-.13,1.17-.26c.77-.18,1.54-.38,2.31-.58,1.59-.41,3.11-1,4.55-1.43,1.66-.54,3.21-1.07,4.51-1.57,2.69-1,4.43-1.78,4.58-1.52s-1.46,1.28-4.07,2.61a45.36,45.36,0,0,1-4.47,2c-1.45.56-3,1-4.66,1.48-.78.21-1.55.47-2.34.71-.39.12-.79.24-1.18.34l-.6.15-.15,0-.06,0-.21,0s0,0,.05,0a10,10,0,0,0,4.31,1,27.13,27.13,0,0,0,3.38-.36C45,57.94,45.46,57.9,45.5,58Z"/><path class="cls-5" d="M56.27,48.88c-.28-.28-.12-.93.37-1.67.24-.36.54-.75.87-1.17s.72-.61,1.05-1,.61-.75.93-1.1.6-.78.91-1.12.76-.71,1.08-1c.65-.6,1.17-.94,1.41-.78s0,.68-.43,1.48a12.06,12.06,0,0,1-.79,1.27c-.27.39-.61.76-.93,1.16s-.46.92-.8,1.28-.67.78-1,1.1a11.13,11.13,0,0,1-1.3.81C56.9,48.69,56.41,49,56.27,48.88Z"/><path class="cls-5" d="M62.22,39.75c.07.39-.49.83-1.42,1.13a13.76,13.76,0,0,1-1.54.39c-.49.1-1,0-1.58.1s-1,.17-1.56.21-1.07.17-1.57.19a16,16,0,0,1-1.6-.05c-1,0-1.61-.21-1.65-.5s.56-.44,1.49-.69a14.43,14.43,0,0,1,1.54-.34c.49-.09,1-.13,1.56-.2s1-.37,1.54-.43,1.06-.15,1.57-.18,1.14.16,1.61.16C61.56,39.54,62.18,39.55,62.22,39.75Z"/><path class="cls-5" d="M50.33,39.66c-.13-.37.57-1,1.79-1.46a17.47,17.47,0,0,1,2.05-.69c.66-.19,1.41-.19,2.14-.33s1.41-.3,2.12-.39,1.45-.26,2.14-.3,1.53,0,2.16,0c1.31,0,2.15.25,2.17.53s-.79.42-2,.67c-.61.13-1.31.24-2.08.38l-2.08.29c-.69.12-1.35.48-2,.59l-2.06.41c-.76.13-1.52,0-2.13.14C51.22,39.7,50.4,39.85,50.33,39.66Z"/><path class="cls-5" d="M66.46,36.7c-.34-.15.31-2,2-4.42A34,34,0,0,1,71.6,28.5a48.7,48.7,0,0,1,3.64-3.25c1.22-1.06,2.48-2.11,3.77-3.07s2.64-2,3.93-2.83c1.49-1,2.92-1.79,4.14-2.49,2.52-1.44,4.23-2.23,4.38-2s-1.38,1.32-3.71,3l-3.89,2.78c-1.23.88-2.56,1.8-3.86,2.8s-2.35,2.15-3.55,3.16-2.4,2.16-3.46,3.21c-1.26,1.2-2.51,2.24-3.43,3.28C67.69,35.23,66.67,36.79,66.46,36.7Z"/><path class="cls-5" d="M90.91,14.18c-.17.38-1.9-.33-4.49-1.44-1.25-.52-2.72-1.11-4.33-1.6A28.83,28.83,0,0,0,77.67,10a35.3,35.3,0,0,0-4.6-.3c-1.6,0-3.16.14-4.64.24-1.72.11-3.32.24-4.69.38-2.82.28-4.68.4-4.73.11s1.74-.71,4.53-1.31c1.36-.28,3-.56,4.71-.77a43.32,43.32,0,0,1,4.8-.26,31.61,31.61,0,0,1,4.86.1,26.07,26.07,0,0,1,4.76,1.13A27.91,27.91,0,0,1,87,11.51C89.49,12.91,91,14,90.91,14.18Z"/><path class="cls-5" d="M59,11.49c.36.17.51.69.45,1.3,0,.3-.09.63-.16,1s-.29.58-.37.91-.11.65-.18,1-.06.66-.13,1-.21.69-.3,1c-.17.61-.38,1-.67,1.06s-.4-.39-.53-1.05a5.26,5.26,0,0,1-.09-1.1,8.87,8.87,0,0,1,.13-1.1c.05-.35-.11-.77,0-1.13a10.35,10.35,0,0,1,.32-1.07c.16-.38.55-.65.72-.92C58.56,11.74,58.84,11.41,59,11.49Z"/><path class="cls-5" d="M57.69,19.43c-.39.11-1.08-2.24-1.76-6-.06-.39-.17-.78-.24-.78a1,1,0,0,0-.46-.07c-.3,0-.74,0-1.13.05l-1.23.05-1.28.12a41.12,41.12,0,0,0-6,.83,42.24,42.24,0,0,0-5.82,1.83,45.21,45.21,0,0,0-5.5,2.65A48.43,48.43,0,0,0,29,21.38c-3,2.18-4.73,3.88-5,3.67s1.34-2.12,4.22-4.61a37.45,37.45,0,0,1,5.14-3.67A39.48,39.48,0,0,1,39.12,14a39.45,39.45,0,0,1,6-2.12,37.68,37.68,0,0,1,6.29-1l1.34,0,1.29,0c.43,0,.8,0,1.24.09a2.29,2.29,0,0,1,1.47.63,2.51,2.51,0,0,1,.52,1.59C57.64,16.94,57.88,19.37,57.69,19.43Z"/><path class="cls-5" d="M24,25.93c.38-.1.92.84,1.36,2.38.21.74.41,1.61.6,2.56s.14,1.71.28,2.61.28,1.73.38,2.6.26,1.77.32,2.6.06,1.87.06,2.63c0,1.59-.14,2.63-.42,2.66s-.47-1-.78-2.51c-.15-.75-.3-1.62-.44-2.57s-.21-1.7-.34-2.58-.47-1.7-.58-2.55-.27-1.76-.37-2.58,0-1.87,0-2.63C23.88,27,23.79,26,24,25.93Z"/><path class="cls-5" d="M27,42.65c-.34.19-1-.35-1.66-1.4a17.43,17.43,0,0,1-.94-1.8c-.27-.58-.37-1.27-.61-1.92s-.47-1.27-.66-1.91-.44-1.31-.56-1.94a17.18,17.18,0,0,1-.28-2c-.12-1.21,0-2,.24-2.08s.52.67.93,1.78c.2.54.41,1.18.64,1.86l.56,1.88c.2.62.64,1.17.84,1.79l.67,1.84c.23.68.24,1.4.41,1.95C26.88,41.82,27.13,42.56,27,42.65Z"/><path class="cls-5" d="M20.38,27.92c.28.36-1.47,1.51-2.73,4.21a17.47,17.47,0,0,0-1.4,4.74,29.51,29.51,0,0,0-.48,5c0,1.71.15,3.44.32,5.14s.51,3.48.81,5.09c.34,1.87.7,3.59,1.08,5.06.79,3,1.43,5,1.16,5.08s-1.21-1.72-2.31-4.71a43.75,43.75,0,0,1-1.49-5.08,45.9,45.9,0,0,1-.84-5.24A46.71,46.71,0,0,1,14,42a27.08,27.08,0,0,1,.42-5.39,15.69,15.69,0,0,1,2.07-5A9.55,9.55,0,0,1,19,28.59C19.8,28,20.33,27.86,20.38,27.92Z"/><path class="cls-5" d="M81.39,15.09c2.18-.62,3.93-.82,3.92-1h-.26c-.17,0-.42,0-.73.06a26.18,26.18,0,0,0-2.61.52,54.22,54.22,0,0,0-8,2.75c-3,1.27-6,2.82-8.77,4.3-1.35.75-2.63,1.47-3.74,2.14s-2.1,1.26-2.87,1.74A135.51,135.51,0,0,0,40.09,39,100.39,100.39,0,0,0,27.55,52a90,90,0,0,0-7.21,10.56c-.89,1.65-1.77,3.16-2.44,4.66l-1,2.13-.83,2c-.25.66-.53,1.28-.74,1.89l-.59,1.79-.54,1.64c-.17.52-.28,1-.41,1.53L13.1,80.9l-.39,2.23-.29,1.78-.11,1.4c-.06.81-.08,1.39-.07,1.79,0,.82.14,1,.32,1s.56-4.19,2.4-10.62a73.9,73.9,0,0,1,11.67-23,108.71,108.71,0,0,1,12.12-13.8A118.75,118.75,0,0,1,53,29.93a111,111,0,0,1,22.72-12.5,47.32,47.32,0,0,1,7.5-2.31l1.22-.23c.35-.05.65-.07.89-.1a4.36,4.36,0,0,0,.74-.11c0-.18-.55-.21-1.42-.17A22.7,22.7,0,0,0,81.39,15.09Z"/><path class="cls-5" d="M38.42,65.4c.07.25-.69.67-2,1a20.45,20.45,0,0,1-2.11.47c-.69.12-1.43.1-2.18.16a20,20,0,0,1-2.19.06,17.12,17.12,0,0,1-2.2-.2,12.06,12.06,0,0,1-2.11-.63c-1.24-.5-1.91-1-1.82-1.21s.83.16,2,.43c.59.13,1.29.27,2,.36S29.29,66,30,66s1.39-.16,2.07-.2,1.42-.14,2.08-.21,1.51,0,2.13-.1C37.55,65.38,38.38,65.27,38.42,65.4Z"/><path class="cls-5" d="M31.11,56.43a.87.87,0,0,1-.58.36,1,1,0,0,1-.29,0c-.08,0-.12-.15-.2-.18s-.17-.05-.25-.09-.18,0-.25-.1a1.61,1.61,0,0,1-.22-.23.66.66,0,0,1-.22-.51c0-.19.15-.23.37-.28a1.26,1.26,0,0,1,.34,0,2.55,2.55,0,0,1,.33.11c.1,0,.27-.07.37,0a3,3,0,0,1,.31.16c.1.09.11.3.17.39S31.18,56.32,31.11,56.43Z"/><path class="cls-5" d="M49,40.64a.7.7,0,0,1-.43.7,2.26,2.26,0,0,1-.52.22,5,5,0,0,1-.55,0c-.18,0-.36.08-.55.1s-.36.08-.54.08a4.12,4.12,0,0,1-.57-.08c-.35-.07-.59-.19-.62-.38s.17-.28.48-.42a4.54,4.54,0,0,1,.52-.17c.17-.05.36-.05.55-.09s.33-.21.51-.23.37-.07.55-.08.42.14.58.15C48.71,40.48,48.93,40.51,49,40.64Z"/><path class="cls-5" d="M69,32.86c0,.28-1.48.37-3.76.44-1.1,0-2.38.07-3.76.15-1.19.07-2.47.06-3.76.18s-2.5.3-3.73.48-2.53.46-3.7.69c-1.36.26-2.62.51-3.7.75-2.21.51-3.65.86-3.72.68s1.32-.74,3.5-1.45c1.06-.34,2.31-.7,3.68-1,1.18-.28,2.46-.49,3.76-.7s2.51-.52,3.78-.63,2.6-.23,3.82-.25c1.41,0,2.71.15,3.82.21A14.86,14.86,0,0,1,69,32.86Z"/><path class="cls-5" d="M56,47.33c.11.24-1.2.88-3.33,1.61-1,.35-2.23.73-3.56,1.09-1.13.32-2.38.51-3.64.78s-2.45.5-3.67.68-2.53.36-3.72.4a28.29,28.29,0,0,1-3.75-.07c-2.24-.17-3.66-.57-3.63-.74s1.45,0,3.65-.06c1.06,0,2.3-.06,3.64-.19,1.16-.09,2.39-.22,3.63-.4s2.39-.56,3.58-.8,2.44-.56,3.58-.83c1.31-.3,2.57-.47,3.61-.72A17.3,17.3,0,0,1,56,47.33Z"/><path class="cls-5" d="M32.39,48.27c-.24.11-.88-1.25-1.45-3.48-.27-1.08-.54-2.35-.75-3.74-.2-1.19-.22-2.48-.33-3.79s-.17-2.54-.17-3.8,0-2.6.08-3.8c.1-1.4.29-2.68.47-3.77.37-2.25.81-3.67,1-3.64s0,1.48-.18,3.72c-.08,1.09-.17,2.36-.21,3.73,0,1.19-.08,2.45-.07,3.73s.23,2.49.31,3.72.24,2.53.38,3.71c.15,1.36.2,2.64.37,3.72A24.19,24.19,0,0,1,32.39,48.27Z"/><path class="cls-5" d="M58.5,26c-.25,0-.53-.87-.39-2.27a11.85,11.85,0,0,1,.47-2.26,14.89,14.89,0,0,1,.94-2.1,19.28,19.28,0,0,1,1.08-2c.41-.66.81-1.32,1.24-1.89s1-1.22,1.46-1.71c.9-1,1.57-1.57,1.71-1.46s-.34.84-1.07,1.94l-1.22,1.83c-.38.59-.81,1.19-1.2,1.83s-.58,1.34-.9,2a21.37,21.37,0,0,0-.83,2c-.28.74-.63,1.4-.79,2C58.68,25.11,58.65,26,58.5,26Z"/><path class="cls-5" d="M83.78,19.54c.09.24-.63.68-1.84,1a19.66,19.66,0,0,1-2,.44c-.66.11-1.37.07-2.08.13s-1.38.09-2.07.09-1.42,0-2.07-.05a18.93,18.93,0,0,1-2-.32c-1.22-.25-2-.55-2-.73s.82-.11,2-.07l2,.06c.64,0,1.32,0,2,0s1.34-.2,2-.23,1.36-.12,2-.18,1.44,0,2-.07C83,19.55,83.74,19.41,83.78,19.54Z"/><path class="cls-5" d="M35.75,17.42c.11.08-.07.49-.39,1.07l-.52,1c-.16.3-.37.61-.52,1s-.29.68-.42,1-.24.71-.34,1-.25.75-.34,1.06c-.19.64-.31,1.06-.41,1.05s-.08-.45,0-1.13c0-.33.12-.71.22-1.12a10.51,10.51,0,0,1,.36-1.08,10.69,10.69,0,0,1,.36-1.09c.17-.35.33-.7.52-1a11.23,11.23,0,0,1,.7-.91C35.39,17.71,35.69,17.39,35.75,17.42Z"/><path class="cls-5" d="M35.09,22.23c.11.06,0,.43-.23.95l-.41.84c-.14.26-.32.52-.47.81l-.38.85-.36.86-.4.86c-.23.51-.41.85-.5.82s0-.39.12-.95c.07-.27.16-.58.28-.91s.23-.59.36-.89.19-.62.34-.9.29-.59.44-.85a9.61,9.61,0,0,1,.58-.77C34.8,22.48,35,22.19,35.09,22.23Z"/><path class="cls-5" d="M34.1,26.89c.12.06.12.3,0,.6a5.09,5.09,0,0,1-.18.49c-.06.15-.18.29-.25.45l-.2.48c-.07.16-.12.33-.19.48s-.17.33-.25.47-.28.45-.37.43-.07-.23,0-.55a4.51,4.51,0,0,1,.13-.53c.05-.16.12-.33.19-.5s.06-.36.14-.52.15-.34.24-.49.26-.29.35-.42S34.05,26.86,34.1,26.89Z"/><path class="cls-5" d="M32.63,31.62c.13,0,.23.21.28.5s0,.31,0,.49-.05.32-.05.48v.49c0,.17,0,.33,0,.49s0,.34-.05.49-.1.49-.19.5-.15-.17-.21-.47a3.13,3.13,0,0,1-.08-.49c0-.16,0-.33,0-.5s-.08-.34-.08-.5,0-.35,0-.5.12-.35.14-.5S32.56,31.62,32.63,31.62Z"/><path class="cls-5" d="M31.4,20.3a1.73,1.73,0,0,1,.23.21l0,.06h-.05s0,0,0,0,0,0,0,0l-.09,0a1.35,1.35,0,0,1-.21-.13.29.29,0,0,1-.11-.12s0,0,0,0,0,0,0,0-.05-.06,0-.06,0,0,0,0,.09.05.12.05Z"/><path class="cls-5" d="M67.91,11.3a.4.4,0,0,1-.06.32.16.16,0,0,1-.09.07s-.07,0-.11,0-.06,0-.1,0-.07,0-.1,0l-.11-.07a.34.34,0,0,1-.13-.23c0-.09,0-.12.07-.17a.33.33,0,0,1,.1-.06h.1s.06-.08.09-.08.07,0,.1,0,.09.1.12.11S67.9,11.23,67.91,11.3Z"/><path class="cls-5" d="M48.9,32.43c-.12,0-.37-.9-.48-2.38a24,24,0,0,1-.06-2.47c0-.78.13-1.61.22-2.45s.21-1.64.36-2.44.33-1.65.55-2.4.54-1.66.8-2.33a7.11,7.11,0,0,1,1.09-2.17,15.64,15.64,0,0,1-.71,2.3c-.21.68-.45,1.47-.66,2.33s-.38,1.54-.54,2.36-.19,1.61-.28,2.4S49,26.83,49,27.59s-.13,1.71-.13,2.42C48.88,31.46,49,32.41,48.9,32.43Z"/><path class="cls-5" d="M70.66,30.86c0,.15-1.26-.06-3.21-.21-.94-.07-2-.13-3.24-.12-1,0-2.12,0-3.24.08s-2.16.21-3.23.36-2.19.34-3.21.51L51.32,32a17,17,0,0,1-3.21.46,17.35,17.35,0,0,1,3.12-.85c.93-.22,2-.46,3.2-.68,1-.2,2.11-.36,3.23-.52s2.17-.35,3.25-.43,2.24-.14,3.29-.11a25,25,0,0,1,3.27.3,22.37,22.37,0,0,1,2.32.4A2.93,2.93,0,0,1,70.66,30.86Z"/><path class="cls-5" d="M43.28,41.14a.33.33,0,0,1-.06.36.64.64,0,0,1-.15.13s-.13,0-.19,0l-.17.07a.76.76,0,0,1-.18.06.72.72,0,0,1-.21,0,.29.29,0,0,1-.26-.15c0-.09,0-.14.11-.22a.91.91,0,0,1,.16-.11c.05,0,.12,0,.18-.07s.08-.12.14-.13l.18-.06c.07,0,.16,0,.22,0S43.25,41.08,43.28,41.14Z"/><path class="cls-5" d="M38.28,43.57c.1.09,0,.35-.19.68a6.06,6.06,0,0,1-.38.51c-.13.15-.31.28-.46.44l-.42.47c-.16.16-.29.33-.44.47a5.32,5.32,0,0,1-.49.41c-.3.25-.53.37-.6.31s.08-.27.3-.58c.11-.15.25-.32.4-.5s.28-.3.43-.46.23-.37.37-.52.29-.33.43-.47.38-.26.52-.38S38.23,43.53,38.28,43.57Z"/><path class="cls-5" d="M23.41,66.41c-.1.08-.28,0-.46-.08a2.91,2.91,0,0,1-.27-.24,2.32,2.32,0,0,1-.19-.31l-.23-.27a2.64,2.64,0,0,1-.21-.29,2,2,0,0,1-.16-.33c-.08-.2-.11-.36,0-.42s.18,0,.35.17a2.94,2.94,0,0,1,.25.25c.08.08.14.19.22.28s.21.14.28.23.15.19.21.29.08.26.13.35S23.46,66.36,23.41,66.41Z"/><path class="cls-5" d="M94.06,14.05c.09.1,0,.33-.22.59a3.9,3.9,0,0,1-.41.38,4.22,4.22,0,0,1-.47.3l-.45.32c-.17.1-.32.21-.48.29a4,4,0,0,1-.51.21c-.32.12-.55.15-.59.07s.12-.21.38-.41l.44-.32.46-.29c.14-.1.25-.26.4-.36l.44-.31c.17-.11.37-.15.5-.23C93.83,14.12,94,14,94.06,14.05Z"/><path class="cls-5" d="M71.61,12a.36.36,0,0,1-.4,0,1.42,1.42,0,0,1-.23-.14c-.07,0-.1-.15-.17-.21a1.56,1.56,0,0,1-.2-.16c-.07-.07-.15-.11-.21-.17s-.11-.16-.16-.22-.15-.27-.1-.35.16-.05.32,0a2.1,2.1,0,0,1,.26.13c.08,0,.14.12.22.18s.2.06.27.12a1.89,1.89,0,0,1,.2.2,1.63,1.63,0,0,1,.12.29C71.61,11.82,71.66,11.93,71.61,12Z"/><path class="cls-5" d="M74.28,12.44c-.08.11-.31.08-.59-.06l-.43-.26c-.13-.1-.23-.24-.37-.35l-.4-.31c-.13-.11-.27-.21-.39-.32s-.24-.26-.34-.38-.3-.42-.25-.49.24,0,.5.18.27.17.42.27l.39.32c.13.1.32.15.44.25s.28.21.39.32A4.68,4.68,0,0,1,74,12C74.18,12.24,74.32,12.39,74.28,12.44Z"/><path class="cls-5" d="M75.77,11.82a.34.34,0,0,1-.39,0,1.37,1.37,0,0,1-.21-.15c-.06,0-.08-.15-.14-.21l-.17-.18c0-.07-.12-.13-.16-.2s-.07-.17-.1-.24,0-.28,0-.34.15,0,.28.07a1.4,1.4,0,0,1,.2.16,1,1,0,0,1,.16.19c.06.06.17.07.22.13s.12.13.16.2,0,.2.07.26S75.82,11.78,75.77,11.82Z"/><path class="cls-5" d="M77.29,11.52,77,11.43l-.06,0s0,0,0-.05l0,0s0,0,0,0,0-.06,0-.1a.74.74,0,0,1,0-.25c0-.09.08-.1.18-.1a.48.48,0,0,1,.14,0,.58.58,0,0,1,.1.12s.12,0,.14.09a.44.44,0,0,1,0,.15c0,.06-.08.13-.1.17S77.35,11.53,77.29,11.52Z"/><path class="cls-5" d="M21.17,66.3a.32.32,0,0,1,.24.32.84.84,0,0,1,0,.27c0,.09-.09.16-.12.25a2.6,2.6,0,0,1-.1.25c-.05.08-.07.17-.12.24a1.26,1.26,0,0,1-.2.2c-.12.11-.25.16-.33.11s-.06-.15,0-.3a1.53,1.53,0,0,1,.07-.24c0-.07.07-.14.1-.22s0-.18,0-.25.05-.16.08-.23.15-.13.19-.2S21.11,66.28,21.17,66.3Z"/><path class="cls-5" d="M40,64.29a.54.54,0,0,1,0,.32l-.06.08s-.07,0-.09,0-.05,0-.08,0,0,0-.08,0a.22.22,0,0,1-.11,0,.36.36,0,0,1-.17-.19.18.18,0,0,1,0-.18.13.13,0,0,1,.06-.07s0,0,.08,0,0-.09,0-.1l.08,0s.1.08.13.09A.19.19,0,0,1,40,64.29Z"/><path class="cls-5" d="M48.59,56.93a.37.37,0,0,1-.12.35l-.17.11s-.13,0-.2,0l-.17.09c-.07,0-.12.07-.18.08l-.21,0a.33.33,0,0,1-.31-.07c-.06-.07,0-.15.08-.26a.66.66,0,0,1,.17-.16,1.28,1.28,0,0,1,.2-.11c.07,0,.11-.14.19-.16a.83.83,0,0,1,.22-.08c.09,0,.19.05.26.05S48.58,56.86,48.59,56.93Z"/><path class="cls-5" d="M64.34,38.16a.34.34,0,0,1,.12.36,1.11,1.11,0,0,1-.07.22c0,.06-.11.1-.15.17s-.06.13-.1.2a1.86,1.86,0,0,1-.11.19,1.36,1.36,0,0,1-.17.17c-.11.1-.22.16-.3.12s-.09-.13-.07-.28a1.4,1.4,0,0,1,.06-.24c0-.07.08-.14.11-.21s0-.18.06-.25a1.48,1.48,0,0,1,.13-.21c.06-.07.18-.08.24-.13S64.28,38.12,64.34,38.16Z"/><path class="cls-5" d="M58.08,9.81a.45.45,0,0,1,.31.13.31.31,0,0,1,0,.1s0,.07,0,.1,0,.07,0,.11,0,.07,0,.1l-.1.1a.34.34,0,0,1-.24.09.18.18,0,0,1-.16-.11.49.49,0,0,1,0-.11.36.36,0,0,1,0-.1s-.08-.08-.07-.11,0-.07,0-.11.11-.06.14-.09S58,9.81,58.08,9.81Z"/><path class="cls-5" d="M19.19,34c.15,0,0,1.13-.17,2.87-.09.84-.19,1.82-.25,2.89-.07.91-.16,1.89-.17,2.89s0,1.93,0,2.89.13,2,.22,2.89.21,2,.32,2.88a17,17,0,0,1,.35,2.87,11.25,11.25,0,0,1-.75-2.8c-.16-.83-.33-1.82-.45-2.89-.12-.92-.17-1.91-.23-2.91s-.14-2-.12-2.93.05-2,.14-2.93.3-2.05.44-2.89A15.64,15.64,0,0,1,19.19,34Z"/><path class="cls-5" d="M20.92,53.45c.13,0,.21.3.19.73,0,.2,0,.44-.07.7s-.12.45-.16.69l-.13.69c-.05.24-.07.48-.13.69s-.15.48-.21.68c-.14.4-.27.66-.36.64s-.07-.3,0-.72c0-.2,0-.44.09-.7s.08-.45.13-.68,0-.48.05-.7l.13-.69c.06-.25.19-.47.25-.67C20.78,53.71,20.86,53.44,20.92,53.45Z"/><path class="cls-5" d="M21.11,57.42c.13,0,.24.19.26.47a2.42,2.42,0,0,1,0,.46c0,.14-.1.28-.13.44a4,4,0,0,1-.11.44,4.34,4.34,0,0,1-.14.43,3,3,0,0,1-.24.4c-.15.23-.3.35-.39.31s0-.21,0-.46l.1-.42.13-.41c0-.13,0-.29,0-.43l.09-.41c0-.15.15-.28.19-.41S21,57.42,21.11,57.42Z"/><path class="cls-5" d="M20.22,30.87a.45.45,0,0,1,.26.18.23.23,0,0,1,0,.11s-.06,0-.07.07a.32.32,0,0,1,0,.09s0,.06,0,.08a.45.45,0,0,1-.12.06.35.35,0,0,1-.25,0c-.09,0-.1-.08-.13-.14a.34.34,0,0,1,0-.1l0-.09s-.06-.08,0-.11,0-.06,0-.08.12,0,.15,0S20.16,30.84,20.22,30.87Z"/><path class="cls-5" d="M28,48.85a.52.52,0,0,1,.15.28.13.13,0,0,1,0,.09s-.07,0-.08,0l-.06,0s0,0-.06,0-.08,0-.11,0a.36.36,0,0,1-.21-.14.18.18,0,0,1-.06-.17.13.13,0,0,1,0-.08s0,0,.06,0,0-.09,0-.1,0,0,.06,0,.1,0,.13,0A.16.16,0,0,1,28,48.85Z"/><path class="cls-5" d="M621.73,24.46c.15-.07.6.95.93,2.62a23.9,23.9,0,0,1,.38,2.79c.07.89,0,1.85,0,2.82,0,.46,0,.93-.06,1.4a1.45,1.45,0,0,1-.09.47,1,1,0,0,1-.37.43,1,1,0,0,1-1.43-.46l-.13-.34-.24-.68a13.35,13.35,0,0,1-.41-1.32,21.15,21.15,0,0,1-.51-2.77,6.73,6.73,0,0,1,0-2.78,15.89,15.89,0,0,1,.53,2.69c.16.79.38,1.7.66,2.66l.41,1.28c.07.22.15.44.23.66l.12.33a.29.29,0,0,0,.09.12.24.24,0,0,0,.28,0c.09-.09.09-.07.09-.32,0-.48,0-.93,0-1.37,0-.94,0-1.87,0-2.74s0-2-.12-2.75A25.67,25.67,0,0,1,621.73,24.46Z"/><path class="cls-5" d="M616.47,42.41c.11-.13.76.34,1.42,1.38a9.26,9.26,0,0,1,.87,1.81,10.21,10.21,0,0,1,.39,2l0,.28a2.32,2.32,0,0,1,0,.44l-.07.33c0,.12,0,.22-.13.28a.4.4,0,0,1-.29.06c-.09,0-.22-.06-.34-.11s-.25-.16-.37-.23l-.17-.14-.1-.09a3.34,3.34,0,0,1-1-1.87,3.06,3.06,0,0,1,.42-2.07c.68-1.1,1.58-1.26,1.59-1.16s-.66.42-1.12,1.4a2.73,2.73,0,0,0,.64,3.17c.14.13.11.08.15.1s0,0,0,0a.09.09,0,0,0,0-.07h0s0-.13,0-.19a11.14,11.14,0,0,0-.4-1.81,12.12,12.12,0,0,0-.59-1.79C616.87,43.06,616.4,42.48,616.47,42.41Z"/><path class="cls-5" d="M629.32,46.54a.5.5,0,0,1-.29-.46,2,2,0,0,1,0-.35c0-.1.08-.21.09-.32v-.34c0-.12,0-.23,0-.34s0-.25,0-.36.09-.39.21-.44.21.1.31.32a1.37,1.37,0,0,1,.13.39,2.6,2.6,0,0,1,0,.4c0,.14.1.28.08.42a1.84,1.84,0,0,1-.06.41c0,.15-.19.26-.24.36S629.4,46.57,629.32,46.54Z"/><path class="cls-5" d="M629,65.06a.52.52,0,0,1-.43-.35c0-.1-.09-.22-.14-.34s0-.24,0-.36l-.11-.34c0-.12-.1-.23-.13-.34s0-.26-.06-.38,0-.41.06-.49.23,0,.4.23a1.56,1.56,0,0,1,.24.34,2.27,2.27,0,0,1,.16.39c0,.13.19.23.22.37a3.15,3.15,0,0,1,.09.42,1.8,1.8,0,0,1-.11.43C629.12,64.9,629.08,65.05,629,65.06Z"/><path class="cls-5" d="M617.72,70.13c-.18,0-.13-.53-.05-1.15a2.35,2.35,0,0,0,0-1,1.2,1.2,0,0,0-.39-.73.71.71,0,0,0-.68-.15.94.94,0,0,0-.5.58,1.78,1.78,0,0,0-.1.94c.1.62.23,1.07.11,1.13s-.37-.31-.63-1a2.19,2.19,0,0,1-.06-1.29,1.59,1.59,0,0,1,.92-1,1.48,1.48,0,0,1,1.44.18,2,2,0,0,1,.73,1.19,2.52,2.52,0,0,1-.22,1.26C618,69.78,617.8,70.15,617.72,70.13Z"/><path class="cls-5" d="M636.79,55c0-.06.28-.3.92-.15a2.72,2.72,0,0,1,1.76,1.89,11.07,11.07,0,0,1,.08,3.46,6.81,6.81,0,0,0,.54,3.1,6.64,6.64,0,0,0,.76,1.28l-.62.45-1-1.49-1.86-2.8a9,9,0,0,1-1.51-3.1,2.72,2.72,0,0,1,.63-2.41c.45-.44.83-.44.84-.4s-.28.18-.6.6a2.52,2.52,0,0,0-.35,2.09A9.52,9.52,0,0,0,638,60.31l1.87,2.8c.33.49.69,1,1,1.45l-.63.46a6.21,6.21,0,0,1-.88-1.4,7.36,7.36,0,0,1-.66-3.46,13.35,13.35,0,0,0,.2-3.27,2.59,2.59,0,0,0-1.28-1.73A3.15,3.15,0,0,0,636.79,55Z"/><path class="cls-5" d="M621.17,80.79c0-.16.39-.35,1-.15a2.12,2.12,0,0,1,.86.55,1.71,1.71,0,0,1,.35.57l.21.52-.46,0c-.12,0-.25,0-.38,0a1.85,1.85,0,0,1-1-.25,2.12,2.12,0,0,1-.76-.69,2,2,0,0,1-.3-1c0-.63.32-.92.41-.86s0,.35.12.77a1.9,1.9,0,0,0,.34.64,1.78,1.78,0,0,0,.53.49,2.32,2.32,0,0,0,.86,0l-.26.6a2.65,2.65,0,0,0-.25-.37,2.83,2.83,0,0,0-.49-.58C621.5,80.92,621.17,80.89,621.17,80.79Z"/><path class="cls-5" d="M630.55,78.37c-.13-.12,0-.47,0-.92a1.15,1.15,0,0,0-.25-.63,1.2,1.2,0,0,0-.51-.43h-.08v0l.05.13.15.43c.08.28.18.62.27.9.17.55.26.92.15,1s-.33-.25-.64-.75a7.2,7.2,0,0,1-.44-.88c-.06-.14-.12-.3-.17-.45l-.23-.73-.11-.35a2,2,0,0,1,1.24-.13,1.79,1.79,0,0,1,1,.71,1.6,1.6,0,0,1,.16,1.16C631,78.16,630.6,78.43,630.55,78.37Z"/><path class="cls-5" d="M644.58,79.81c-.17,0-.24-.3-.34-.56a3,3,0,0,0-.19-.41,1.4,1.4,0,0,0-.2-.38l-.11-.08.61-.31,0,.35a4.34,4.34,0,0,0,.08.52c0,.2,0,.38.07.55.05.33.09.57,0,.64s-.27-.11-.47-.43a2.41,2.41,0,0,1-.26-.58,2.44,2.44,0,0,1-.11-.62c0-.14-.08-.28-.11-.43l-.16-.78.82.45a.9.9,0,0,1,.2.14,1.73,1.73,0,0,1,.41.61,1.44,1.44,0,0,1,0,.71C644.81,79.61,644.66,79.84,644.58,79.81Z"/><path class="cls-5" d="M610.63,79.7c-.15,0-.33-.08-.42,0s-.07.06-.06.07,0,0,0,0a.54.54,0,0,0,0,.2.56.56,0,0,0,.16.19,1.54,1.54,0,0,0,.25.26c.19.16.33.3.3.43s-.21.12-.49.07a1.19,1.19,0,0,1-.48-.18,1.07,1.07,0,0,1-.38-.45,1.09,1.09,0,0,1-.21-.61.88.88,0,0,1,.43-.67.71.71,0,0,1,.72.12C610.81,79.38,610.71,79.71,610.63,79.7Z"/><path class="cls-5" d="M639.65,97.18c-.14.1-.61-.26-1.19-.92-.28-.32-.59-.7-.92-1.12-.13-.16-.28-.41-.39-.54a.79.79,0,0,0-.34-.26l0,0c0-.07,0,.35.17.57a2.94,2.94,0,0,0,1,.84,12.07,12.07,0,0,1,1.2.89,2,2,0,0,1,.65.92c.07.26,0,.42,0,.43s-.23-.49-1-.92c-.33-.22-.77-.43-1.25-.71a3.49,3.49,0,0,1-1.2-1.06,3.29,3.29,0,0,1-.29-.63,1.05,1.05,0,0,1,0-.41.78.78,0,0,1,.21-.5.76.76,0,0,1,.57-.25c1,.14,1.14.73,1.43,1.07s.51.93.74,1.29C639.42,96.64,639.72,97.12,639.65,97.18Z"/><path class="cls-5" d="M650.13,94.34c-.19,0-.09-.64-.5-1.33a2.47,2.47,0,0,0-.9-.92,3.86,3.86,0,0,0-.5-.25.15.15,0,0,0-.1,0l.4.75c.24.46.52.88.76,1.29l.77,1.29c.48.77.8,1.28.7,1.36s-.52-.33-1.13-1c-.29-.35-.61-.76-.93-1.23s-.53-.86-.79-1.32c-.13-.23-.27-.44-.41-.66l-.35-.64-.23-.6a4.76,4.76,0,0,1,1.41,0,2.16,2.16,0,0,1,.85.36,2.76,2.76,0,0,1,1,1.38C650.54,93.71,650.19,94.38,650.13,94.34Z"/><path class="cls-5" d="M621.42,17.83c-.15-.12.13-.54.44-1.1a1.55,1.55,0,0,0,.23-.88.67.67,0,0,0-.4-.55.43.43,0,0,0-.32,0c-.07,0-.1.05-.15.14a1.94,1.94,0,0,0,.14.91c.11.39.22.76.34,1.07.26.63.48,1.05.37,1.13s-.43-.25-.84-.87a6.27,6.27,0,0,1-.54-1.1,2.1,2.1,0,0,1-.14-1.36,1,1,0,0,1,.61-.66,1.13,1.13,0,0,1,.85,0,1.5,1.5,0,0,1,.93,1.26,1.94,1.94,0,0,1-.58,1.26C621.87,17.64,621.47,17.88,621.42,17.83Z"/><path class="cls-5" d="M636.08,38.82c-.18,0-.23-.39-.36-.82a3,3,0,0,0-.3-.67l-.09-.14v0s0-.05,0,0,0,0,0,.07a.42.42,0,0,0,0,.22,1.89,1.89,0,0,0,.36.6A1.82,1.82,0,0,1,636,39a.86.86,0,0,1-.26.72c-.15.11-.27.07-.29,0s.15-.23,0-.64a1.7,1.7,0,0,0-.41-.59,2.27,2.27,0,0,1-.51-.88,1.49,1.49,0,0,1,0-.63,1,1,0,0,1,.47-.64.7.7,0,0,1,.75,0,1.72,1.72,0,0,1,.26.32,1.18,1.18,0,0,1,.14.23,2.26,2.26,0,0,1,.15,1C636.33,38.5,636.16,38.84,636.08,38.82Z"/><path class="cls-5" d="M624.11,7a.54.54,0,0,1-.43-.09.49.49,0,0,1-.1-.15s0-.12,0-.17a.5.5,0,0,1,0-.17c0-.05,0-.1,0-.16a1,1,0,0,1,.09-.18.44.44,0,0,1,.29-.21c.13,0,.17,0,.24.13a.36.36,0,0,1,.08.15.88.88,0,0,1,0,.16c0,.06.12.1.12.15s0,.11,0,.17-.12.13-.14.18S624.2,7,624.11,7Z"/><path class="cls-5" d="M648.8,108.63a.46.46,0,0,1-.48,0,1.12,1.12,0,0,1-.22-.16c-.06-.06-.05-.17-.11-.24s-.11-.14-.15-.21-.11-.14-.14-.22a1.37,1.37,0,0,1-.05-.28.38.38,0,0,1,.11-.39c.1-.07.19,0,.32.08a1.62,1.62,0,0,1,.2.18,1.53,1.53,0,0,1,.14.21c.05.07.19.08.23.15a2,2,0,0,1,.14.22c0,.09,0,.23,0,.31S648.87,108.57,648.8,108.63Z"/><path class="cls-5" d="M661.46,110a.64.64,0,0,1-.34.27H661s0-.09-.06-.11l-.1-.07s-.07,0-.08-.08a.41.41,0,0,1,0-.16.49.49,0,0,1,.09-.32.21.21,0,0,1,.22-.11.2.2,0,0,1,.13,0s.06,0,.09.07.12,0,.15,0,.07,0,.09.08,0,.16,0,.2A.21.21,0,0,1,661.46,110Z"/><path class="cls-5" d="M650,74.62a1,1,0,0,1-.33-.3,1.39,1.39,0,0,1-.06-.13s0-.09,0-.13a.93.93,0,0,1,0-.13c0-.05-.05-.08-.06-.12v-.18a.66.66,0,0,1,0-.37c.05-.11.17-.11.33,0a.76.76,0,0,1,.23.18.92.92,0,0,1,.13.24c0,.09.17.15.18.25a1,1,0,0,1,0,.3c0,.11-.16.2-.2.27S650,74.66,650,74.62Z"/><path class="cls-6" d="M452.71,189.4a.63.63,0,1,1-1.26,0,.63.63,0,0,1,1.26,0Z"/><path class="cls-6" d="M462,200a.63.63,0,1,1-1.26,0,.63.63,0,1,1,1.26,0Z"/><path class="cls-6" d="M470.85,189.4a.63.63,0,1,1-1.26,0,.63.63,0,0,1,1.26,0Z"/><path class="cls-6" d="M452.71,194.47a.63.63,0,0,1-1.26,0,.63.63,0,1,1,1.26,0Z"/><path class="cls-6" d="M462,205.08a.63.63,0,1,1-.63-.63A.64.64,0,0,1,462,205.08Z"/><path class="cls-6" d="M470.85,194.47a.63.63,0,0,1-1.26,0,.63.63,0,1,1,1.26,0Z"/><path class="cls-6" d="M452.71,199.53a.63.63,0,1,1-.63-.63A.63.63,0,0,1,452.71,199.53Z"/><path class="cls-6" d="M462,210.15a.63.63,0,0,1-1.26,0,.63.63,0,1,1,1.26,0Z"/><path class="cls-6" d="M470.85,199.53a.63.63,0,1,1-.63-.63A.63.63,0,0,1,470.85,199.53Z"/><path class="cls-6" d="M452.71,204.59a.63.63,0,1,1-.63-.63A.63.63,0,0,1,452.71,204.59Z"/><path class="cls-6" d="M462,215.21a.63.63,0,1,1-.63-.63A.63.63,0,0,1,462,215.21Z"/><path class="cls-6" d="M470.85,204.59a.63.63,0,1,1-.63-.63A.63.63,0,0,1,470.85,204.59Z"/><path class="cls-6" d="M452.71,209.65a.63.63,0,1,1-.63-.63A.63.63,0,0,1,452.71,209.65Z"/><path class="cls-6" d="M462,220.27a.63.63,0,1,1-.63-.63A.63.63,0,0,1,462,220.27Z"/><path class="cls-6" d="M470.85,209.65a.63.63,0,1,1-.63-.63A.63.63,0,0,1,470.85,209.65Z"/><path class="cls-6" d="M452.71,214.71a.63.63,0,1,1-1.26,0,.63.63,0,1,1,1.26,0Z"/><path class="cls-6" d="M462,225.33a.63.63,0,1,1-.63-.63A.63.63,0,0,1,462,225.33Z"/><path class="cls-6" d="M470.85,214.71a.63.63,0,1,1-1.26,0,.63.63,0,1,1,1.26,0Z"/><path class="cls-6" d="M452.71,219.78a.63.63,0,1,1-1.26,0,.63.63,0,1,1,1.26,0Z"/><path class="cls-6" d="M462,230.39a.63.63,0,1,1-.63-.63A.63.63,0,0,1,462,230.39Z"/><path class="cls-6" d="M470.85,219.78a.63.63,0,0,1-1.26,0,.63.63,0,1,1,1.26,0Z"/><path class="cls-6" d="M452.71,225.26a.63.63,0,1,1-.63-.63A.63.63,0,0,1,452.71,225.26Z"/><path class="cls-6" d="M462,235.88a.63.63,0,1,1-.63-.63A.63.63,0,0,1,462,235.88Z"/><path class="cls-6" d="M470.85,225.26a.63.63,0,1,1-.63-.63A.63.63,0,0,1,470.85,225.26Z"/><path class="cls-6" d="M452.71,230.32a.63.63,0,1,1-1.26,0,.63.63,0,0,1,1.26,0Z"/><path class="cls-6" d="M462,240.94a.63.63,0,1,1-.63-.63A.63.63,0,0,1,462,240.94Z"/><path class="cls-6" d="M470.85,230.32a.63.63,0,1,1-1.26,0,.63.63,0,1,1,1.26,0Z"/><path class="cls-6" d="M452.71,235.38a.63.63,0,1,1-.63-.63A.64.64,0,0,1,452.71,235.38Z"/><path class="cls-6" d="M462,246a.63.63,0,1,1-1.26,0,.63.63,0,0,1,1.26,0Z"/><path class="cls-6" d="M470.85,235.38a.63.63,0,1,1-.63-.63A.64.64,0,0,1,470.85,235.38Z"/><path class="cls-6" d="M452.71,240.45a.63.63,0,1,1-.63-.64A.63.63,0,0,1,452.71,240.45Z"/><path class="cls-6" d="M462,251.07a.63.63,0,1,1-.63-.64A.63.63,0,0,1,462,251.07Z"/><path class="cls-6" d="M470.85,240.45a.63.63,0,1,1-.63-.64A.63.63,0,0,1,470.85,240.45Z"/><path class="cls-6" d="M452.71,245.51a.63.63,0,1,1-.63-.63A.63.63,0,0,1,452.71,245.51Z"/><path class="cls-6" d="M462,256.13a.63.63,0,0,1-1.26,0,.63.63,0,1,1,1.26,0Z"/><path class="cls-6" d="M470.85,245.51a.63.63,0,1,1-.63-.63A.63.63,0,0,1,470.85,245.51Z"/><path class="cls-6" d="M452.71,250.57a.63.63,0,1,1-.63-.63A.63.63,0,0,1,452.71,250.57Z"/><path class="cls-6" d="M462,261.19a.63.63,0,1,1-.63-.63A.63.63,0,0,1,462,261.19Z"/><path class="cls-6" d="M470.85,250.57a.63.63,0,1,1-.63-.63A.63.63,0,0,1,470.85,250.57Z"/><path class="cls-6" d="M452.71,255.63a.63.63,0,1,1-.63-.63A.63.63,0,0,1,452.71,255.63Z"/><path class="cls-6" d="M462,266.25a.63.63,0,1,1-.63-.63A.63.63,0,0,1,462,266.25Z"/><path class="cls-6" d="M470.85,255.63a.63.63,0,1,1-.63-.63A.63.63,0,0,1,470.85,255.63Z"/><path class="cls-6" d="M452.71,260.69a.63.63,0,1,1-.63-.63A.63.63,0,0,1,452.71,260.69Z"/><path class="cls-6" d="M462,271.31a.63.63,0,1,1-1.26,0,.63.63,0,0,1,1.26,0Z"/><path class="cls-6" d="M470.85,260.69a.63.63,0,1,1-.63-.63A.63.63,0,0,1,470.85,260.69Z"/><path class="cls-6" d="M452.71,265.76a.63.63,0,0,1-1.26,0,.63.63,0,1,1,1.26,0Z"/><path class="cls-6" d="M462,276.37a.63.63,0,1,1-.63-.63A.64.64,0,0,1,462,276.37Z"/><path class="cls-6" d="M470.85,265.76a.63.63,0,0,1-1.26,0,.63.63,0,1,1,1.26,0Z"/><path class="cls-6" d="M452.71,270.82a.63.63,0,1,1-.63-.63A.63.63,0,0,1,452.71,270.82Z"/><path class="cls-6" d="M462,281.44a.63.63,0,0,1-1.26,0,.63.63,0,1,1,1.26,0Z"/><path class="cls-6" d="M470.85,270.82a.63.63,0,1,1-.63-.63A.63.63,0,0,1,470.85,270.82Z"/><path class="cls-6" d="M383.71,18.48a.63.63,0,1,1-1.26,0,.63.63,0,0,1,1.26,0Z"/><path class="cls-6" d="M393,29.1a.63.63,0,1,1-1.26,0,.63.63,0,0,1,1.26,0Z"/><path class="cls-6" d="M401.85,18.48a.63.63,0,1,1-1.26,0,.63.63,0,1,1,1.26,0Z"/><path class="cls-6" d="M383.71,23.54a.63.63,0,1,1-1.26,0,.63.63,0,0,1,1.26,0Z"/><path class="cls-6" d="M393,34.16a.63.63,0,1,1-1.26,0,.63.63,0,1,1,1.26,0Z"/><path class="cls-6" d="M401.85,23.54a.63.63,0,1,1-1.26,0,.63.63,0,1,1,1.26,0Z"/><path class="cls-6" d="M383.71,28.61a.63.63,0,1,1-1.26,0,.63.63,0,1,1,1.26,0Z"/><path class="cls-6" d="M393,39.23a.63.63,0,1,1-1.26,0,.63.63,0,1,1,1.26,0Z"/><path class="cls-6" d="M401.85,28.61a.63.63,0,1,1-1.26,0,.63.63,0,1,1,1.26,0Z"/><path class="cls-6" d="M383.71,33.67a.63.63,0,1,1-.63-.63A.63.63,0,0,1,383.71,33.67Z"/><path class="cls-6" d="M393,44.29a.63.63,0,1,1-1.26,0,.63.63,0,1,1,1.26,0Z"/><path class="cls-6" d="M401.85,33.67a.63.63,0,1,1-.63-.63A.63.63,0,0,1,401.85,33.67Z"/><path class="cls-6" d="M383.71,38.73a.63.63,0,1,1-.63-.63A.63.63,0,0,1,383.71,38.73Z"/><path class="cls-6" d="M393,49.35a.63.63,0,1,1-.63-.63A.63.63,0,0,1,393,49.35Z"/><path class="cls-6" d="M401.85,38.73a.63.63,0,1,1-.63-.63A.63.63,0,0,1,401.85,38.73Z"/><path class="cls-6" d="M383.71,43.79a.63.63,0,1,1-1.26,0,.63.63,0,0,1,1.26,0Z"/><path class="cls-6" d="M393,54.41a.63.63,0,1,1-.63-.63A.63.63,0,0,1,393,54.41Z"/><path class="cls-6" d="M401.85,43.79a.63.63,0,1,1-1.26,0,.63.63,0,1,1,1.26,0Z"/><path class="cls-6" d="M383.71,48.85a.63.63,0,1,1-1.26,0,.63.63,0,1,1,1.26,0Z"/><path class="cls-6" d="M393,59.47a.63.63,0,1,1-1.26,0,.63.63,0,0,1,1.26,0Z"/><path class="cls-6" d="M401.85,48.85a.63.63,0,1,1-1.26,0,.63.63,0,1,1,1.26,0Z"/><path class="cls-6" d="M383.71,54.34a.63.63,0,1,1-.63-.63A.63.63,0,0,1,383.71,54.34Z"/><path class="cls-6" d="M393,65a.63.63,0,1,1-.63-.64A.63.63,0,0,1,393,65Z"/><path class="cls-6" d="M401.85,54.34a.63.63,0,1,1-.63-.63A.63.63,0,0,1,401.85,54.34Z"/><path class="cls-6" d="M383.71,59.4a.63.63,0,1,1-.63-.63A.63.63,0,0,1,383.71,59.4Z"/><path class="cls-6" d="M393,70a.63.63,0,1,1-.63-.63A.63.63,0,0,1,393,70Z"/><path class="cls-6" d="M401.85,59.4a.63.63,0,1,1-.63-.63A.63.63,0,0,1,401.85,59.4Z"/><path class="cls-6" d="M383.71,64.46a.63.63,0,1,1-.63-.63A.63.63,0,0,1,383.71,64.46Z"/><path class="cls-6" d="M393,75.08a.63.63,0,1,1-.63-.63A.63.63,0,0,1,393,75.08Z"/><path class="cls-6" d="M401.85,64.46a.63.63,0,1,1-.63-.63A.63.63,0,0,1,401.85,64.46Z"/><path class="cls-6" d="M383.71,69.52a.63.63,0,1,1-1.26,0,.63.63,0,1,1,1.26,0Z"/><path class="cls-6" d="M393,80.14a.63.63,0,1,1-1.26,0,.63.63,0,1,1,1.26,0Z"/><path class="cls-6" d="M401.85,69.52a.63.63,0,1,1-1.26,0,.63.63,0,0,1,1.26,0Z"/><path class="cls-6" d="M383.71,74.59a.63.63,0,0,1-1.26,0,.63.63,0,1,1,1.26,0Z"/><path class="cls-6" d="M393,85.21a.63.63,0,1,1-1.26,0,.63.63,0,1,1,1.26,0Z"/><path class="cls-6" d="M401.85,74.59a.63.63,0,0,1-1.26,0,.63.63,0,1,1,1.26,0Z"/><path class="cls-6" d="M383.71,79.65a.63.63,0,1,1-.63-.63A.63.63,0,0,1,383.71,79.65Z"/><path class="cls-6" d="M393,90.27a.63.63,0,1,1-1.26,0,.63.63,0,1,1,1.26,0Z"/><path class="cls-6" d="M401.85,79.65a.63.63,0,1,1-.63-.63A.63.63,0,0,1,401.85,79.65Z"/><path class="cls-6" d="M383.71,84.71a.63.63,0,1,1-.63-.63A.63.63,0,0,1,383.71,84.71Z"/><path class="cls-6" d="M393,95.33a.63.63,0,1,1-.63-.63A.63.63,0,0,1,393,95.33Z"/><path class="cls-6" d="M401.85,84.71a.63.63,0,1,1-.63-.63A.63.63,0,0,1,401.85,84.71Z"/><path class="cls-6" d="M383.71,89.77a.63.63,0,1,1-.63-.63A.63.63,0,0,1,383.71,89.77Z"/><path class="cls-6" d="M393,100.39a.63.63,0,1,1-.63-.63A.63.63,0,0,1,393,100.39Z"/><path class="cls-6" d="M401.85,89.77a.63.63,0,1,1-.63-.63A.63.63,0,0,1,401.85,89.77Z"/><path class="cls-6" d="M383.71,94.83a.63.63,0,1,1-1.26,0,.63.63,0,1,1,1.26,0Z"/><path class="cls-6" d="M393,105.45a.63.63,0,1,1-1.26,0,.63.63,0,1,1,1.26,0Z"/><path class="cls-6" d="M401.85,94.83a.63.63,0,1,1-1.26,0,.63.63,0,0,1,1.26,0Z"/><path class="cls-6" d="M383.71,99.9a.63.63,0,1,1-.63-.64A.63.63,0,0,1,383.71,99.9Z"/><path class="cls-6" d="M393,110.51a.63.63,0,1,1-.63-.63A.63.63,0,0,1,393,110.51Z"/><path class="cls-6" d="M401.85,99.9a.63.63,0,1,1-.63-.64A.63.63,0,0,1,401.85,99.9Z"/><polygon class="cls-7" points="126.19 40 146.05 59.59 153.08 32.59 126.19 40"/><polygon class="cls-7" points="170.45 38.45 159.05 27.21 155.01 42.7 170.45 38.45"/><polygon class="cls-7" points="36.81 272.77 48.17 247.29 20.43 250.2 36.81 272.77"/><polygon class="cls-7" points="19.8 231.88 13.29 246.5 29.21 244.84 19.8 231.88"/><path class="cls-8" d="M449.33,84.86a36.32,36.32,0,0,0-5,2.33l-14.07,14.07a36.91,36.91,0,0,0-2.32,5Z"/><path class="cls-8" d="M461.37,82.6c-1,0-1.91.07-2.85.16l-32.71,32.7q-.13,1.41-.15,2.85Z"/><path class="cls-8" d="M470.22,83.52c-.74-.17-1.49-.32-2.25-.44l-41.84,41.84c.13.76.28,1.5.45,2.25Z"/><path class="cls-8" d="M477.48,86c-.61-.28-1.24-.56-1.88-.81l-47.33,47.33c.26.64.53,1.26.82,1.88Z"/><path class="cls-8" d="M483.61,89.68c-.52-.38-1.05-.75-1.59-1.1L431.63,139q.54.81,1.11,1.59Z"/><path class="cls-8" d="M487.43,92.94,436,144.38c.45.45.9.89,1.37,1.33l51.4-51.4C488.33,93.84,487.89,93.38,487.43,92.94Z"/><path class="cls-8" d="M493,99.86c-.34-.55-.7-1.09-1.07-1.63l-50.62,50.62c.53.38,1.07.73,1.62,1.08Z"/><path class="cls-8" d="M496.18,106.43c-.24-.65-.5-1.29-.77-1.92l-47.85,47.85c.64.27,1.27.53,1.92.77Z"/><path class="cls-8" d="M498.09,114.29c-.1-.78-.22-1.56-.37-2.32L455,154.67c.77.15,1.54.27,2.33.37Z"/><path class="cls-8" d="M498,124.13q.21-1.48.3-3l-34.14,34.15c1-.06,2-.16,3-.3Z"/><path class="cls-8" d="M491.08,140.85a36.67,36.67,0,0,0,4-6.69L477.22,152a36.06,36.06,0,0,0,6.69-4Z"/><path class="cls-8" d="M159,226.48a36.36,36.36,0,0,0-5,2.32l-14.07,14.07a36.32,36.32,0,0,0-2.33,5Z"/><path class="cls-8" d="M171.06,224.22c-1,0-1.91.06-2.85.16l-32.7,32.7c-.09.94-.14,1.89-.16,2.85Z"/><path class="cls-8" d="M179.91,225.14q-1.11-.25-2.25-.45l-41.83,41.84c.12.76.27,1.51.44,2.25Z"/><path class="cls-8" d="M187.18,227.65c-.62-.29-1.24-.56-1.88-.82L138,274.17c.25.63.52,1.26.81,1.87Z"/><path class="cls-8" d="M193.3,231.3q-.78-.57-1.59-1.11l-50.38,50.39c.35.54.72,1.07,1.1,1.59Z"/><path class="cls-8" d="M197.12,234.56,145.69,286c.44.46.9.9,1.36,1.33l51.4-51.4C198,235.46,197.58,235,197.12,234.56Z"/><path class="cls-8" d="M202.67,241.47c-.34-.55-.7-1.09-1.07-1.62L151,290.47c.53.37,1.07.73,1.63,1.07Z"/><path class="cls-8" d="M205.88,248c-.24-.65-.5-1.28-.78-1.92L157.26,294c.63.27,1.27.54,1.92.77Z"/><path class="cls-8" d="M207.79,255.91c-.1-.78-.22-1.56-.37-2.33l-42.7,42.71c.76.14,1.54.26,2.32.36Z"/><path class="cls-8" d="M207.72,265.75c.14-1,.25-2,.31-3l-34.15,34.14c1-.05,2-.16,3-.3Z"/><path class="cls-8" d="M200.77,282.47a36.11,36.11,0,0,0,4-6.69l-17.86,17.86a36.67,36.67,0,0,0,6.69-4Z"/></g></g></g></svg>