<svg id="_Layer_" data-name="&lt;Layer&gt;" xmlns="http://www.w3.org/2000/svg" viewBox="0 0 5997.46 3768.67"><defs><style>.cls-1,.cls-2{fill:#fff;}.cls-2{font-size:30px;font-family:Gilroy-Medium;font-weight:500;}.cls-3{letter-spacing:0em;}.cls-4{letter-spacing:0em;}.cls-5{letter-spacing:0em;}.cls-6{letter-spacing:-0.02em;}.cls-7{letter-spacing:-0.05em;}</style></defs><path class="cls-1" d="M5896.45,988.67c-99.26-146.15-10.95-192.53-10.95-192.53-27.9,51.16-21.73,89.09-21.73,89.09,121.1-12.88,103.06-171.72,103.06-171.72-122.13,7.43-163.51,76.42-164.44,105.08s23.73,47.19,23.73,47.19c2.1,18.52,9.25,39.47,18.22,59.74-15.36-16-32-30.54-48.37-39.51,0,0-7.8-29.82-34.68-39.84s-106.4,2.14-159.57,112.33c0,0,140.15,76.91,198-30.27,0,0-32.77-20.09-90.69-13.66,0,0,76.4-64.14,174,83.11l-201.23,135,43.27,64.47,33.66-22.59,125.92-84.49-112.55,100.3L6064.47,1536l261.38-175.39L6107.28,940.71l33.66-22.59-43.26-64.48Z" transform="translate(-578.81 -266.32)"/><path class="cls-1" d="M920.05,666.36c-221.17-73.65-165.77-193-165.77-193,11.75,76,48.62,110.81,48.62,110.81,116.63-110.55-29.58-262.6-29.58-262.6C651.26,427.19,663.16,532.66,685.16,563.45s62.69,30.46,62.69,30.46c17,17.73,41.32,34,67,48-28.9-4.45-58-6.34-82.36-2.64,0,0-32.07-25-68.28-14s-109.81,87.51-77.24,245.63c0,0,208.54-31.69,183.26-190.39,0,0-50.45,5.2-106,58.35,0,0,28.69-128.45,249-52.33L810.46,989.37l97,32.92,17.19-50.66L989,782.15,951.35,977.48l583.49,128,133.44-393.32-565.66-265,17.19-50.66-97-32.91Z" transform="translate(-578.81 -266.32)"/><path class="cls-1" d="M4412,490.63c-1-176.66,98.19-166,98.19-166-51.68,26.93-67.69,61.87-67.69,61.87,107.73,56.78,181.26-85.17,181.26-85.17-105.56-61.88-178.36-27.65-195.1-4.37S4422,349.4,4422,349.4c-8.58,16.55-14.31,37.93-18.16,59.75-3.84-21.82-9.58-43.2-18.15-59.75,0,0,10.15-29.11-6.6-52.41s-89.54-57.51-195.09,4.37c0,0,73.52,142,181.26,85.17,0,0-16-34.94-67.69-61.87,0,0,99.18-10.69,98.19,166H4153.46v77.65h192.18l-149.35,20.57,50.2,449.93h314.77l52.49-470.5h40.54V490.63Z" transform="translate(-578.81 -266.32)"/><path class="cls-1" d="M6333.94,3486.84c-1-176.66,98.19-166,98.19-166-51.68,26.93-67.7,61.87-67.7,61.87,107.74,56.78,181.27-85.17,181.27-85.17-105.56-61.87-178.36-27.65-195.1-4.37s-6.59,52.41-6.59,52.41c-8.58,16.55-14.31,37.93-18.16,59.75-3.84-21.82-9.58-43.2-18.15-59.75,0,0,10.15-29.11-6.6-52.41s-89.54-57.5-195.09,4.37c0,0,73.52,141.95,181.26,85.17,0,0-16-34.94-67.69-61.87,0,0,99.18-10.69,98.19,166H6075.43v77.65h192.19l-149.35,20.57,50.2,449.93h314.77l52.49-470.5h40.54v-77.65Z" transform="translate(-578.81 -266.32)"/><path class="cls-1" d="M868.29,2153.29c-1-186.09,103.42-174.83,103.42-174.83-54.43,28.37-71.3,65.18-71.3,65.18,113.49,59.8,190.93-89.72,190.93-89.72-111.18-65.17-187.87-29.13-205.5-4.6s-6.94,55.2-6.94,55.2c-9,17.44-15.08,40-19.13,62.94-4-23-10.09-45.5-19.12-62.94,0,0,10.69-30.66-6.95-55.2s-94.31-60.57-205.49,4.6c0,0,77.44,149.52,190.92,89.72,0,0-16.87-36.81-71.3-65.18,0,0,104.47-11.26,103.43,174.83H596v81.78H798.43l-157.31,21.67L694,2730.66h331.56l55.29-495.59h42.7v-81.78Z" transform="translate(-578.81 -266.32)"/><path class="cls-1" d="M5205.77,3110.18c-132.25-166.21-30.59-229.83-30.59-229.83-28.81,63.87-18,108.79-18,108.79,144-26.43,108-215.22,108-215.22-145.73,20-189.09,106.44-187.6,140.89s32.73,54.42,32.73,54.42c4.2,22,14.67,46.48,27.26,70-19.86-17.76-41.17-33.7-61.57-43,0,0-12.05-35.06-45.19-44.62s-127.36,12.21-181.11,149.14c0,0,175,79.49,234.6-54.25,0,0-41.11-21.12-110-8.16,0,0,85.77-83.82,216.15,83.85l-229,180.14,57.72,73.37,38.31-30.13,143.29-112.72L5075,3363.3l381.87,387.85,297.45-234-300.14-483.62,38.31-30.13L5434.76,2930Z" transform="translate(-578.81 -266.32)"/><path class="cls-1" d="M2144.69,1982.31c-59.07-98.58,0-125.45,0-125.45-20,32.2-17.4,57.07-17.4,57.07,79.12-3.9,73.27-107.72,73.27-107.72-79.59.31-109,43.58-110.67,62.17s13.66,31.52,13.66,31.52c.68,12.11,4.55,26,9.63,39.47-9.38-10.95-19.67-21-30-27.44,0,0-4-19.66-21-27.16s-69.18-2.54-107.78,67.06c0,0,88.18,55.13,129.69-12.35,0,0-20.54-14.26-58.39-12.22,0,0,52-38.83,109.95,60.41L2000,2067.93l25.71,43.47,22.7-13.42,84.9-50.23-76.8,61L2233.59,2344l176.24-104.25L2283.39,1959l22.7-13.43-25.72-43.47Z" transform="translate(-578.81 -266.32)"/><path class="cls-1" d="M3994.54,3381.17c-39.14-150.5,47.79-162.88,47.79-162.88-38.25,34.18-44.33,67.46-44.33,67.46,104.22,25.09,136.17-112,136.17-112-103.46-29.9-158.15,15.07-167.38,38.57s5.73,46.14,5.73,46.14c-3.73,16-4,35.46-2.54,54.91-8-17.79-17.53-34.78-28.44-47,0,0,2.35-27-17-43.28s-88.85-29.65-165.49,46c0,0,93.5,105.17,173.11,33.37,0,0-21.24-26.34-71.17-38.12,0,0,82.3-30.62,119.75,120.32L3774,3437.21l16.83,66.24,34.59-8.78,129.37-32.88-123,49.93,140.36,373,268.54-68.23-57.22-412.78,34.59-8.79-16.83-66.24Z" transform="translate(-578.81 -266.32)"/><path class="cls-1" d="M3857.86,1902.69c169.8-149.91,243.1-45.11,243.1-45.11-69.59-27.2-116.84-13.21-116.84-13.21,36,151.94,235.1,103.26,235.1,103.26-29.24-154.12-123.68-195.58-160.28-192.11s-56.18,37.82-56.18,37.82c-23.22,5.67-48.7,18.15-73,32.84,17.84-22.11,33.65-45.67,42.4-67.91,0,0,36.68-14.75,45.06-50.56s-19.95-135-168.72-184.75c0,0-75.11,190.7,70.58,246.89,0,0,20.24-44.93,2.68-117.56,0,0,94,86.78-77.51,234.79L3639.9,1653l-75,65.47,34.18,39.15,127.86,146.47-145.79-126.9-392.24,427.84,265.41,304,498.69-346,34.18,39.15,75-65.47Z" transform="translate(-578.81 -266.32)"/><path class="cls-1" d="M5433.91,2034.47c114.86-65.46,144.27,3.14,144.27,3.14-36.52-23.82-65.19-21.44-65.19-21.44,2.5,91.09,122.05,87,122.05,87,1.63-91.55-47.4-126.47-68.73-128.84s-36.59,14.92-36.59,14.92c-13.95.48-30,4.59-45.63,10.09,12.82-10.52,24.66-22.1,32.3-33.77,0,0,22.71-4.06,31.76-23.52s4.66-79.5-74.42-125.64c0,0-65.6,100,11,149.47,0,0,16.92-23.27,15.52-66.85,0,0,43.36,60.76-72.22,124.93l-88.9-158-50.65,28.49,14.88,26.44,55.63,98.9-68.21-89.86-275,197.81L5131.2,2333l326.11-138.39,14.87,26.44,50.64-28.49Z" transform="translate(-578.81 -266.32)"/><path class="cls-1" d="M2372.14,3407.93c-210.07-59.6-163.26-173.66-163.26-173.66,14.2,70.61,50.17,101.64,50.17,101.64,104.47-108.36-38.75-244.48-38.75-244.48-109.77,104-94.19,202.22-72.3,230.1s59.94,25.86,59.94,25.86c16.7,15.87,40.1,30,64.69,42.11-27.23-2.95-54.58-3.49-77.18,1,0,0-31.07-22.06-64.48-10.2s-99.07,86.52-61.93,233.11c0,0,193.81-38.45,163.47-185.88,0,0-47,7-96.75,59.07,0,0,21.43-121.42,230.82-59.47l-83.37,287.68,92.18,26.72,14-48.13,52.16-180-26.95,184.37,551.39,95.19,108.28-373.68-540.49-224.17,13.95-48.12-92.18-26.72Z" transform="translate(-578.81 -266.32)"/><path class="cls-1" d="M2771.46,703.9c64.2-108.2,120.82-65.3,120.82-65.3-41.42-2.51-64,12.94-64,12.94,44.94,74.19,141.9,14.5,141.9,14.5-41.74-76.49-98.73-82.3-117.49-74.23s-23.26,29.57-23.26,29.57c-11.3,7-22.64,17.91-33,29.82,5.66-14.73,10-29.89,10.84-43.14,0,0,16.87-14,15.2-34.41s-33.57-67.95-120.7-68.9c0,0-7.19,113.63,79.41,118.49,0,0,3-27.21-18.63-62.61,0,0,64.47,29.86-.94,137.34l-147.93-88.89-28.49,47.4,24.75,14.87L2702.49,727l-98.71-42.23L2469.37,977.82l192.15,115.47,204.64-268,24.75,14.87,28.48-47.4Z" transform="translate(-578.81 -266.32)"/><path class="cls-1" d="M1196.13,3416.7c90.15-151.94,169.65-91.69,169.65-91.69-58.16-3.53-89.89,18.17-89.89,18.17,63.1,104.16,199.24,20.36,199.24,20.36-58.61-107.4-138.63-115.57-165-104.23s-32.64,41.52-32.64,41.52c-15.88,9.77-31.8,25.14-46.34,41.87,7.95-20.69,14-42,15.21-60.57,0,0,23.7-19.73,21.34-48.32s-47.12-95.41-169.47-96.74c0,0-10.09,159.54,111.5,166.37,0,0,4.27-38.2-26.15-87.91,0,0,90.52,41.93-1.33,192.84L974.56,3283.55l-40,66.56L969.31,3371l130,78.11-138.61-59.29L772,3801.31l269.81,162.14L1329.1,3587.2l34.75,20.88,40-66.56Z" transform="translate(-578.81 -266.32)"/><text class="cls-2" transform="translate(175.71 2299.23)"><tspan class="cls-3">C</tspan><tspan class="cls-4" x="22.02" y="0">OM</tspan><tspan class="cls-5" x="70.17" y="0">P</tspan><tspan class="cls-6" x="87.72" y="0">OS</tspan><tspan class="cls-7" x="127.56" y="0">T</tspan><tspan x="142.23" y="0">ABLE</tspan></text></svg>