<svg xmlns="http://www.w3.org/2000/svg" viewBox="0 0 1920 135.67"><defs><style>.cls-1{fill:#c6dab3;}</style></defs><g id="Capa_2" data-name="Capa 2"><g id="Capa_1-2" data-name="Capa 1"><path class="cls-1" d="M0,0H1920V104c-61.69-13.58-116.5,35.5-214.5,10.5-76.47-19.51-148,34.19-262,9-78.74-17.39-113.75-20.58-198-2-47.64,10.51-155.23-16.22-181-8-96.21,30.68-104-7.08-222-6C711,108.7,750,139.52,644,122c-52.06-8.6-94,27-161,8-75.78-21.49-134.52,8.46-185-5-60-16-135.32,15.54-180,8C45.2,120.72,8.26,104.38.5,104Z"/></g></g></svg>