<svg xmlns="http://www.w3.org/2000/svg" viewBox="0 0 1917.76 1080.03"><defs><style>.cls-1{opacity:0.25;}.cls-2{fill:#82b968;}.cls-2,.cls-3,.cls-4,.cls-5,.cls-6{fill-rule:evenodd;}.cls-3{fill:#afe696;}.cls-4{fill:#57963a;}.cls-5{fill:#51a365;}.cls-6{fill:#165741;}</style></defs><g id="Capa_2" data-name="Capa 2"><g id="Capa_2-2" data-name="Capa 2"><g class="cls-1"><path class="cls-2" d="M1507.84.1c-30.71,20.54-72.45,61.43-131.33,142.15C1485.63,54.35,1535.58,20.61,1555.2.1Z"/><path class="cls-2" d="M1602.62.1c-40.88,24.38-78.75,85.74-169.43,199.06C1560,92.43,1627.24,59.77,1627,.1Z"/><path class="cls-2" d="M1695.83,6.83c-55.12,48-82.11,140.13-201.12,240.88C1648.67,156.34,1721.42,68.18,1695.83,6.83Z"/><path class="cls-2" d="M1739.17.1c2.58,7.19,5.62,14.62,9.25,22.35Q1754.21,11.2,1759.17.1Z"/><path class="cls-2" d="M1788.34,35.07c-36.57,84.29-174.15,143.18-245,300.74C1617,238.39,1822.64,155.56,1788.34,35.07Z"/><path class="cls-2" d="M1833.13.1a207.88,207.88,0,0,0,5.9,52.06A358.15,358.15,0,0,0,1873.2.1Z"/><path class="cls-2" d="M1879.19,69c-94.69,89.23-100.73,178.65-252.66,297.79C1775.69,300.94,1857.23,228,1879.19,69Z"/><path class="cls-2" d="M1917.76,171.35c-60,71.58-109,173.35-230.54,259.17,95.32-47.88,176.81-89,230.54-161.92Z"/><path class="cls-2" d="M1766.74,491.21c61-27.93,109.8-63.08,151-101.34v-58.3C1879.17,380.32,1838.36,433.36,1766.74,491.21Z"/><path class="cls-2" d="M1812.12,582.69c31.65-11.08,68.13-29,105.64-51.78V498.62C1884.77,533.06,1850.45,562.66,1812.12,582.69Z"/><path class="cls-3" d="M1609.59,10.33c-33.07,1.53-79.38,84.07-103,106.19C1555.2,84.58,1594,24,1609.59,10.33Z"/><path class="cls-3" d="M1591.32,159.86c52.13-48.18,51.27-71.41,87.28-116.78C1656,53.54,1620.88,116.94,1591.32,159.86Z"/><path class="cls-3" d="M1758.58,96.41c-25.21,33-97.49,83.52-122.28,117C1659.12,203.22,1718.88,155,1758.58,96.41Z"/><path class="cls-3" d="M1753.13,255.35c72-56.72,90.21-136.09,103-149.14C1825.49,133,1777.13,224.93,1753.13,255.35Z"/><path class="cls-3" d="M1917.76,186c-41,50.48-88.61,125-114.18,153.22,45.54-40,83-73.06,114.18-122.07Z"/><path class="cls-3" d="M1917.76,347.86c-20.33,26.12-38.61,49.1-57.65,63.87,19.86-9.33,38.91-26.22,57.65-46.87Z"/><path class="cls-4" d="M1833.13.1a207.88,207.88,0,0,0,5.9,52.06c2-2.61,4-5.23,6-7.85A212.36,212.36,0,0,1,1844.51.1Z"/><path class="cls-4" d="M1746.78.1c-1.32,3.1-2.66,6.2-4.06,9.31q2.58,6.39,5.7,13Q1754.21,11.2,1759.17.1Z"/><path class="cls-4" d="M1917.76,78C1845.26,46.54,1772.94,19.71,1702.4.1h-68.94c91.8,19.65,187.87,53.71,284.3,95.89Z"/><path class="cls-3" d="M1440.56,70.27C1454.11,68.75,1508.88,17,1529.24.1h-6.77C1488.57,15.93,1467.7,42.34,1440.56,70.27Z"/><path class="cls-4" d="M1625.17.1c-9.79,50.38-71.4,80.26-192,199.06C1560,92.43,1627.24,59.77,1627,.1Z"/><path class="cls-4" d="M1543.25.1C1507.34,29,1437.93,80.79,1376.52,142.25,1485.63,54.35,1535.58,20.61,1555.2.1Z"/><path class="cls-4" d="M1695.83,6.83c-2.84,83.81-73.92,150.63-201.12,240.88C1648.67,156.34,1721.42,68.18,1695.83,6.83Z"/><path class="cls-4" d="M1543.33,335.81c73.62-97.42,279.31-180.25,245-300.74C1795.94,151.73,1612.75,230.39,1543.33,335.81Z"/><path class="cls-4" d="M1879.19,69c-47.34,130.42-87.8,204.45-252.66,297.79C1775.69,300.94,1857.23,228,1879.19,69Z"/><path class="cls-4" d="M1917.76,240.86c-45.71,66.54-114.62,125.71-230.54,189.66,95.32-47.88,176.81-89,230.54-161.92Z"/><path class="cls-4" d="M1766.74,491.21c61-27.93,109.8-63.08,151-101.34V374.62C1876.74,416.5,1828.57,457,1766.74,491.21Z"/><path class="cls-4" d="M1850.22,558.9a306,306,0,0,1-38.1,23.79c31.65-11.08,68.13-29,105.64-51.78V515C1896.14,529.65,1873.64,544.15,1850.22,558.9Z"/><path class="cls-2" d="M621,655.68c32.1,9.56,153.34-16.17,269.76-100.76C727.54,578.38,653,617.75,621,655.68Z"/><path class="cls-2" d="M603.27,666.64c33.93,64.49,56.29,47.1,236,114.41C701.14,659.66,668,676.11,603.27,666.64Z"/><path class="cls-2" d="M669.56,425.51c-81.67,194.71-108.39,231-97.25,253.12C601.28,663,642.59,624.52,669.56,425.51Z"/><path class="cls-2" d="M586,400.39C516.33,577,467.43,640.72,509.26,700,552.5,660.52,552.54,584.78,586,400.39Z"/><path class="cls-2" d="M543.05,691c18.73,119.91,92.5,79.34,254.26,225.4C710.4,767.78,608.06,737.76,543.05,691Z"/><path class="cls-2" d="M479.09,708.65c-23.16,112.91,82.5,170,225.52,252.43C568.57,847.1,569.3,765.79,479.09,708.65Z"/><path class="cls-2" d="M502.1,385.76c-100,166.88-124,288.73-67.8,334.14C462.18,645.54,440.39,543.54,502.1,385.76Z"/><path class="cls-2" d="M376,732.14c3.24,165.58,84.66,268,243.2,282C422.48,936.42,511.12,832.13,376,732.14Z"/><path class="cls-2" d="M410.11,326.67c-20,131.15-173.86,316.59-78.83,414C322.7,641.25,423.77,513.88,410.11,326.67Z"/><path class="cls-2" d="M490.77,1080C326.77,967.15,355.67,840,274,750.56,247.91,905,309.52,1014.2,471.73,1080Z"/><path class="cls-2" d="M314.57,340C206,480,165.75,591.85,226.89,755.18,271.31,621,230.9,532.38,314.57,340Z"/><path class="cls-2" d="M281.89,1080h37.64c-45.27-88.64-146.69-211.48-139.06-321.39C122.85,911.7,204.39,998.6,281.89,1080Z"/><path class="cls-2" d="M223.64,310.47C121.22,457.09,41.86,571.24,108.05,762.25,168.37,651.05,129.72,499.76,223.64,310.47Z"/><path class="cls-2" d="M163.51,1080C123,974.57,132,900.3,46.59,765.47c-20.22,101,4.87,201.41,87.51,314.56Z"/><path class="cls-2" d="M0,557.15V707.82c67.77-134.7,41.94-236.39,116.29-414.27C49.69,381.85,18.63,471.44,0,557.15Z"/><path class="cls-2" d="M0,1002v73.27L4.54,1080H46.39C33.4,1056,16.92,1029.66,0,1002Z"/><path class="cls-2" d="M0,275.17a338.54,338.54,0,0,1,25.65-45.63C17.2,238.83,8.61,249.2,0,260.46Z"/><path class="cls-3" d="M825.5,573.81s-153.92,43.41-163.27,57.77C648.78,652.22,779.73,602.92,825.5,573.81Z"/><path class="cls-3" d="M649.13,683.48c28.48,24.49,86.1,32.59,133.52,63.86C739.24,701.22,686.49,685.62,649.13,683.48Z"/><path class="cls-3" d="M566.39,717.65c25,33.45,84.14,70.52,124.21,79.68C663.68,783,590.93,724.83,566.39,717.65Z"/><path class="cls-3" d="M592.16,862.22c-21-20.08-35.79-60.8-54.37-85.48-1.54-2-31-38.72-22.83-22.66,5.82,11.41,14.91,24,18.52,35.85C542.84,820.74,560.4,848.2,592.16,862.22Z"/><path class="cls-3" d="M514.92,672c30.82-18.55,32.45-121.37,43.58-154.72C528.55,572.94,522.75,650.85,514.92,672Z"/><path class="cls-3" d="M410.13,779.05c27.21,41.43,19.38,103.26,69.79,134.79C452.42,889.74,451.79,813.27,410.13,779.05Z"/><path class="cls-3" d="M455.14,519.65c-24.94,73-12.11,94.74-23.1,156.71C448.27,654.66,449.06,575.94,455.14,519.65Z"/><path class="cls-3" d="M282.24,833.09c1,86.87,47.66,137.87,95.49,176.83C330.45,954.78,305.55,907.8,282.24,833.09Z"/><path class="cls-3" d="M384.49,491.7c-16.56,21.52-48.76,98.49-56.45,175C335.08,622.11,378.08,536.5,384.49,491.7Z"/><path class="cls-3" d="M279.84,1023.49C256.19,990,212,923.57,188.46,864.17,186.22,912.49,233.7,997,279.84,1023.49Z"/><path class="cls-3" d="M251.14,512c-39.52,91.42-15.92,176.69-21.39,195.76C245.2,666.32,243.92,553.43,251.14,512Z"/><path class="cls-3" d="M112.11,725.42c25.84-53,34-212.45,47.5-267.52-28.75,77.62-50.89,138.16-46.58,227C113.24,689.27,111,727.76,112.11,725.42Z"/><path class="cls-3" d="M72.93,841c-4.93-5.31,5,15.13,5.46,17.92,12,70,24.2,99.14,53.4,163.13C111.68,978,96.55,866.48,72.93,841Z"/><path class="cls-3" d="M0,1052.81q4.65,4.11,9.64,8.37c-2.94-4.76-6.18-9.85-9.64-15.2Z"/><path class="cls-3" d="M3,675.54c43-97.48,39.39-199.63,65.06-257.79C26.85,473.61,25.32,587.08,3,675.54Z"/><path class="cls-4" d="M180.47,758.64C122.85,911.7,204.39,998.6,281.89,1080h17.32c-64.64-81.93-158.65-161.35-119-316.83C180.3,761.68,180.36,760.16,180.47,758.64Z"/><path class="cls-4" d="M490.77,1080C326.77,967.15,355.67,840,274,750.56c-.6,3.55-1.13,7.07-1.64,10.57,62.95,88.43,35.2,208.56,215.42,318.9Z"/><path class="cls-4" d="M388.15,741.66c-3.85-3.18-7.9-6.35-12.19-9.52,3.24,165.58,84.66,268,243.2,282C477.5,986.69,398.9,892.1,388.15,741.66Z"/><path class="cls-4" d="M479.09,708.65c-23.16,112.91,82.5,170,225.52,252.43-145.22-91.23-227-172-222.5-250.48C481.11,710,480.11,709.29,479.09,708.65Z"/><path class="cls-4" d="M640.13,640.17C469.62,724.87,236.89,753.45,0,759.18v16.53C239,770,474.28,741,647.45,655Z"/><path class="cls-4" d="M550.3,696q-3.69-2.5-7.25-5.06c18.73,119.91,92.5,79.34,254.26,225.4C712.47,808.39,583.21,798,550.3,696Z"/><path class="cls-4" d="M146.81,1080C73.94,962.16,50.19,869.41,46.59,765.47c-20.22,101,4.87,201.41,87.51,314.56Z"/><path class="cls-4" d="M0,1002v26.13c12.62,18.05,25,35.38,35.89,52h10.5C33.4,1056,16.92,1029.66,0,1002Z"/><path class="cls-3" d="M595.16,644.71c-.51,1.16-.73,3.16-1.29,3.77,32.39-35.69,38.75-75.44,51.66-121.09C632.6,536.38,604.43,623.71,595.16,644.71Z"/><path class="cls-4" d="M509.26,700c-26.13-56.11,19.4-112.51,76.73-299.6C516.33,577,467.43,640.72,509.26,700Z"/><path class="cls-4" d="M572.32,678.63c4.24-23.58,61.73-133.9,97.24-253.13C587.9,620.22,561.17,656.56,572.32,678.63Z"/><path class="cls-4" d="M434.3,719.9c-40.58-81.56-7.15-182.16,67.8-334.14C402.13,552.64,378.14,674.49,434.3,719.9Z"/><path class="cls-4" d="M331.28,740.71c-67.53-107.58,66.94-277.4,78.83-414C390.07,457.82,236.25,643.26,331.28,740.71Z"/><path class="cls-4" d="M226.89,755.18C204.77,606.05,205.21,514.39,314.57,340,206,480,165.75,591.85,226.89,755.18Z"/><path class="cls-4" d="M108.05,762.25c-24.16-141.4-7.26-260.58,115.59-451.78C121.22,457.09,41.86,571.24,108.05,762.25Z"/><path class="cls-4" d="M0,557.15v67.26C20,522.87,41.73,409.78,116.29,293.55,49.69,381.85,18.63,471.44,0,557.15Z"/><path class="cls-4" d="M0,260.46v14.2L1.52,272a335,335,0,0,1,24.13-42.42C17.2,238.83,8.61,249.2,0,260.46Z"/><path class="cls-4" d="M603.27,666.64c33.93,64.49,56.29,47.1,236,114.41C753.69,731.23,636,707.62,603.27,666.64Z"/><path class="cls-4" d="M638.81,638.25A137.5,137.5,0,0,0,621,655.69c32.1,9.55,153.34-16.18,269.76-100.77C755.67,629.3,673.32,656,638.81,638.25Z"/><path class="cls-5" d="M359.21,396.54c84.52-57.22,131-131.86,132.34-155.57C458.51,253.19,414.26,293.38,359.21,396.54Z"/><path class="cls-5" d="M503.13,231.82c-9.31,45.45-28.29,63.58,19.32,185C521,280.73,538,270,503.13,231.82Z"/><path class="cls-5" d="M326.31,217.8c139.24,30.07,174.85,11.8,192.29-3.73C506.58,201.31,475.89,210.35,326.31,217.8Z"/><path class="cls-5" d="M329.74,156c131,22.22,181.57,40.48,218.34,21.17C518.65,135,464.34,152.19,329.74,156Z"/><path class="cls-5" d="M533.89,197.52c15.52,54.67,10.82,130.17,88.92,224C564.47,278.37,609.33,239,533.89,197.52Z"/><path class="cls-5" d="M561.13,159.14c16.33,74,70.73,93.12,113.9,211.37C654.57,255.21,642,171,561.13,159.14Z"/><path class="cls-5" d="M579.46,132C562.73,83.57,475.67,70.15,340.24,96.52,460.37,93.47,523.13,132.63,579.46,132Z"/><path class="cls-5" d="M731.06,326.34C760,217.21,711.35,138.18,601.71,96,635.75,210.32,726.71,176.39,731.06,326.34Z"/><path class="cls-5" d="M323,20.9C444.6,75.22,554,38.57,618.21,68.31,576.17-18.6,415.35,39.21,323,20.9Z"/><path class="cls-5" d="M810.65,276.72c4.67-145.09-53.47-222.65-172-244.23C680.42,112.13,779.07,120.91,810.65,276.72Z"/><path class="cls-5" d="M624.53.1c9.11,1.08,18.57,1.81,28.54,2.09-.83-.71-1.66-1.4-2.49-2.09Z"/><path class="cls-5" d="M886,172.41C851.09,116.49,829.77,40.54,770.51.1H719.25C788.41,53.4,840.89,155.61,886,172.41Z"/><path class="cls-5" d="M879,.1H834c30.81,20.79,62,43.39,97.51,85.84C914.46,52.91,897,24.43,879,.1Z"/><path class="cls-3" d="M465.51,262.67c-11.83,2.77-78,94.93-78,94.93C418,334.12,482.53,258.69,465.51,262.67Z"/><path class="cls-3" d="M513.63,370.93c-9.4-39.17-.89-79.56-10.34-104.46C495.69,291.9,493.36,330.85,513.63,370.93Z"/><path class="cls-3" d="M546.06,219.54c-1.14,18.1,20.09,80.67,23.14,102.08C572.77,292.68,562.33,244.28,546.06,219.54Z"/><path class="cls-3" d="M602.21,215.05c-7.05-5.28-13.23-14.37-19.44-21-8.73-9.33,8.61,19.19,9.6,20.71,12,18.35,35.56,38,43.88,56.89C634.57,247.07,620.5,228.73,602.21,215.05Z"/><path class="cls-3" d="M414.35,165.9c24.92.63,93.89,24.37,113.7,8.29C512,174.3,458.69,159.36,414.35,165.9Z"/><path class="cls-3" d="M697.78,209.25c-8.85-41.23-52-50.94-73-79.09C637.51,166.2,688.35,185.09,697.78,209.25Z"/><path class="cls-3" d="M440.87,97.53c39,9.54,91.7,28,110.09,22.44C507,112.33,495.57,98.52,440.87,97.53Z"/><path class="cls-3" d="M691.67,57.91c44.19,33.59,69.51,61.54,94.87,106.38C772.1,123,749.35,79.57,691.67,57.91Z"/><path class="cls-3" d="M569.64,48.28c-52.88-13.35-112-10.46-130.34-4.62C470.73,50.21,538.19,42.2,569.64,48.28Z"/><path class="cls-3" d="M735,2.87c33.94,30,67.54,75.55,84.18,99.42C812.7,65.12,767.81,13.05,735,2.87Z"/><path class="cls-3" d="M850.68.1C851.87,1.16,853,2.2,854,3.22L850.85.1Z"/><path class="cls-6" d="M886,172.41C851.09,116.49,829.77,40.54,770.51.1H752.33C820.61,43.85,838.41,127.47,886,172.41Z"/><path class="cls-6" d="M810.65,276.72C785.09,108.66,691.93,100.32,646.07,34c-2.47-.51-4.94-1-7.46-1.46C680.42,112.13,779.07,120.91,810.65,276.72Z"/><path class="cls-6" d="M601.71,96q1.6,5.43,3.4,10.43C702.84,150,747,225.23,731.06,326.34,760,217.21,711.35,138.18,601.71,96Z"/><path class="cls-6" d="M675,370.51C654.57,255.21,642,171,561.13,159.14c.19.84.39,1.66.58,2.49C615.12,177.54,649.25,251.62,675,370.51Z"/><path class="cls-6" d="M662,.1H643.66C595.85,98.24,540.44,185.7,474.94,248.25l11.39,12C555,194.65,612.61,102.77,662,.1Z"/><path class="cls-6" d="M622.81,421.53c-58.34-143.16-13.48-182.56-88.92-224q.84,3,1.61,6.06C595.56,250.15,571.3,338.88,622.81,421.53Z"/><path class="cls-6" d="M866.38.1c21.12,23.84,42.58,52,65.13,85.84C914.46,52.91,897,24.43,879,.1Z"/><path class="cls-3" d="M490.47,221.11c-16.25,1.11-81.29-1.19-90.41,5.26,33.56,2.42,61.6,7.77,93.23-5.21C492.75,221.39,491.36,221.05,490.47,221.11Z"/><path class="cls-6" d="M548.08,177.17c-29.43-42.21-83.74-25-218.34-21.17C468.36,162.94,517,146.19,548.08,177.17Z"/><path class="cls-6" d="M518.6,214.07c-12-12.76-42.71-3.72-192.29,3.73C414.39,222.91,501.86,211.2,518.6,214.07Z"/><path class="cls-6" d="M579.46,132C562.73,83.57,475.67,70.15,340.24,96.52,459.7,83.23,534.86,85.23,579.46,132Z"/><path class="cls-6" d="M618.21,68.31C576.17-18.6,415.35,39.2,323,20.9,417,46,562.77-2.71,618.21,68.31Z"/><path class="cls-6" d="M649.18.1l3.89,2.09c-.83-.71-1.66-1.4-2.49-2.09Z"/><path class="cls-6" d="M503.13,231.82c19.42,31.73,6.75,115.91,19.32,185C521,280.73,538,270,503.13,231.82Z"/><path class="cls-6" d="M359.21,396.54c84.52-57.21,131-131.86,132.34-155.57a97.4,97.4,0,0,0-15.93,7.69C479.14,276,441.43,324.44,359.21,396.54Z"/><path class="cls-2" d="M401.28,201.34c25.4,21.84,146.57,47.89,287.38,18.25C530.14,174.33,446,179.82,401.28,201.34Z"/><path class="cls-2" d="M380.66,204.11c4.62,72.73,32.13,66,168.62,200.85C472.84,237.73,435.87,239.2,380.66,204.11Z"/><path class="cls-2" d="M539.69,11.11C385.59,155.46,346.35,177.71,347.51,202.4,380.34,199.94,433.76,181.73,539.69,11.11Z"/><path class="cls-2" d="M442.6.1H425.36C321.43,97,269,134,281.22,196.14,331,179.72,361,122.66,442.6.1Z"/><path class="cls-2" d="M455.73,511.32C437.11,340.2,356,271,315.76,201.7,283.86,318.79,367.76,311.91,455.73,511.32Z"/><path class="cls-2" d="M250.15,191.71c-67.28,93.6,5.85,188.84,102.7,322.55C275.26,354.64,309.14,280.73,250.15,191.71Z"/><path class="cls-2" d="M287,.1C210.9,73.53,181.45,138,204.67,183.69,245.13,142.76,267.73,77.91,323.07.1Z"/><path class="cls-2" d="M146.43,171C81.72,323.47,114.21,450.18,253.16,527.8,105.42,376.47,228.93,317.51,146.43,171Z"/><path class="cls-2" d="M160.17.1c-47.56,50.81-78.94,103.52-58,160.48C120.42,108.05,173.3,61.52,227.63.1Z"/><path class="cls-2" d="M45.84,146.17Q14,193.86,0,240.67V382.45c18.13,59.16,59.37,118.06,124.89,177.42C-2.13,375.19,85.63,266.58,45.84,146.17Z"/><path class="cls-2" d="M28.51.1C13.3,37.76,4.12,80.74,1,131.14,40.86,87.48,64,45.05,88.66.1Z"/><path class="cls-3" d="M621.42,210.18s-158.22-23.26-172.63-14C428.09,209.55,567.75,218.06,621.42,210.18Z"/><path class="cls-3" d="M511.41,351.06c-20.78-59.83-62.55-95.62-95.78-112.84C431.62,272.21,480.9,303.14,511.41,351.06Z"/><path class="cls-3" d="M326.15,235.6c9.14,40.74,48,98.75,80.82,123.47C388.25,335,345.61,252.18,326.15,235.6Z"/><path class="cls-3" d="M290.6,378.08c-11-26.9-7.82-70.12-14.69-100.23-.57-2.5-12.5-48-11.58-30,.65,12.8,3.81,28,2.25,40.3C262.53,320.07,267.34,352.31,290.6,378.08Z"/><path class="cls-3" d="M297.83,172.92c35.7-4.34,79.2-97.52,103-123.4C350.75,88.07,313.62,156.8,297.83,172.92Z"/><path class="cls-3" d="M167.07,379.33c-15.25-33.23,15.41-103.28-8.62-151.53C166.35,276.73,133.94,330,167.07,379.33Z"/><path class="cls-3" d="M305.51,9.42C252.93,65.85,255.75,91,220.4,143,244.08,129.85,277,58.32,305.51,9.42Z"/><path class="cls-3" d="M34.53,425.27c-20.61-69.64-24.15-122.7-14.89-200.41C-14.93,304.56,6.8,370.17,34.53,425.27Z"/><path class="cls-3" d="M214.31.1h-15c-23.8,24.65-49.91,56.82-69.87,91.61C145.69,66.76,183.51,31.92,214.31.1Z"/><path class="cls-3" d="M61.19.1C38.93,42.77,30.84,79.63,23,89,39.25,72.45,59.39,36,78.26.1Z"/><path class="cls-4" d="M124.89,559.87c-127-184.68-39.26-293.29-79-413.7-2,3-3.92,6-5.82,9C62.37,266.68-20.44,369.3,124.89,559.87Z"/><path class="cls-4" d="M146.43,171C81.72,323.47,114.21,450.18,253.16,527.8c-118.07-83-151.16-201.41-99.5-343.12Q150.34,178,146.43,171Z"/><path class="cls-4" d="M250.15,191.71c-67.28,93.6,5.85,188.84,102.7,322.55C257.57,371.65,215.91,264.47,252.11,194.73,251.46,193.73,250.82,192.72,250.15,191.71Z"/><path class="cls-4" d="M425.75,211.53,425.11,195C295,200.24,149.14,169.63,0,120.48v17.37C149,186.56,295,216.78,425.75,211.53Z"/><path class="cls-4" d="M315.76,201.7c-31.9,117.09,52,110.21,140,309.62-33.32-133.21-147-195.55-135.41-302C318.75,206.74,317.22,204.22,315.76,201.7Z"/><path class="cls-3" d="M382.21,180.79c-.93.84-1.95,2.57-2.71,2.91,44.15-19.35,66.18-53,96.63-89.41C460.65,97.21,399.26,165.4,382.21,180.79Z"/><path class="cls-4" d="M425.36.1C321.43,97,269,134,281.22,196.14c-.82-54.85,49.84-86.92,151-196Z"/><path class="cls-4" d="M539.69,11.11C385.59,155.46,346.35,177.71,347.51,202.4,361,182.62,458.56,105.42,539.69,11.11Z"/><path class="cls-4" d="M287,.1C210.9,73.53,181.45,138,204.67,183.69,202.12,121.05,235.24,64.5,298.67.1Z"/><path class="cls-4" d="M160.17.1c-47.56,50.81-78.94,103.52-58,160.48C94.07,103.17,129.72,51.12,177.18.1Z"/><path class="cls-4" d="M1,131.14C14.9,81.48,28.5,39,47.22.1H28.51C13.3,37.76,4.12,80.74,1,131.14Z"/><path class="cls-4" d="M380.66,204.11c4.62,72.72,32.13,66,168.62,200.85C491.56,324.52,393.8,254.89,380.66,204.11Z"/><path class="cls-4" d="M424.7,192.72a138.67,138.67,0,0,0-23.42,8.62c25.4,21.84,146.57,47.89,287.38,18.25C535,232.31,448.93,223.05,424.7,192.72Z"/><path class="cls-2" d="M856.71,495.9C805.63,493.44,723.66,522,591.46,628.47,736.9,600.1,841.38,526.8,856.71,495.9Z"/><path class="cls-2" d="M798,748.38c75.38-182.64,104.17-187.29,79.39-258.12C839.09,545.68,803.44,559.12,798,748.38Z"/><path class="cls-2" d="M908.14,475.35c-8.8-23.89-54.94-29.25-259-104.37C818.05,490.33,876,486.18,908.14,475.35Z"/><path class="cls-2" d="M688.87,290.38C851.29,394.59,908.4,447.71,968.5,442.82,953.19,369.71,870.84,361.83,688.87,290.38Z"/><path class="cls-2" d="M938,462c-10.35,81.84-59.56,180-8.6,349.8C932.84,587.34,1015.18,560.21,938,462Z"/><path class="cls-2" d="M996.19,426.16c-20.25,108.1,41.53,164.61,32,347.12C1066.37,607.62,1097.54,488,996.19,426.16Z"/><path class="cls-2" d="M736.73,216.9c162.21,64.23,223.77,152.23,299.38,183.42C1041.3,326.12,932.64,258.68,736.73,216.9Z"/><path class="cls-2" d="M1086.27,364.94c-19.5,172,121.29,178.43,41.84,381.2C1228.78,616.8,1208.78,483.59,1086.27,364.94Z"/><path class="cls-2" d="M1124.09,337.28c-6.74-140-254.44-154.23-367.34-231.18C888.24,247.79,1055.17,261,1124.09,337.28Z"/><path class="cls-2" d="M1171.71,301c10.56,130.17,137.34,198,90.93,424.09C1351.39,534,1317.82,397.29,1171.71,301Z"/><path class="cls-2" d="M833.86,43.47c203.69,72,242.09,164.58,374.39,225.31C1128.09,108.07,1015.55,60,833.86,43.47Z"/><path class="cls-2" d="M1422.63,628.63c-21.35-135.94,18.46-311.21-179.18-392.41C1356.43,327.7,1359.77,569,1422.63,628.63Z"/><path class="cls-2" d="M1093.75,0H989.5C1121.16,67.35,1196.66,158.26,1297,184.18,1242.74,81.82,1174.78,30.14,1093.75,0Z"/><path class="cls-2" d="M1342.55,140.13c51.86,197.94,135.68,219.73,190,398.86C1517.11,330.31,1454.67,209.22,1342.55,140.13Z"/><path class="cls-2" d="M1283.05,0h-91.17c57.65,35.6,117.8,65.47,210.31,80.14C1363.59,56,1324.67,27.88,1283.05,0Z"/><path class="cls-2" d="M1618.16,433.73C1596.79,297.79,1636.61,122.52,1439,41.31,1552,132.8,1555.29,374.1,1618.16,433.73Z"/><path class="cls-2" d="M1597.32,0h-55.21c14.09,53.42,46.42,86.61,81.65,128.51v-98C1615,19.93,1606.15,9.77,1597.32,0Z"/><path class="cls-3" d="M809.59,510.09c-17.39-3-158.13,82.48-158.13,82.48C705.52,578.52,834.57,514.44,809.59,510.09Z"/><path class="cls-3" d="M812.3,682.07c9.71-57.68,44.06-106.79,45.59-145.43C833.28,566.3,808,617,812.3,682.07Z"/><path class="cls-3" d="M914.58,647.79c21.21-36.62,34.8-107.22,27.13-149.52C929.9,521.81,922.67,617.46,914.58,647.79Z"/><path class="cls-3" d="M1019.27,524.2c-6.41-11.05-9.5-26.72-14-39.12-6.34-17.43.59,30.52,1,33.11,5.56,31.32,25.87,71,26.26,101C1044.29,585.38,1035.92,552.87,1019.27,524.2Z"/><path class="cls-3" d="M796.27,351.72c32.93,15,111.56,85.95,147.17,75.74C922,418.51,859.21,368.2,796.27,351.72Z"/><path class="cls-3" d="M1097.64,423.61c-3.45,55.41,53.74,109.56,52.6,147.19C1161.86,510.69,1109.77,473.19,1097.64,423.61Z"/><path class="cls-3" d="M1004.88,368.05c-54.41-35.21-61.8-60.15-134.3-92.58C917.27,310.4,977.14,365.06,1004.88,368.05Z"/><path class="cls-3" d="M1228.12,365.16c39.94,70,57.87,121.74,66.24,196.06C1298.57,497.84,1292.87,426.9,1228.12,365.16Z"/><path class="cls-3" d="M899.1,202.62c38.26,26.61,132.95,54.28,171.49,80.28C1007.55,235,926.94,205.24,899.1,202.62Z"/><path class="cls-3" d="M1317.36,316.3c28.27,59.42,47.26,139.32,55.92,180.68C1385.7,443.63,1355.35,348.53,1317.36,316.3Z"/><path class="cls-3" d="M1008,116.35c36.32,23.67,120.49,103.85,162.53,121.27C1152.27,228.36,1104.58,150.73,1008,116.35Z"/><path class="cls-3" d="M1235.19,133.63c-63.9-65.58-125.07-91.38-203.74-124.2,51,28.5,176.83,134.2,234.94,152C1269,162.18,1238.35,136.87,1235.19,133.63Z"/><path class="cls-3" d="M1390.67,229.69c-1.76-2.31-10.21-24.13-9.67-16.68,2.61,35.66,76,125.33,95.12,171.42C1448.39,317.51,1435,287.8,1390.67,229.69Z"/><path class="cls-3" d="M1540.51,130.34c17.38,36.83,35.9,135.25,50.82,189.48C1595.21,229.53,1582.3,188.66,1540.51,130.34Z"/><path class="cls-3" d="M1560.35,0h-4.13c6.42,46,39.71,85.24,67.54,113.66V96.73C1599.8,62.1,1572.8,23.78,1560.35,0Z"/><path class="cls-3" d="M1212.89,0c28.11,16.7,58.74,32.48,92.46,44.19-23.34-12.85-47-28.37-70.61-44.19Z"/><path class="cls-4" d="M1422.63,628.63c-21.35-135.94,18.46-311.21-179.18-392.41,1.21,1,2.4,2,3.59,3C1429.68,339,1372.55,513.93,1422.63,628.63Z"/><path class="cls-4" d="M1180.84,307.22c-3-2.08-6-4.15-9.13-6.19,10.56,130.17,137.34,198,90.93,424.09C1324.06,486.08,1204.37,422,1180.84,307.22Z"/><path class="cls-4" d="M1086.27,364.94q-.91,8.18-1.38,15.86c105.82,113.69,121.95,239.31,43.22,365.34C1228.78,616.8,1208.78,483.59,1086.27,364.94Z"/><path class="cls-4" d="M996.19,426.16c-.23,1.23-.44,2.44-.64,3.65,62.29,51.63,65.76,170,32.59,343.47C1066.37,607.62,1097.54,488,996.19,426.16Z"/><path class="cls-4" d="M1490,0h-25.69C1268.85,213,1049,416.62,831.24,498.56l6.68,17.72C1063.63,431.36,1290.1,219.2,1490,0Z"/><path class="cls-4" d="M929.37,811.75c3.47-224.41,85.81-251.54,8.6-349.8q-.57,4.47-1.29,9C990.42,567.31,907.56,672,929.37,811.75Z"/><path class="cls-4" d="M1342.55,140.13c93,92.81,152,196.65,190,398.86C1517.11,330.31,1454.67,209.22,1342.55,140.13Z"/><path class="cls-4" d="M1618.16,433.73c-57.42-81.82-33.53-306.15-179.19-392.42C1552,132.8,1555.29,374.1,1618.16,433.73Z"/><path class="cls-4" d="M1597.32,0h-24.2c15.74,22.7,33.22,45.15,50.64,68.82V30.55C1615,19.93,1606.15,9.77,1597.32,0Z"/><path class="cls-3" d="M742.79,424.38c43.46,22.31,77.87,45.41,127.51,46.06-.86,0-2.52-1.25-3.75-1.68C844.21,461,758.64,420.94,742.79,424.38Z"/><path class="cls-4" d="M688.87,290.38c181.23,88.1,255.69,93.37,279.63,152.44C953.19,369.71,870.84,361.83,688.87,290.38Z"/><path class="cls-4" d="M649.15,371c114.76,56.92,238.25,91,259,104.37C899.34,451.46,853.2,446.1,649.15,371Z"/><path class="cls-4" d="M736.73,216.9c167.12,50.18,266.39,95.59,299.38,183.42C1041.3,326.12,932.64,258.68,736.73,216.9Z"/><path class="cls-4" d="M1124.09,337.28c-6.74-140-254.44-154.23-367.34-231.18C868.07,193,1090.41,210.89,1124.09,337.28Z"/><path class="cls-4" d="M1208.25,268.78C1128.09,108.07,1015.55,60,833.86,43.47,1042,83.45,1111.41,147.45,1208.25,268.78Z"/><path class="cls-4" d="M1093.75,0H1051c114.61,42.52,183.28,101.94,246,184.18C1242.74,81.82,1174.78,30.14,1093.75,0Z"/><path class="cls-4" d="M1283.05,0h-23.79c49.29,30.57,95.38,59.61,142.93,80.14C1363.59,56,1324.67,27.88,1283.05,0Z"/><path class="cls-4" d="M877.38,490.26C885.28,543.7,820.48,649,798,748.38,873.37,565.74,902.16,561.09,877.38,490.26Z"/><path class="cls-4" d="M856.71,495.9a142.23,142.23,0,0,0-25.66,1.22c-10.82,38.49-88.77,81.79-239.59,131.35C736.9,600.1,841.38,526.8,856.71,495.9Z"/><path class="cls-5" d="M1078.63.1H1077c117.7,114.42,194.15,149.33,243.65,151.59C1308.71,120.6,1215.37,41,1078.63.1Z"/><path class="cls-5" d="M1319.44.1H1285c4.28,94.57,30.1,114.23,55.14,158.92C1363.85,107.34,1352.36,91.65,1319.44.1Z"/><path class="cls-5" d="M1368.5,176.24c-30.07-13.4-85.74-22.69-259.89,77.34C1312.72,199.52,1357.82,198.53,1368.5,176.24Z"/><path class="cls-5" d="M1423.9,213.18c-57.66-10.2-117.7,36-284.22,121.94C1322.12,282.59,1402.44,282.47,1423.9,213.18Z"/><path class="cls-5" d="M1422.18.1H1383.7c-6.13,79.56,10.76,139.77,12.43,191.81C1455.76,129.14,1433.59,94,1422.18.1Z"/><path class="cls-5" d="M1524.39.1h-24.68C1479.2,101,1441.58,149,1449.16,231.8,1530,192.37,1536.05,111.5,1524.39.1Z"/><path class="cls-5" d="M1485.4,260.42c-75.93,23.27-143.47,102.75-306.13,150.1C1372.47,387.94,1483.67,332.63,1485.4,260.42Z"/><path class="cls-5" d="M1530.68,299.19c108-86.51,147.66-189.35,108-299.09h-19.59C1632.91,138.68,1527.86,151.58,1530.68,299.19Z"/><path class="cls-5" d="M1564.72,329.37c-73.57,67.47-236.16,65.06-376.18,190.08C1304.7,455.34,1545.47,464.12,1564.72,329.37Z"/><path class="cls-5" d="M1744.77.1h-8.25c8.75,195.45-108.14,250.2-129,368.65C1748.74,293.63,1796.77,174.78,1744.77.1Z"/><path class="cls-5" d="M1639.86,403.26C1506.43,449.92,1460.87,536,1257.4,587,1434.56,587.63,1547.74,551.34,1639.86,403.26Z"/><path class="cls-5" d="M1670.93,437.94c40.83-12.45,72.3-29.68,96.83-50.31V309.92C1743.24,362.16,1713,410,1670.93,437.94Z"/><path class="cls-5" d="M1718,493.12c-124.92,20-221.22,142.93-428.5,184C1468.12,668.82,1607,662.08,1718,493.12Z"/><path class="cls-5" d="M1758,539.86c3.29-1.63,6.53-3.3,9.75-5V514.54C1764.48,522.62,1761.23,531,1758,539.86Z"/><path class="cls-5" d="M1767.76,607.51c-167.89,23.1-229,112.48-426.23,165,183.86-1.81,310.62-83.61,426.23-146.81Z"/><path class="cls-5" d="M1767.76,718.94C1616.38,774.6,1480.16,875,1346.1,883.36c111.17,9.19,295.29-24.65,421.66-98.29Z"/><path class="cls-5" d="M1692.33,966.88a367.23,367.23,0,0,1,75.43-50.44V875.7C1743.84,896.16,1719.39,924.91,1692.33,966.88Z"/><path class="cls-3" d="M1131,39.56s128.28,95.47,145.37,94.13C1300.94,131.75,1182,58.06,1131,39.56Z"/><path class="cls-3" d="M1299.48.1H1292c-.23,47.8,16.21,86.93,33.54,112.31C1327.13,82.23,1308.85,43.57,1299.48.1Z"/><path class="cls-3" d="M1390.42,10.1c5.07,30.07,3.35,123.2,12.63,147C1414.31,116.93,1407.6,47.44,1390.42,10.1Z"/><path class="cls-3" d="M1463.28,175.67c5.5-11.58,9.91-26.45,17.11-36.56,18.71-26.2,29.76-56.86,21.5-90.59-3.11,28.89-26.36,65.45-34.58,95.23C1466.63,146.21,1455.55,191.94,1463.28,175.67Z"/><path class="cls-3" d="M1249.1,285.59c62.35-10.21,127.62-53.14,149.17-59.84C1364.78,212.64,1282.31,274.07,1249.1,285.59Z"/><path class="cls-3" d="M1547,243.5c16.23-46.84,70-78.35,64.24-137.52C1608.93,142.47,1548.72,189.62,1547,243.5Z"/><path class="cls-3" d="M1452.28,288.78c-27.1.36-90,47.76-138.28,77.28C1387.05,341.31,1396.46,317.87,1452.28,288.78Z"/><path class="cls-3" d="M1667.85,311.88c68.21-53.8,80.17-121.87,81.88-183.53C1734.87,199.44,1712.83,247.84,1667.85,311.88Z"/><path class="cls-3" d="M1508.06,377.08c-39.63,21.62-133.69,39.76-173.1,62C1362.1,439.09,1442.75,417.66,1508.06,377.08Z"/><path class="cls-3" d="M1767.76,333.62c-5.73,11.7-11.78,23-18.08,33.61a99.86,99.86,0,0,0,18.08-16.86Z"/><path class="cls-3" d="M1432.34,532.4C1528.9,508,1582.07,437.25,1600.51,430,1558.28,443,1469.62,512.83,1432.34,532.4Z"/><path class="cls-3" d="M1686.3,512.36c-57.8,11.89-189.1,102.64-241,125.55,79-24.57,140.52-43.95,208.27-101.53C1657,533.53,1688.85,511.84,1686.3,512.36Z"/><path class="cls-3" d="M1469.34,734.91c69.43-1.38,160.28-69.38,244-105.68C1609.82,654.6,1531.09,719.78,1469.34,734.91Z"/><path class="cls-3" d="M1767.76,742V728.64C1705.49,755.4,1632,805.05,1583.18,815c27.57,1.6,115-22.89,173.41-64.9C1760.32,747.42,1764,744.69,1767.76,742Z"/><path class="cls-6" d="M1674.68,435.34c-1.24.88-2.49,1.76-3.75,2.6,40.83-12.45,72.3-29.68,96.83-50.31V370.9C1745.28,395.78,1715.39,417.83,1674.68,435.34Z"/><path class="cls-6" d="M1616.85,363.6C1648.44,260.07,1760,208.77,1738.33.1h-1.81c8.75,195.45-108.14,250.2-129,368.65C1610.65,367.06,1613.77,365.33,1616.85,363.6Z"/><path class="cls-6" d="M1530.79,283.72q-.26,7.48-.11,15.47c108-86.51,147.66-189.35,108-299.09h-7.59C1658.65,104.11,1624.09,200.67,1530.79,283.72Z"/><path class="cls-6" d="M1448.87,228.21c.09,1.2.18,2.39.29,3.59C1530,192.37,1536.05,111.5,1524.39.1h-6.7C1519.62,115.16,1500,193.36,1448.87,228.21Z"/><path class="cls-6" d="M1767.76,563.8V537.85c-143.24-172.81-300.29-327-463.83-406.76L1296.68,146C1462.6,226.89,1622.37,386.3,1767.76,563.8Z"/><path class="cls-6" d="M1396.13,191.91c59.63-62.77,37.46-97.94,26-191.81H1414c7.19,69,18.34,129.74-18.28,183Q1396,187.54,1396.13,191.91Z"/><path class="cls-6" d="M1758,539.86c3.29-1.63,6.53-3.3,9.75-5v-3.19C1764.54,534.41,1761.3,537.14,1758,539.86Z"/><path class="cls-3" d="M1331.47,177.54c-48-3.89-83.42,15.32-127.47,32.93,15,4.77,101.39-26.18,123.7-31.65C1328.92,178.52,1330.64,177.47,1331.47,177.54Z"/><path class="cls-6" d="M1423.9,213.18c-28.53,54.92-101,53.25-284.22,121.94C1322.12,282.59,1402.44,282.47,1423.9,213.18Z"/><path class="cls-6" d="M1368.5,176.24c-21.26,11-143.76,32.75-259.89,77.34C1312.72,199.52,1357.82,198.53,1368.5,176.24Z"/><path class="cls-6" d="M1485.4,260.42c-39.88,81.92-140,116.79-306.13,150.1C1372.47,387.94,1483.67,332.63,1485.4,260.42Z"/><path class="cls-6" d="M1564.72,329.37c-44,119.14-260.64,116.17-376.18,190.08C1304.7,455.34,1545.47,464.12,1564.72,329.37Z"/><path class="cls-6" d="M1639.86,403.26C1535.19,511.75,1462.29,567.32,1257.4,587,1434.56,587.63,1547.74,551.34,1639.86,403.26Z"/><path class="cls-6" d="M1718,493.12c-97.31,105.4-202.06,164.7-428.5,184C1468.12,668.82,1607,662.08,1718,493.12Z"/><path class="cls-6" d="M1767.76,619.09c-119,49.42-241.25,137.52-426.23,153.4,183.86-1.81,310.62-83.61,426.23-146.81Z"/><path class="cls-6" d="M1767.76,765.64c-116.44,67.42-233.7,90.88-373.33,111a333.19,333.19,0,0,1-48.33,6.76c111.17,9.19,295.29-24.65,421.66-98.29Z"/><path class="cls-6" d="M1692.33,966.88a367.23,367.23,0,0,1,75.43-50.44V905.77C1743.14,919,1718.3,937.32,1692.33,966.88Z"/><path class="cls-6" d="M1319.44.1h-10.65c18.64,65.16,39.71,124.77,31.33,158.92C1363.85,107.34,1352.36,91.65,1319.44.1Z"/><path class="cls-6" d="M1296,148.18a139.46,139.46,0,0,0,24.7,3.51C1308.71,120.6,1215.37,41,1078.63.1h-.74C1218.11,61.4,1289,110.13,1296,148.18Z"/><path class="cls-2" d="M387,754.87c47.64-14,113.75-66.3,201.1-206.11C463.71,621.11,391.22,721.63,387,754.87Z"/><path class="cls-2" d="M360.44,504.55c-11,191.55-35.9,205,9.39,262.07C387.3,703.58,415.73,679.9,360.44,504.55Z"/><path class="cls-2" d="M617.2,803.34c-193-55.68-244.81-33.42-270.83-13.24C362.05,809.2,406.09,799.43,617.2,803.34Z"/><path class="cls-2" d="M301.36,839.16c37.33,62.2,115.38,43.19,305.08,50.78C424.24,846.08,354.93,815.54,301.36,839.16Z"/><path class="cls-2" d="M323.27,811.9c-16.57-78.38-2.71-184.13-103.54-323.63C288,695.24,221.14,746.35,323.27,811.9Z"/><path class="cls-2" d="M141.38,555c17.69,164.15,27.22,283.85,139.88,308.26C265.4,757.65,190.73,725.5,141.38,555Z"/><path class="cls-2" d="M585.94,972.59c-169.26-7.26-253.78-68.37-333.07-72.89C271.75,969.41,392.91,996.67,585.94,972.59Z"/><path class="cls-2" d="M218.13,948.12c-36.91-164-168.1-125-159.82-336.36C7.17,762.47,68,878.3,218.13,948.12Z"/><path class="cls-2" d="M601.75,1080c-165.34-87.32-322.17-46.58-409.51-94.48,50.49,125.54,279.83,61.21,408.36,94.48Z"/><path class="cls-2" d="M0,840.23V940.67c37,44.94,90.47,75.64,160.11,93.3C126,956.62,53.37,921.11,0,840.23Z"/><path class="cls-2" d="M136.86,1075.2q2.5,2.44,5,4.83h30.29C160.87,1078,149.16,1076.38,136.86,1075.2Z"/><path class="cls-2" d="M0,1026.56V1080H53.28C34.42,1064.66,16.74,1046.33,0,1026.56Z"/><path class="cls-3" d="M425.71,726.84c16.92-2.76,118.79-126,118.79-126C499.38,630.91,401.4,730.81,425.71,726.84Z"/><path class="cls-3" d="M372.94,717.87c13.13-35,20.16-89.6-4.5-147.94C377.9,625.94,362,681.93,372.94,717.87Z"/><path class="cls-3" d="M285.53,634c-7.8,40.35,2.23,109.45,22.74,145.8C311.61,754.41,287.77,664.36,285.53,634Z"/><path class="cls-3" d="M254.18,812.11c11.38,14-10.26-27.81-11.51-30-15.08-27-46.36-57-56.26-84.26,0,34.72,18,61.87,42.45,82.87C238.26,788.78,246.09,802.17,254.18,812.11Z"/><path class="cls-3" d="M329.24,845.28c22.53,1.38,96.14,27.53,159.13,22.6C453.38,864.6,358.65,824.57,329.24,845.28Z"/><path class="cls-3" d="M189,897.92C174.51,846,104.82,814.54,93.88,779.66,102.36,838.5,162.09,856.3,189,897.92Z"/><path class="cls-3" d="M291.8,919.35c61.13,15,75.85,35.49,152.69,42.14C390.54,944.33,318.2,913.26,291.8,919.35Z"/><path class="cls-3" d="M0,897v21.36c19,29.45,46.4,55.88,87.92,74.79C50,960,22.89,930.91,0,897Z"/><path class="cls-3" d="M258.64,1018.39c73.1,23.86,156.52,25.48,182.89,19C398,1025.18,302.28,1030,258.64,1018.39Z"/><path class="cls-3" d="M0,1054.25a100.54,100.54,0,0,0,21.62,12.11C14.33,1059,7.1,1051,0,1042.68Z"/><path class="cls-4" d="M0,1080H14q-7.29-4.46-14-9.29Z"/><path class="cls-4" d="M149.76,1031.2c3.41,1,6.85,1.88,10.35,2.77C126,956.62,53.37,921.11,0,840.23v24.6C48.18,938.72,113.21,969.74,149.76,1031.2Z"/><path class="cls-4" d="M218.13,948.12q-1.75-7.79-3.79-15c-133.29-70.58-188.1-180.68-156-321.37C7.17,762.47,68,878.3,218.13,948.12Z"/><path class="cls-4" d="M280.69,859.71c-73.6-27.51-114.48-135-139.31-304.7,17.69,164.15,27.22,283.85,139.88,308.26C281.08,862.07,280.88,860.89,280.69,859.71Z"/><path class="cls-4" d="M408.91,743.59,398.35,730.9C295.54,816.47,205.73,940.26,126.44,1080h19C222.65,945.15,309.76,826.1,408.91,743.59Z"/><path class="cls-4" d="M323.27,811.9c-.6-2.86-1.16-5.76-1.69-8.68-80-71.27-37.34-193.74-101.85-315C288,695.24,221.14,746.35,323.27,811.9Z"/><path class="cls-3" d="M514.29,784.18c-47-6.61-85.91-16.85-131.65-1.63.8-.26,2.72.34,4,.34C409.58,782.89,500.84,792.39,514.29,784.18Z"/><path class="cls-4" d="M301.36,839.16c37.33,62.2,115.38,43.19,305.08,50.78C412.12,866.84,342.14,885.73,301.36,839.16Z"/><path class="cls-4" d="M617.2,803.34c-123.41-15.65-247.55-7.6-270.83-13.24C362.05,809.2,406.09,799.43,617.2,803.34Z"/><path class="cls-4" d="M585.94,972.59c-169.3,7.2-274.83-2.84-333.07-72.89C271.75,969.41,392.91,996.67,585.94,972.59Z"/><path class="cls-4" d="M601.09,1080c-129.93-43.21-338,10.26-408.85-94.48,50.49,125.54,279.83,61.21,408.36,94.48Z"/><path class="cls-4" d="M136.86,1075.2q2.5,2.44,5,4.83h2.69Q140.72,1077.65,136.86,1075.2Z"/><path class="cls-4" d="M360.44,504.55c-11,191.55-35.9,205,9.39,262.07C345.57,720.12,371.48,602.93,360.44,504.55Z"/><path class="cls-4" d="M588.1,548.76C463.71,621.11,391.22,721.63,387,754.87a138.82,138.82,0,0,0,23.15-9.3C407.82,706.82,465.53,642.27,588.1,548.76Z"/><path class="cls-5" d="M359.19,454.42c4.22,33.22,76.72,133.75,201.11,206.1C473,520.71,406.84,468.43,359.19,454.42Z"/><path class="cls-5" d="M342,442.66c-45.3,57.08-20.37,70.52-9.39,262.08C387.93,529.38,359.5,505.69,342,442.66Z"/><path class="cls-5" d="M318.56,419.18c26,20.17,77.88,42.44,270.83-13.24C378.28,409.85,334.24,400.07,318.56,419.18Z"/><path class="cls-5" d="M273.55,370.12c53.57,23.62,122.88-6.92,305.08-50.78C388.93,326.93,310.88,307.92,273.55,370.12Z"/><path class="cls-5" d="M191.92,721c100.83-139.5,87-245.25,103.55-323.63C193.33,462.93,260.23,514,191.92,721Z"/><path class="cls-5" d="M113.57,654.26c49.35-170.48,124-202.64,139.88-308.25C140.79,370.42,131.27,490.12,113.57,654.26Z"/><path class="cls-5" d="M225.06,309.58c79.3-4.52,163.81-65.63,333.08-72.9C365.1,212.61,243.94,239.87,225.06,309.58Z"/><path class="cls-5" d="M190.32,261.16C40.14,331-20.64,446.8,30.51,597.52,22.22,386.19,153.41,425.18,190.32,261.16Z"/><path class="cls-5" d="M164.44,223.73c87.52-48,244.86-7,410.62-95.06C447,163.29,215.22,97.45,164.44,223.73Z"/><path class="cls-5" d="M132.3,175.31C78.5,189,34.36,210.38,0,240.13v92.11C48.55,275.28,103.85,239.87,132.3,175.31Z"/><path class="cls-5" d="M109.05,134.08c140.71-13.55,205.45-86.3,415.22-87.43C352.34,3.89,233.78,12.19,109.05,134.08Z"/><path class="cls-5" d="M0,110.57v41.78C26.46,126,55.27,104.51,87.13,93,53.44,94.88,24.75,101.06,0,110.57Z"/><path class="cls-5" d="M219.66.1H87.54C76.61,8.61,65.63,17.94,54.59,28.21,107.9,32.56,160.61,17.83,219.66.1Z"/><path class="cls-5" d="M0,10.73C2.65,7.27,5.31,3.74,8,.1H0Z"/><path class="cls-3" d="M397.91,482.44c-24.32-4,73.66,95.92,118.78,126C516.69,608.47,414.82,485.2,397.91,482.44Z"/><path class="cls-3" d="M345.13,491.41c-10.9,35.94,5,91.93-4.5,147.94C365.29,581,358.26,526.46,345.13,491.41Z"/><path class="cls-3" d="M280.46,429.52C260,465.87,249.93,535,257.73,575.32,260,544.91,283.8,454.86,280.46,429.52Z"/><path class="cls-3" d="M226.37,397.17c-8.09,9.94-15.92,23.33-25.32,31.42-24.41,21-42.44,48.15-42.44,82.87,9.89-27.31,41.17-57.29,56.25-84.25C216.11,425,237.75,383.2,226.37,397.17Z"/><path class="cls-3" d="M301.43,364c29.41,20.71,124.14-19.32,159.13-22.6C397.57,336.47,324,362.62,301.43,364Z"/><path class="cls-3" d="M161.2,311.36C134.28,353,74.55,370.78,66.07,429.62,77,394.74,146.71,363.28,161.2,311.36Z"/><path class="cls-3" d="M264,289.93c26.41,6.09,98.74-25,152.7-42.14C339.85,254.44,325.13,275,264,289.93Z"/><path class="cls-3" d="M0,256.77v19c16.89-19.75,36.39-38.9,60.11-59.62C35.51,227.38,15.88,241.22,0,256.77Z"/><path class="cls-3" d="M230.83,190.89c43.64-11.57,139.32-6.8,182.89-19C387.36,165.41,303.93,167,230.83,190.89Z"/><path class="cls-3" d="M153.62,117.53c44.11-2.59,146.87-49.34,187.73-59.48C241.76,58.81,173.28,114.83,153.62,117.53Z"/><path class="cls-3" d="M185,.1H130.25l-2.86,1.42c-3.93,2-40.07,15.44-37.47,15.54C112.12,17.89,147.09,10.35,185,.1Z"/><path class="cls-6" d="M87.13,93C53.44,94.88,24.75,101.06,0,110.57v10.88c23.24-12.1,50.45-21.39,82.87-26.81C84.29,94.08,85.7,93.52,87.13,93Z"/><path class="cls-6" d="M132.3,175.31q-5.24,1.33-10.34,2.77C92.08,228.32,43.18,258.21,0,307.8v24.44C48.55,275.28,103.85,239.87,132.3,175.31Z"/><path class="cls-6" d="M186.53,276.15c1.35-4.81,2.62-9.79,3.79-15C40.14,331-20.64,446.8,30.51,597.52-1.56,456.83,53.24,346.73,186.53,276.15Z"/><path class="cls-6" d="M253.45,346C140.79,370.42,131.26,490.12,113.57,654.26c24.83-169.7,65.72-277.18,139.31-304.69C253.07,348.39,253.27,347.21,253.45,346Z"/><path class="cls-6" d="M370.55,478.38l10.55-12.69C251.28,357.65,142.1,187,48.66.1H30.21C125.33,191.55,237,367.21,370.55,478.38Z"/><path class="cls-6" d="M293.77,406.06c.53-2.93,1.09-5.82,1.7-8.68C193.33,462.93,260.23,514,191.92,721,256.43,599.8,213.79,477.33,293.77,406.06Z"/><path class="cls-3" d="M358.81,426.38c-1.26,0-3.18.61-4,.35,45.74,15.22,84.66,5,131.64-1.64C473,416.89,381.77,426.38,358.81,426.38Z"/><path class="cls-6" d="M273.55,370.12c40.78-46.57,110.77-27.68,305.08-50.78C388.93,326.93,310.88,307.92,273.55,370.12Z"/><path class="cls-6" d="M318.56,419.18c23.28-5.64,147.43,2.41,270.84-13.24C378.28,409.85,334.24,400.07,318.56,419.18Z"/><path class="cls-6" d="M558.14,236.68c-193-24.07-314.2,3.19-333.08,72.9C283.3,239.52,388.83,229.49,558.14,236.68Z"/><path class="cls-6" d="M164.44,223.73C235.59,118.51,445.25,173,575.06,128.67,447,163.29,215.22,97.45,164.44,223.73Z"/><path class="cls-6" d="M524.27,46.65C352.34,3.89,233.78,12.19,109.05,134.08,236.54,53.63,320.57,17,524.27,46.65Z"/><path class="cls-6" d="M87.54.1C76.61,8.61,65.63,17.94,54.59,28.21,69.92,18.06,85.19,8.68,100.64.1Z"/><path class="cls-6" d="M332.64,704.74c11-98.39-14.88-215.58,9.39-262.08C296.73,499.74,321.66,513.18,332.64,704.74Z"/><path class="cls-6" d="M359.19,454.42c4.22,33.22,76.72,133.75,201.11,206.1C437.72,567,380,502.46,382.35,463.71A138.29,138.29,0,0,0,359.19,454.42Z"/><path class="cls-5" d="M855.62,1005.33c22,29.61,41.8,54.22,59.68,74.7H952C925.91,1060.2,894.14,1035.81,855.62,1005.33Z"/><path class="cls-5" d="M1087.15,1080c-35.34-33.48-92.62-72.7-170.51-137.07,46.9,57.54,81,102.67,108.55,137.07Z"/><path class="cls-5" d="M1199,1080c-25.69-56.58-99.73-122.85-215.93-190.42,85.15,70.8,127.55,138,163.56,190.42Z"/><path class="cls-5" d="M1280.52,1080h27C1297.15,969,1107.91,888.14,1035,793.42,1102.28,939.54,1222.1,1006.46,1280.52,1080Z"/><path class="cls-5" d="M1402.48,1080h0c-25.4-172.54-114.7-251-277.39-321.1C1291.31,886.91,1298.74,984,1402.48,1080Z"/><path class="cls-5" d="M1444.8,1060.63a177.64,177.64,0,0,1,10.82,19.4h10.14C1459.31,1073.53,1452.35,1067.06,1444.8,1060.63Z"/><path class="cls-5" d="M1510,1028.79C1475.59,829.58,1351,768,1190.43,689.13,1364.12,809.47,1403.39,960.58,1510,1028.79Z"/><path class="cls-5" d="M1565.31,1001.91a674.67,674.67,0,0,0-.43,78.12h49.87A328.66,328.66,0,0,0,1565.31,1001.91Z"/><path class="cls-5" d="M1638.47,964.57c-91.38-109.73-173.63-257.86-362.24-342.14C1449,759.42,1458.86,872.48,1638.47,964.57Z"/><path class="cls-5" d="M1684.16,939.86c24.89,38.54,34.32,88.18,37.07,140.17h50.25C1762.45,1032.44,1737.4,985.3,1684.16,939.86Z"/><path class="cls-5" d="M1733.47,912.42c-28.21-164.27-264.76-340.83-408.82-389.83C1472.19,598,1566.85,803.22,1733.47,912.42Z"/><path class="cls-5" d="M1805,869.38c-31.12,91-2.63,141.77,24.82,210.65h55.81C1870.11,997,1831.58,926.58,1805,869.38Z"/><path class="cls-5" d="M1675.45,584.14c27.53,168,88.34,183.11,181.15,256.85C1840.86,734.69,1738.87,716.11,1675.45,584.14Z"/><path class="cls-5" d="M1894.05,818.61c5.52,37.25,13.26,67.59,23.71,97V838.89C1910.67,832.29,1902.81,825.57,1894.05,818.61Z"/><path class="cls-3" d="M1052.38,1080c-16.33-17.5-35-35-55.17-48,10,9.19,23.73,28.13,38.91,48Z"/><path class="cls-3" d="M1088.84,984.13c21,29.85,44.47,68.9,65.16,95.9h9C1142.6,1048.46,1133,1024.26,1088.84,984.13Z"/><path class="cls-3" d="M1271.18,1051.45c-43.71-63.26-109.1-115.09-134-125.92C1164.45,961.65,1243.46,1015.81,1271.18,1051.45Z"/><path class="cls-3" d="M1377.05,1039.86c-14-14.06-34.55-100.11-113.33-161C1290.09,911.64,1343.52,1011.08,1377.05,1039.86Z"/><path class="cls-3" d="M1488.59,998.51c2.13,1.5-18.46-31.11-20.39-35.06-39.15-79.83-87.79-122.14-150.48-176.2C1356.14,829,1440.34,964.55,1488.59,998.51Z"/><path class="cls-3" d="M1579,1080h.89C1579.6,1079.3,1579.3,1079.2,1579,1080Z"/><path class="cls-3" d="M1758.62,1080c-2.09-8.72-4.66-17.75-7.67-27.31A209.19,209.19,0,0,1,1752,1080Z"/><path class="cls-3" d="M1807.29,926.59c-15.71,55.51,14.88,115.62,34.43,153.44h5.85C1833.28,1028.93,1808.41,954.16,1807.29,926.59Z"/><path class="cls-3" d="M1560,902.13c-62.26-66.68-118.43-165.28-181.54-194.25C1429,746.4,1475.2,837.58,1560,902.13Z"/><path class="cls-3" d="M1694.34,870.4c-21-16-33.19-39.57-46.45-61.84-36.81-61.82-107.2-119.16-133.11-128.7C1568.91,717.8,1634.86,837,1694.34,870.4Z"/><path class="cls-3" d="M1915.29,858.2c.61,4.42,1.43,9.52,2.47,15.08V862A35.67,35.67,0,0,0,1915.29,858.2Z"/><path class="cls-3" d="M1721.7,685.07c16.85,48.87,52.69,86.79,77.06,97.32C1786.38,753.82,1737.4,720.72,1721.7,685.07Z"/><path class="cls-6" d="M1465.76,1080c-6.45-6.5-13.41-13-21-19.4.83,1.27,1.61,2.57,2.41,3.88,4.86,5.18,9.4,10.35,13.67,15.52Z"/><path class="cls-6" d="M1917.76,794.63c-168.69,102.11-356.7,209.91-540.91,285.4h42.66c170.42-73.41,342.37-171.88,498.25-266Z"/><path class="cls-6" d="M1565.31,1001.91A636.18,636.18,0,0,1,1599,1080h15.76A328.66,328.66,0,0,0,1565.31,1001.91Z"/><path class="cls-6" d="M1684.16,939.86c24.89,38.54,34.32,88.18,37.07,140.17H1738C1734,1029.42,1719.78,980.52,1684.16,939.86Z"/><path class="cls-6" d="M1805,869.38c6.77,68.47,39.44,133.72,58.74,210.65h21.89C1870.11,997,1831.58,926.58,1805,869.38Z"/><path class="cls-6" d="M1917.76,838.89c-7.09-6.6-15-13.32-23.71-20.28a183.7,183.7,0,0,1,23.71,22.45Z"/><path class="cls-6" d="M1087.15,1080c-35.34-33.48-92.62-72.7-170.51-137.07,67.81,65.62,118.52,106,153.33,137.07Z"/><path class="cls-6" d="M855.62,1005.33c27.44,27,56.3,52.19,83.54,74.7H952C925.91,1060.2,894.14,1035.81,855.62,1005.33Z"/><path class="cls-6" d="M1199,1080c-25.69-56.58-99.73-122.85-215.93-190.42,102.11,71.1,171.23,128.76,202.29,190.42Z"/><path class="cls-6" d="M1300.08,1080h7.44C1297.15,969,1107.91,888.14,1035,793.42,1103.59,895.6,1271.48,973.49,1300.08,1080Z"/><path class="cls-6" d="M1125.09,758.93c180,99.82,224.69,179.86,277.39,321.1C1377.08,907.49,1287.78,829.06,1125.09,758.93Z"/><path class="cls-6" d="M1510,1028.79C1475.59,829.58,1351,768,1190.43,689.13,1390.38,797.15,1462.77,893.32,1510,1028.79Z"/><path class="cls-6" d="M1638.47,964.57c-91.38-109.73-173.63-257.86-362.24-342.14C1458.94,721.31,1533.52,871.75,1638.47,964.57Z"/><path class="cls-6" d="M1733.47,912.42c-28.21-164.27-264.76-340.83-408.82-389.83a334.77,334.77,0,0,1,41.63,25.48C1523.52,645.18,1643.26,732.28,1733.47,912.42Z"/><path class="cls-6" d="M1856.6,841c-15.74-106.3-117.73-124.88-181.15-256.85C1717.41,714.91,1801.64,714.38,1856.6,841Z"/><path class="cls-2" d="M1549.22,834.61c-31.59-38.32-105.63-78.6-268.51-104C1396.09,816.56,1517,843.77,1549.22,834.61Z"/><path class="cls-2" d="M1566.78,845.77c-64.84,8.69-97.79-8.16-237.35,111.55C1509.91,892.19,1532.07,909.85,1566.78,845.77Z"/><path class="cls-2" d="M1503.42,603.86c24.55,199.33,65.39,238.27,94.16,254.28C1609,836.21,1582.72,799.55,1503.42,603.86Z"/><path class="cls-2" d="M1587.29,579.76c31.2,184.78,30.32,260.52,73.09,300.51C1702.92,821.51,1654.8,757.19,1587.29,579.76Z"/><path class="cls-2" d="M1626.69,870.82c-63.58,44.62-162.07,73-248.87,209.21h7.09C1537.8,951.49,1607.15,986.72,1626.69,870.82Z"/><path class="cls-2" d="M1690.44,889.29c-74.16,45.73-88,108.26-165.2,190.74h39C1652.23,1025.63,1706.6,973.26,1690.44,889.29Z"/><path class="cls-2" d="M1671.35,566.15c59.79,158.52,36.76,260.24,63.74,334.94C1791.79,856.36,1769.28,734.23,1671.35,566.15Z"/><path class="cls-2" d="M1685,1080h65c26.69-44,41.14-99.9,43.24-166C1716.58,969.34,1710.65,1026.87,1685,1080Z"/><path class="cls-2" d="M1764.05,508.17c-15.94,187,83.58,315.62,73.8,415C1934.05,826.85,1782.5,639.56,1764.05,508.17Z"/><path class="cls-2" d="M1895,933.69c-39.27,42-53.74,92.73-75.77,146.34h68.34C1901.23,1036.94,1903.53,988.19,1895,933.69Z"/><path class="cls-2" d="M1859.42,522.68c48.34,114.94,53.29,192.69,58.34,265.14V609.21C1901.56,581.17,1882,552.57,1859.42,522.68Z"/><path class="cls-3" d="M1508.25,810c-9.18-14.47-162.56-59.75-162.56-59.75C1391.1,779.92,1521.44,830.81,1508.25,810Z"/><path class="cls-3" d="M1386.43,924.29c47.8-30.7,105.51-38.09,134.29-62.23C1483.33,863.75,1430.4,878.7,1386.43,924.29Z"/><path class="cls-3" d="M1477.86,975.39c40.18-8.67,99.78-45,125.17-78.16C1578.41,904.12,1505,961.4,1477.86,975.39Z"/><path class="cls-3" d="M1654,934.28c8.38-15.95-21.55,20.36-23.11,22.38-18.88,24.46-34.16,65-55.4,84.82,31.93-13.64,49.83-40.88,59.55-71.57C1638.81,958.08,1648.06,945.63,1654,934.28Z"/><path class="cls-3" d="M1613.36,697c10.72,33.47,11.1,136.31,41.69,155.22C1647.48,831,1642.62,753,1613.36,697Z"/><path class="cls-3" d="M1698.36,1080h6.7c31.55-33.17,29.59-84.08,53.48-119.5C1723,989,1716.35,1048.1,1698.36,1080Z"/><path class="cls-3" d="M1737.88,857.57c-10.24-62.09,2.85-83.69-21.2-157C1722.08,757,1721.91,835.69,1737.88,857.57Z"/><path class="cls-3" d="M1861.51,1080h13.2a210.82,210.82,0,0,0,11-63.91A627.1,627.1,0,0,1,1861.51,1080Z"/><path class="cls-3" d="M1842,849.18c-6.75-76.59-38-153.95-54.32-175.67C1793.53,718.38,1835.49,804.5,1842,849.18Z"/><path class="cls-4" d="M1895,933.69c-39.27,42-53.74,92.73-75.77,146.34h17.91c19.81-49.2,30.25-95.87,59.37-135.75C1896.05,940.77,1895.56,937.25,1895,933.69Z"/><path class="cls-4" d="M1781,923.4c-5.2,62.18-21.91,114.64-49.76,156.63H1750c26.69-44,41.14-99.9,43.24-166Q1786.79,918.71,1781,923.4Z"/><path class="cls-4" d="M1550.6,1080h13.69c87.94-54.4,142.31-106.77,126.15-190.74-1,.64-2,1.27-3,1.92C1690.17,952.06,1641,1013.71,1550.6,1080Z"/><path class="cls-4" d="M1917.76,926c-144.72-18.71-279-51.55-387.52-107.1l-7.51,14.69c110.87,56.77,247.79,90.15,395,109Z"/><path class="cls-4" d="M1626.69,870.82q-3.57,2.52-7.31,5C1586.69,973,1466.68,985.29,1380.91,1080h4C1537.8,951.49,1607.15,986.72,1626.69,870.82Z"/><path class="cls-3" d="M1526.21,706c12.36,45.8,18.23,85.62,50.18,121.71-.55-.63-.75-2.63-1.24-3.79C1566.14,802.84,1539,715.17,1526.21,706Z"/><path class="cls-4" d="M1587.29,579.76c55,187.77,99.9,244.72,73.09,300.51C1702.92,821.51,1654.8,757.19,1587.29,579.76Z"/><path class="cls-4" d="M1503.42,603.86c34.06,119.64,90.21,230.66,94.16,254.28C1609,836.21,1582.72,799.55,1503.42,603.86Z"/><path class="cls-4" d="M1671.35,566.15c73.1,152.88,105.3,253.87,63.74,334.94C1791.79,856.36,1769.28,734.23,1671.35,566.15Z"/><path class="cls-4" d="M1764.05,508.17c10.23,136.78,142.63,308.22,73.8,415C1934.05,826.85,1782.5,639.56,1764.05,508.17Z"/><path class="cls-4" d="M1859.42,522.68c24.93,40.83,44,77.13,58.34,110.65V609.21C1901.56,581.17,1882,552.57,1859.42,522.68Z"/><path class="cls-4" d="M1566.78,845.77c-33.25,40.59-151.2,62.76-237.35,111.55C1509.91,892.19,1532.07,909.85,1566.78,845.77Z"/><path class="cls-4" d="M1549.22,834.61A138.94,138.94,0,0,0,1531.59,817c-34.73,17.36-116.76-10.37-250.88-86.38C1396.09,816.56,1517,843.77,1549.22,834.61Z"/><path class="cls-2" d="M603.25,379.72c-16.27,71.91-68.5,155-37.79,310.44C587.88,490.82,663.46,473.79,603.25,379.72Z"/><path class="cls-4" d="M565.46,690.16c22.42-199.34,98-216.37,37.79-310.44-.6,2.62-1.25,5.26-1.93,7.91C640.83,478,558.1,564,565.46,690.16Z"/><path class="cls-2" d="M528,402.93C482.8,396.34,407.42,414.65,280.65,498,412.47,485.3,511.73,429.1,528,402.93Z"/><path class="cls-2" d="M546.91,399.69c-38.84,46-71.72,54.88-92.87,222.79C536.83,466.49,562.85,464.84,546.91,399.69Z"/><path class="cls-2" d="M575.55,389.08c-5.77-22-46.35-30.76-221.4-115.16C494.12,394.65,546,396,575.55,389.08Z"/><path class="cls-2" d="M396.42,205.64c135.52,106.7,181.75,158.87,235.63,159.7C624.73,299,552.15,284.88,396.42,205.64Z"/><path class="cls-2" d="M658.12,352.91c-27.33,94.41,22.76,150-1.48,311.54C704.92,520.38,743,416.61,658.12,352.91Z"/><path class="cls-2" d="M445.33,144.39c138.77,71.12,186,154.71,250.53,189C706.86,267.8,616,198.44,445.33,144.39Z"/><path class="cls-2" d="M743.53,306.21c-32.17,151.35,92.53,169.17,4.38,342.7C848.6,542.53,842.29,422.3,743.53,306.21Z"/><path class="cls-2" d="M779.55,284.85c6.07-125.12-213.06-159.12-306.86-237.29C577.45,184.93,724.8,211.07,779.55,284.85Z"/><path class="cls-2" d="M825,256.71c-1.82,116.7,105.13,188,44.36,385.1C964.82,479.4,946.72,354.93,825,256.71Z"/><path class="cls-2" d="M554.53,0h-4.64C722,81.1,748.55,166.16,860.32,231.17,803.8,83.76,710,30.55,554.53,0Z"/><path class="cls-2" d="M894.43,205.23c92.64,91.12,74.82,306.07,125.6,364.53C1012.75,447,1063.26,294.5,894.43,205.23Z"/><path class="cls-2" d="M814.07,0H727.58c87.56,65.05,142.61,135.74,219,163.56C913.45,83.21,868.68,33.79,814.07,0Z"/><path class="cls-2" d="M990.88,128.29c29.08,180.55,101.77,207.16,134.69,371.19C1129.78,312.51,1084.67,199.41,990.88,128.29Z"/><path class="cls-2" d="M881.45,0C926.13,32.67,975,60.86,1049.09,80.06,1017.41,55.66,985.77,27.89,951.84,0Z"/><path class="cls-2" d="M1085.16,48.69c92.63,91.12,74.82,306.07,125.6,364.52C1203.47,290.44,1254,138,1085.16,48.69Z"/><path class="cls-2" d="M1090.37,0c11,5.11,22.19,9.85,33.57,14.14-2-4.75-4.13-9.46-6.5-14.14Z"/><path class="cls-2" d="M1210,0h-31.77c6.12,119.18,111.71,140.88,139.91,333C1343.15,181.29,1270.86,77.87,1210,0Z"/><path class="cls-2" d="M1303.41,0c26.25,37.66,59.2,75.44,105.28,133.84C1384.92,74.73,1370.36,32.5,1354.85,0Z"/><path class="cls-3" d="M484.89,411.49c-15.21-4.19-147.77,59.76-147.77,59.76C386.42,463.4,506.74,417.52,484.89,411.49Z"/><path class="cls-3" d="M472.49,564.72c13.6-50.47,48.39-91.2,53.08-125.45C501.12,463.53,474.28,506.46,472.49,564.72Z"/><path class="cls-3" d="M566.42,543c22-30.74,40.2-92.38,37-130.67C590.91,432.28,576.24,516.75,566.42,543Z"/><path class="cls-3" d="M670.21,442.11c-4.76-10.39-6.16-24.59-9.11-36C657,390,659,433.3,659.19,435.65c2.25,28.34,16.88,65.43,14.66,92.08C687.19,498.69,682.55,469.05,670.21,442.11Z"/><path class="cls-3" d="M611.08,349.52c-18.31-9.82-69.83-60-124.39-80.06C514.69,285.65,578.53,355.53,611.08,349.52Z"/><path class="cls-3" d="M748.59,359.38c-7.84,49,38.36,102.08,34.11,135.46C798.21,442.37,755.1,404.53,748.59,359.38Z"/><path class="cls-3" d="M559.36,208c38.52,35.09,87.08,88.87,111.5,93.92C625.48,266,621.06,243.13,559.36,208Z"/><path class="cls-3" d="M869.7,318.62c29.5,65.71,41,113.28,42,180.12C920.93,442.72,922,379.12,869.7,318.62Z"/><path class="cls-3" d="M736.65,231.88c-52-48-121.11-81.46-145.64-86.2C622.75,172.65,704.6,205.43,736.65,231.88Z"/><path class="cls-3" d="M953.3,282.85c20,55.28,30,128,34.18,165.54C1003.12,402,984.31,314.79,953.3,282.85Z"/><path class="cls-3" d="M829.41,200.19c-15.4-9.81-51.14-83-134.14-121.88C725.55,102.5,793.51,181.08,829.41,200.19Z"/><path class="cls-3" d="M895.93,113.26C851.9,58.36,807.14,29.8,752.76,0h-8.2c49.17,40.43,133,122.51,176.73,140.65C923.5,141.57,898.46,116.41,895.93,113.26Z"/><path class="cls-3" d="M1018.8,196.43c-.74,31.95,56.84,118.05,69.86,160.69-18.91-61.92-28.26-89.5-62.69-145C1024.6,209.9,1019,189.76,1018.8,196.43Z"/><path class="cls-3" d="M1167.83,136.64c12.28,34.25,20.27,123.41,28.88,172.93C1207.94,229.59,1200,192.12,1167.83,136.64Z"/><path class="cls-3" d="M1193.09,12c-3.8,67.93,62.21,127.36,78.3,151.74C1252.26,123.66,1200.87,41.23,1193.09,12Z"/><path class="cls-3" d="M898.1,0c20.71,14.55,43.2,28.37,67.95,39.74C948.69,27.88,931.28,14.14,913.94,0Z"/><path class="cls-3" d="M1326.41,0h-13.24c8.19,11.62,17.07,21.67,26.13,27.88A199,199,0,0,0,1326.41,0Z"/><path class="cls-4" d="M894.43,205.23c1,1,2,2,2.94,3,153.89,104.49,88,255.16,122.66,361.52C1012.75,447,1063.26,294.5,894.43,205.23Z"/><path class="cls-4" d="M832.62,263c-2.49-2.11-5-4.21-7.59-6.29-1.82,116.7,105.13,188,44.36,385.1C944.63,434.46,843.67,367.1,832.62,263Z"/><path class="cls-4" d="M743.53,306.21q-1.53,7.19-2.6,14c84.34,110.24,87.87,223.38,7,328.71C848.6,542.53,842.29,422.3,743.53,306.21Z"/><path class="cls-4" d="M658.12,352.91c-.31,1.06-.6,2.13-.89,3.2,51,51.28,43.86,156.88-.59,308.34C704.92,520.38,743,416.61,658.12,352.91Z"/><path class="cls-4" d="M1127.26,0c-196.35,177.86-415.67,347.64-622,403.28l4.27,16C723.87,361.47,950.62,183.59,1151.83,0Z"/><path class="cls-4" d="M990.88,128.29c74.73,90.58,118.27,188,134.69,371.19C1129.78,312.51,1084.67,199.41,990.88,128.29Z"/><path class="cls-4" d="M1085.16,48.69c92.63,91.12,74.82,306.07,125.6,364.52C1166.73,335.48,1207.31,138,1085.16,48.69Z"/><path class="cls-4" d="M1210,0h-14.36c44.78,91.29,128.48,174,122.5,333C1343.15,181.29,1270.86,77.87,1210,0Z"/><path class="cls-4" d="M1340.27,0c20,43.48,35.29,91.72,68.42,133.84C1384.92,74.73,1370.36,32.5,1354.85,0Z"/><path class="cls-3" d="M539.12,379.64c-19.2-8.83-91.87-51.84-106.27-50.15,36.74,23.59,65.36,47.11,109.46,52C541.55,381.37,540.18,380.12,539.12,379.64Z"/><path class="cls-4" d="M632.05,365.34c-7.32-66.36-79.9-80.46-235.63-159.7C550.05,299.63,615.83,310.73,632.05,365.34Z"/><path class="cls-4" d="M354.15,273.92c97.19,60.52,204.1,101.5,221.4,115.16C569.78,367.07,529.2,358.32,354.15,273.92Z"/><path class="cls-4" d="M695.86,333.35c11-65.55-79.85-134.91-250.53-189C589.68,203.43,674.07,252.38,695.86,333.35Z"/><path class="cls-4" d="M779.55,284.85c6.07-125.12-213.06-159.12-306.86-237.29C564.22,134.49,760.48,169.52,779.55,284.85Z"/><path class="cls-4" d="M554.53,0h-2.77C729.45,53.17,785.34,116,860.32,231.17,803.8,83.76,710,30.55,554.53,0Z"/><path class="cls-4" d="M946.55,163.56C913.45,83.21,868.68,33.79,814.07,0H783.76C857.93,43.68,904.89,96.38,946.55,163.56Z"/><path class="cls-4" d="M933.49,0c39.48,30.13,76.6,58.55,115.6,80.06C1017.41,55.66,985.77,27.89,951.84,0Z"/><path class="cls-4" d="M1112.13,0q5.92,6.93,11.81,14.14c-2-4.75-4.13-9.46-6.5-14.14Z"/><path class="cls-4" d="M546.91,399.69C549.33,447.91,482.62,536,454,622.48,536.83,466.49,562.85,464.84,546.91,399.69Z"/><path class="cls-4" d="M528,402.93a127.2,127.2,0,0,0-22.94-1.13c-12.93,33.31-86,65.11-224.44,96.21C412.47,485.3,511.73,429.1,528,402.93Z"/><path class="cls-5" d="M208.3,818.21c49.43,4.81,130.29-19,263.56-116C329.45,722.83,224.63,789,208.3,818.21Z"/><path class="cls-5" d="M188,822.7c39.77-51.93,75-63.28,89.25-246.59C195.46,749.69,167.3,752.83,188,822.7Z"/><path class="cls-5" d="M157.44,835.72c7.41,23.57,51.91,31,246.26,113.5C245.54,825.45,189.12,826.73,157.44,835.72Z"/><path class="cls-5" d="M97.36,864.4c11.38,71.64,90.88,83.18,264,161.12C208.75,916.74,155.88,862.5,97.36,864.4Z"/><path class="cls-5" d="M152.79,508.42c-14,217.5-95.14,239.9-24.91,338.88C141.8,768.41,194.18,675.5,152.79,508.42Z"/><path class="cls-5" d="M69.71,879.25c24.76-103.89-32.48-161.63-14.54-338.2C10.24,699.92-25.66,814.5,69.71,879.25Z"/><path class="cls-5" d="M261,1080h20.34C149.57,1012.79,96.74,934,29.77,902.42,22,967.44,105.29,1031.51,261,1080Z"/><path class="cls-5" d="M0,1006.53v53A316.73,316.73,0,0,0,32.18,1080H138C87.55,1050.93,38.94,1029.81,0,1006.53Z"/><path class="cls-3" d="M412,734.18c-53.1,11.06-181.31,67.1-157.28,72.51C271.4,810.45,412,734.18,412,734.18Z"/><path class="cls-3" d="M260.2,639.75c-12.15,55.48-47.79,101.48-51.11,138.89C234.37,751.05,261.28,703.07,260.2,639.75Z"/><path class="cls-3" d="M126,811.89c12.57-22.27,24.11-114.71,33.41-143.74C137.06,702.66,120.54,770.49,126,811.89Z"/><path class="cls-3" d="M52,783.06c5.7,11,8,26.37,11.74,38.61,5.34,17.21.88-29.63.55-32.17-3.9-30.64-21.71-70.14-20.68-99.17C30.6,722.54,37.18,754.45,52,783.06Z"/><path class="cls-3" d="M120.94,880.49c20.38,9.7,78.88,61.47,139.15,80.44C228.86,944.8,156,872.27,120.94,880.49Z"/><path class="cls-3" d="M58.52,935.2c51.11,36.73,57.1,61.27,125.88,96.16C140.78,995.27,85.29,939.42,58.52,935.2Z"/><path class="cls-3" d="M119.11,1080C81,1060.32,29.86,1039.8,0,1021v1.22c30.91,24.35,65.58,44.17,95,57.84Z"/><path class="cls-6" d="M69.71,879.25c.28-1.18.54-2.35.8-3.52-58-53-55.74-168-15.34-334.68C10.24,699.91-25.66,814.5,69.71,879.25Z"/><path class="cls-6" d="M227.79,800.23C152.22,824.52,75.88,863,0,911.19v19.56c77.65-50.1,155.73-90,232.84-114.8Z"/><path class="cls-6" d="M152.79,508.42c-14,217.5-95.14,239.9-24.91,338.88.5-2.88,1.07-5.77,1.67-8.68C82,742.62,167.33,645,152.79,508.42Z"/><path class="cls-3" d="M315.41,893c-41.1-23.69-73.39-47.73-121.5-50.71.84.05,2.39,1.33,3.56,1.8C218.77,852.66,299.87,895.57,315.41,893Z"/><path class="cls-6" d="M97.36,864.4c11.39,71.64,90.88,83.18,264,161.11C189.75,931.47,117.79,922.83,97.36,864.4Z"/><path class="cls-6" d="M157.44,835.72c7.41,23.57,51.91,31,246.26,113.5C295.09,888.57,176.92,849.64,157.44,835.72Z"/><path class="cls-6" d="M261,1080h10.6C136,1029.24,55.2,981.69,29.77,902.42,22,967.44,105.29,1031.51,261,1080Z"/><path class="cls-6" d="M0,1043.34v16.16A316.73,316.73,0,0,0,32.18,1080H58.92C37.37,1068.73,17.31,1056.71,0,1043.34Z"/><path class="cls-6" d="M188,822.7c-5.13-52.2,62.7-151.21,89.24-246.59C195.46,749.69,167.3,752.83,188,822.7Z"/><path class="cls-6" d="M471.86,702.21C329.45,722.83,224.63,789,208.3,818.21a138.09,138.09,0,0,0,24.95,0C245.57,781.43,323.23,743.13,471.86,702.21Z"/><path class="cls-5" d="M1404.36,715.6c138-40.66,232.38-121,244.39-152.3C1599.14,565.57,1522.48,600.61,1404.36,715.6Z"/><path class="cls-5" d="M1668.22,556c-32,57.06-65.22,73.3-53.27,256.78C1671.21,629.31,1698.63,622.19,1668.22,556Z"/><path class="cls-5" d="M1436.71,461.41c174.16,100,229.82,90.74,259.89,77.34C1685.92,516.46,1640.82,515.47,1436.71,461.41Z"/><path class="cls-5" d="M1752,501.82c-21.45-69.3-101.78-69.42-284.22-121.95C1634.3,465.84,1694.34,512,1752,501.82Z"/><path class="cls-5" d="M1724.22,523.08c-2.56,80.07-41.19,179.48,23.52,339C1730.68,644.77,1807.81,611.06,1724.22,523.08Z"/><path class="cls-5" d="M1777.26,483.18c-9.74,106.36,55.13,155.37,62.47,332.7C1861.62,652.24,1880.87,533.71,1777.26,483.18Z"/><path class="cls-5" d="M1507.36,304.47C1670,351.82,1737.57,431.3,1813.5,454.57,1811.76,382.36,1700.58,327.05,1507.36,304.47Z"/><path class="cls-5" d="M1858.78,415.8c-1.62,84.83,32.39,125.16,59,170.42V472.51A426.18,426.18,0,0,0,1858.78,415.8Z"/><path class="cls-5" d="M1516.65,195.53c140,125,302.6,122.62,376.17,190.09C1873.57,250.87,1632.8,259.65,1516.65,195.53Z"/><path class="cls-5" d="M1917.76,244.23C1834.54,152.15,1731.85,127.47,1585.5,128c175.78,44.09,233.71,114.33,332.26,162.71Z"/><path class="cls-5" d="M1917.76,96.5c-85.55-48.52-184.53-53.25-300.2-58.61C1751.35,64.38,1838.9,125,1917.76,170Z"/><path class="cls-5" d="M1823.55.1c33.85,16.37,64,33,94.21,48.3V.1Z"/><path class="cls-3" d="M1604.48,581.3c-17.09-1.34-145.37,94.14-145.37,94.14C1510.09,656.94,1629,583.24,1604.48,581.3Z"/><path class="cls-3" d="M1653.59,602.58c-21.09,30.91-40.9,82.23-30.84,144.75C1626.9,690.69,1655.63,640.09,1653.59,602.58Z"/><path class="cls-3" d="M1718.52,704.89c17.18-37.34,23.89-106.83,12.62-147C1721.87,581.69,1723.58,674.82,1718.52,704.89Z"/><path class="cls-3" d="M1808.5,575.87c-7.21-10.1-11.63-25-17.12-36.55-7.73-16.27,3.35,29.46,4,31.92,8.22,29.78,31.47,66.34,34.58,95.23C1838.25,632.74,1827.2,602.08,1808.5,575.87Z"/><path class="cls-3" d="M1726.37,489.24c-21.55-6.71-86.82-49.63-149.17-59.84C1610.4,440.92,1692.88,502.35,1726.37,489.24Z"/><path class="cls-3" d="M1875.11,471.49c1.06,33.26,24.39,63.94,42.65,91.14V538.94C1902.58,516.53,1883.65,496.13,1875.11,471.49Z"/><path class="cls-3" d="M1642.11,348.93c48.31,29.51,111.17,76.91,138.26,77.28C1724.56,397.12,1715.15,373.68,1642.11,348.93Z"/><path class="cls-3" d="M1663.05,275.9c39.42,22.25,133.47,40.39,173.11,62C1770.84,297.33,1690.2,275.9,1663.05,275.9Z"/><path class="cls-3" d="M1760.45,182.58c34.31,18,112.22,78.7,157.31,98.35V277.7C1893,257.31,1842.32,203.31,1760.45,182.58Z"/><path class="cls-3" d="M1773.44,77.08c30.78,13.6,89.55,51.09,144.32,81.82V133.62C1872.78,108.09,1827.16,93.78,1773.44,77.08Z"/><path class="cls-3" d="M1873.11.1h-24.65c21.32,10.48,44.35,23.4,69.3,36.32V21.75C1902.6,13.82,1887.66,6.41,1873.11.1Z"/><path class="cls-6" d="M1917.76,496V472.51a426.18,426.18,0,0,0-59-56.71q-.15,8,.11,15.47Q1893.86,462.4,1917.76,496Z"/><path class="cls-6" d="M1777.26,483.18c-.11,1.21-.2,2.41-.29,3.6,64.93,44.24,79,158.37,62.76,329.1C1861.63,652.24,1880.87,533.72,1777.26,483.18Z"/><path class="cls-6" d="M1917.76,348.92C1823.57,442.14,1725.3,520,1624.78,569L1632,583.9c98.11-47.84,193.88-122.48,285.73-211.85Z"/><path class="cls-6" d="M1724.22,523.08c-.09,2.91-.23,5.86-.42,8.83,60.72,88.26-9.86,197.06,23.94,330.14C1730.68,644.77,1807.81,611.06,1724.22,523.08Z"/><path class="cls-3" d="M1655.8,536.17c-22.3-5.47-108.68-36.42-123.69-31.65,44.05,17.61,79.42,36.82,127.46,32.93C1658.74,537.52,1657,536.47,1655.8,536.17Z"/><path class="cls-6" d="M1752,501.82c-21.45-69.3-101.78-69.42-284.22-121.95C1651,448.56,1723.47,446.88,1752,501.82Z"/><path class="cls-6" d="M1436.71,461.41c116.13,44.59,238.63,66.32,259.89,77.34C1685.92,516.46,1640.82,515.47,1436.71,461.41Z"/><path class="cls-6" d="M1813.5,454.57c-1.74-72.21-112.92-127.52-306.14-150.1C1673.51,337.78,1773.61,372.66,1813.5,454.57Z"/><path class="cls-6" d="M1892.82,385.62c-19.25-134.75-260-126-376.17-190.09C1632.17,269.45,1848.77,266.48,1892.82,385.62Z"/><path class="cls-6" d="M1917.76,244.23C1834.54,152.15,1731.85,127.47,1585.5,128c170.91,16.44,250,57.84,332.26,134.09Z"/><path class="cls-6" d="M1917.76,96.5c-85.55-48.52-184.53-53.25-300.2-58.61,135.47,11.54,227.38,37.4,300.2,78.88Z"/><path class="cls-6" d="M1892.34.1q12.9,5.46,25.42,11.12V.1Z"/><path class="cls-6" d="M1668.22,556c12.5,50.94-40.57,158.59-53.27,256.78C1671.21,629.31,1698.63,622.19,1668.22,556Z"/><path class="cls-6" d="M1624.05,566.81c-7,38.2-78.38,87.15-219.69,148.79,138-40.66,232.38-121,244.39-152.3A139.46,139.46,0,0,0,1624.05,566.81Z"/><path class="cls-2" d="M1221.21,782.11c79.62-78.33,9.72-111.74,32.16-311.07C1188.89,615.74,1221.34,708.39,1221.21,782.11Z"/><path class="cls-4" d="M1221.21,782.11c79.62-78.33,9.72-111.74,32.16-311.07-35.22,121.37,26.32,223.64-32.27,302.94Q1221.22,778.09,1221.21,782.11Z"/><path class="cls-2" d="M933,595.09c105.08,109.45,174.51,144,220.07,147.68C1143,713.64,1058.68,636.78,933,595.09Z"/><path class="cls-2" d="M1129.69,512.27c-16.69,168.4,13.39,184.37,41,237.85C1200.75,690.15,1175.75,682.75,1129.69,512.27Z"/><path class="cls-2" d="M1196.29,766.84c-27.24-13.26-78.16-23.53-241.46,63.07C1144.26,786.52,1185.78,787,1196.29,766.84Z"/><path class="cls-2" d="M980.88,905.88c169.45-42.65,243.34-40.27,265.22-103.35C1193.38,791.37,1136.72,832,980.88,905.88Z"/><path class="cls-2" d="M1336.55,516.37c-12.26,162.89-73.45,206-67.79,304.09C1365.63,777.2,1351.61,667.57,1336.55,516.37Z"/><path class="cls-2" d="M1015,976.47c178.43-14.77,282.42-62.2,286.26-128.56C1230.64,867,1166.05,938,1015,976.47Z"/><path class="cls-2" d="M1422.09,551.8c47.37,188.79-78.17,178.45-80.44,333.17C1463.75,793.72,1496.62,677.9,1422.09,551.8Z"/><path class="cls-2" d="M1372,913.79c-69.78,59.78-219.25,52.52-351.92,163.17C1128.94,1021.58,1350.14,1037.13,1372,913.79Z"/><path class="cls-2" d="M1539,585.73c15.44,205.71-104.68,251.42-128.84,365.61C1550.6,882.62,1595.9,765.29,1539,585.73Z"/><path class="cls-2" d="M1438.85,984.09C1364,1007.46,1318.05,1045,1252,1080h98.23C1382.13,1056.59,1411.25,1025.29,1438.85,984.09Z"/><path class="cls-2" d="M1466.35,1017c184.44-49.51,169.07-209.41,203.47-327.49C1607.3,735.16,1576.92,948.7,1466.35,1017Z"/><path class="cls-2" d="M1461.58,1080H1500c2.65-3.54,5.29-7.14,7.92-10.86A239.12,239.12,0,0,0,1461.58,1080Z"/><path class="cls-2" d="M1757.09,781.42C1693.34,923.35,1622.48,941.78,1557.8,1080h42.4C1675.59,1023.92,1726.74,929.93,1757.09,781.42Z"/><path class="cls-2" d="M1719.05,1080h54c25.64-62.35,30.13-134.54,47.9-195.56C1783.53,911.86,1757.6,999.5,1719.05,1080Z"/><path class="cls-2" d="M1859.11,1080H1890a359.91,359.91,0,0,0,17.89-93.47C1893,1025.05,1876.34,1055.23,1859.11,1080Z"/><path class="cls-3" d="M982.08,633.74s115,91.81,130.8,91.1C1135.53,723.82,1028.41,652.34,982.08,633.74Z"/><path class="cls-3" d="M1134.84,572.69c-11.2,57.2,5.43,105,23.87,134.1C1161.75,672.36,1136.89,624.92,1134.84,572.69Z"/><path class="cls-3" d="M1221.61,614.7c3.73,27.82-.74,113.43,7.05,135.64C1240.27,713.71,1236.25,649.58,1221.61,614.7Z"/><path class="cls-3" d="M1283.49,769.26c5.41-10.48,9.94-24,16.88-33.09,18-23.53,29.13-51.39,22.58-82.66-3.76,26.47-26.27,59.38-34.76,86.51C1287.48,742.27,1275.88,784,1283.49,769.26Z"/><path class="cls-3" d="M1083.07,863.72c57.67-7.46,119-44.91,139.07-50.41C1191.74,800.21,1114,854.15,1083.07,863.72Z"/><path class="cls-3" d="M1358.4,834.25c16.39-42.58,66.83-69.89,63.36-124.5C1418.49,743.24,1361.65,784.74,1358.4,834.25Z"/><path class="cls-3" d="M1269.85,873c-24.93-.5-84.22,41.14-129.58,66.8C1208.23,919.25,1217.61,898,1269.85,873Z"/><path class="cls-3" d="M1467.43,900.9c64.42-47.36,77.53-109.6,81-166.27C1532.57,799.56,1510.79,843.39,1467.43,900.9Z"/><path class="cls-3" d="M1157.28,1007.58c25,.84,99.81-16.37,161.15-51.67C1281.3,974.58,1194.22,988.34,1157.28,1007.58Z"/><path class="cls-3" d="M1611.1,800.55c-12.39,35.68-38.31,104.36-70.11,153.81C1578.32,930.11,1616,849.26,1611.1,800.55Z"/><path class="cls-3" d="M1272.79,1080h20.91c59.14-26.41,94.42-67.71,108.13-72.62C1371.14,1015.75,1313.26,1055.17,1272.79,1080Z"/><path class="cls-3" d="M1596.12,1039.48C1642,993,1657.27,968.19,1689.47,912c-22.17,38.68-97.45,109.83-103.82,141.15C1584.32,1059.71,1594.29,1041.33,1596.12,1039.48Z"/><path class="cls-3" d="M1746.93,1080h16.12c11.43-25.49,17.6-55.21,21.2-97.64C1773.43,1008.27,1760.05,1046.21,1746.93,1080Z"/><path class="cls-4" d="M1469.88,1014.67c-1.17.77-2.34,1.55-3.53,2.28,184.44-49.51,169.07-209.41,203.47-327.49C1612.38,785.44,1643.13,947,1469.88,1014.67Z"/><path class="cls-4" d="M1418.92,946.89c33.9-99,147.3-142.27,120-361.16,15.44,205.71-104.68,251.42-128.84,365.61C1413.11,949.88,1416,948.4,1418.92,946.89Z"/><path class="cls-4" d="M1342.23,870.75q-.46,6.87-.58,14.22c122.1-91.25,155-207.07,80.44-333.17C1477.54,672.48,1449,782,1342.23,870.75Z"/><path class="cls-4" d="M1268.6,817.14c.05,1.1.09,2.2.16,3.32,96.87-43.26,82.85-152.89,67.79-304.09C1346.24,673.92,1329.7,778.46,1268.6,817.14Z"/><path class="cls-4" d="M1507.06,1080h21.14c-119.87-150.69-251.09-283.88-389.61-357.3l-7.71,14.63C1263.93,807.89,1390.66,935.11,1507.06,1080Z"/><path class="cls-4" d="M1757.09,781.42c-48.23,148.75-101.8,232.72-173.93,298.61h17C1675.59,1023.92,1726.74,929.93,1757.09,781.42Z"/><path class="cls-4" d="M1719.05,1080h17.31c33.86-74.88,50-157.62,84.62-195.56C1783.53,911.86,1757.6,999.5,1719.05,1080Z"/><path class="cls-4" d="M1878,1080h12a359.91,359.91,0,0,0,17.89-93.47A385,385,0,0,1,1878,1080Z"/><path class="cls-3" d="M1162.19,766.89c-44.07-5.07-77.2,11.5-118.27,26.33,13.66,4.85,94.07-20.93,114.76-25.27C1159.81,767.71,1161.43,766.8,1162.19,766.89Z"/><path class="cls-4" d="M980.88,905.88c169.45-42.65,243.34-40.27,265.22-103.35C1218.16,852.18,1151.55,848.39,980.88,905.88Z"/><path class="cls-4" d="M1196.29,766.84c-19.9,9.47-133.25,25.67-241.46,63.07C1144.26,786.52,1185.78,787,1196.29,766.84Z"/><path class="cls-4" d="M1015,976.47c178.43-14.77,282.42-62.2,286.26-128.56C1262,922,1168.82,951,1015,976.47Z"/><path class="cls-4" d="M1372,913.79c-44.22,108.21-243.36,98.76-351.92,163.17C1128.94,1021.58,1350.14,1037.13,1372,913.79Z"/><path class="cls-4" d="M1438.85,984.09c-41.15,39.87-77,71.59-118.31,95.94h29.72C1382.13,1056.59,1411.25,1025.29,1438.85,984.09Z"/><path class="cls-4" d="M1496.94,1080h3c2.65-3.54,5.29-7.14,7.92-10.86Q1502.44,1074.71,1496.94,1080Z"/><path class="cls-4" d="M1129.69,512.27c8.64,90.71,54.11,191.38,41,237.85C1200.75,690.15,1175.75,682.75,1129.69,512.27Z"/><path class="cls-4" d="M1130.43,738.78a127.86,127.86,0,0,0,22.61,4C1143,713.64,1058.68,636.78,933,595.1,1061,656.18,1125.21,703.43,1130.43,738.78Z"/><path class="cls-5" d="M1177.94,244.79C1056.25,321.59,987.43,424.66,984.42,458,1031.52,442.29,1095.7,387.66,1177.94,244.79Z"/><path class="cls-5" d="M948.84,208.82C944.79,400.65,920.36,415,967.69,470.39,982.87,406.76,1010.42,382.07,948.84,208.82Z"/><path class="cls-5" d="M1216.22,498.15c-194.85-48.68-245.86-24.55-271.13-3.44C961.45,513.23,1005.1,501.87,1216.22,498.15Z"/><path class="cls-5" d="M1208.59,585.08c-183.66-37.25-254-65.27-306.71-39.72C941.43,606.17,1018.74,584.35,1208.59,585.08Z"/><path class="cls-5" d="M807.63,197.64C883.36,402,818.36,455.5,922.79,517.32,903.4,439.6,913.43,333.41,807.63,197.64Z"/><path class="cls-5" d="M731.74,267.17c23.61,163.41,37.46,282.68,150.92,303C863,465.21,787.21,435.76,731.74,267.17Z"/><path class="cls-5" d="M1191.09,668.42C1021.68,667.28,935,609.26,855.61,607.6,877,676.59,999.06,699.45,1191.09,668.42Z"/><path class="cls-5" d="M822.63,657.25c-42.8-162.57-172.5-118.88-171.86-330.37C605.1,479.35,670,592.91,822.63,657.25Z"/><path class="cls-5" d="M1211.9,775.76c-168.82-82.06-324.57-35.35-413.78-80.17C853.43,820,1082.66,745.78,1211.9,775.76Z"/><path class="cls-5" d="M536.39,393.19c-13.16,204.25,65.27,316.17,231.36,352C712.45,631,573.83,614.19,536.39,393.19Z"/><path class="cls-5" d="M746,787.18c129,117.31,247.84,121.32,418.11,72.37C954.45,866,887.12,795.65,746,787.18Z"/><path class="cls-5" d="M425.47,536.77C492.58,652.33,518.14,825,725.59,829,591.16,785.92,503.33,568.65,425.47,536.77Z"/><path class="cls-5" d="M695.41,895c152.89,132.25,288.32,100.82,462.45,60C947.25,972.06,821.05,880.12,695.41,895Z"/><path class="cls-5" d="M357.44,656.56C444.79,840,543.87,927.71,669.65,950.84,553.14,789.88,469.6,799.62,357.44,656.56Z"/><path class="cls-5" d="M1028.26,1080a607.07,607.07,0,0,0,105.56-19.09c-220.43,3.61-299.78-77.52-497.06-34.83,84.45,16.2,175.18,45.25,277.52,53.92Z"/><path class="cls-5" d="M317,781.93c67.12,115.55,92.67,288.2,300.13,292.25C482.66,1031.08,394.83,813.81,317,781.93Z"/><path class="cls-5" d="M357.06,1080h98.62C397,1047.31,326,1017.66,252,912.31,275,985.86,313.15,1039.3,357.06,1080Z"/><path class="cls-3" d="M1022.09,428.61c16.81-3.36,114.16-130.24,114.16-130.24C1092.25,330.09,997.94,433.46,1022.09,428.61Z"/><path class="cls-3" d="M969,421.55c11.86-35.49,16.91-90.26-9.84-147.67C970.67,329.51,956.84,386,969,421.55Z"/><path class="cls-3" d="M878.65,340.86c-6.34,40.61,6.17,109.29,28,144.89C909.06,460.29,882,371.16,878.65,340.86Z"/><path class="cls-3" d="M853.75,520c11.88,13.54-11.26-27.42-12.59-29.61-16-26.4-48.38-55.23-59.26-82.17,1.26,34.7,20.26,61.18,45.41,81.29C837,497.29,845.31,510.39,853.75,520Z"/><path class="cls-3" d="M1089.81,567.3c-35.09-2-131.2-38.6-159.85-16.84C952.53,551,1027,574.5,1089.81,567.3Z"/><path class="cls-3" d="M791.72,608.14c-16.35-51.36-87.15-80.29-99.34-114.75C703,551.89,763.32,567.52,791.72,608.14Z"/><path class="cls-3" d="M895.22,625.84c61.63,12.75,77.09,32.72,154.12,36.6C994.8,647.23,921.39,618.8,895.22,625.84Z"/><path class="cls-3" d="M565.27,552.71c18.47,58.86,48.56,121.08,128.87,154.2C633.39,657.59,599,617.05,565.27,552.71Z"/><path class="cls-3" d="M865.66,726c73.91,21.21,157.34,19.81,183.46,12.4C1005.13,727.77,909.69,736,865.66,726Z"/><path class="cls-3" d="M516.41,638.6c7.5,52.67,68.41,128.09,114.12,143.91C584.07,738.66,538.79,673,516.41,638.6Z"/><path class="cls-3" d="M791.15,802.11c19.74,2,90.2,55.51,189.75,52.66C939.71,846.11,835.32,803.1,791.15,802.11Z"/><path class="cls-3" d="M997.21,959.82c-56.15-7.89-207.24-59.34-266.09-55-2.59.19,34,12.35,38,14.18C850,955.9,914.47,957.76,997.21,959.82Z"/><path class="cls-3" d="M609.23,898.38C594.33,867,496.36,811.65,462.87,776.64c48.62,50.83,71.18,73,131.74,110C597,888.16,612.34,904.94,609.23,898.38Z"/><path class="cls-3" d="M381.29,875.62c28.22,83.09,54.27,115.55,112.59,153.66C465.21,1002.05,413.86,919.46,381.29,875.62Z"/><path class="cls-3" d="M380.12,1053.59c9.68,7.49,22.69,16.61,37.08,26.44H438C413.63,1068.12,391.39,1060.05,380.12,1053.59Z"/><path class="cls-3" d="M737.05,1024.62c90.42,12.07,196.38,52.69,263.54,35.07C937.07,1062,843.53,1020.77,737.05,1024.62Z"/><path class="cls-6" d="M721.27,827.55C520.88,801.43,511.11,623,425.47,536.77,492.58,652.33,518.14,825,725.59,829,724.15,828.56,722.71,828.05,721.27,827.55Z"/><path class="cls-6" d="M757.32,742.75c3.45.83,6.91,1.63,10.43,2.39C712.45,631,573.83,614.19,536.39,393.19,564.8,631.16,695.69,647.14,757.32,742.75Z"/><path class="cls-6" d="M822.63,657.25c-1.35-5.15-2.8-10.08-4.32-14.84-135.75-65.72-194.5-173.76-167.54-315.53C605.1,479.35,670,592.91,822.63,657.25Z"/><path class="cls-6" d="M882,566.64C807.42,541.8,762.68,435.87,731.74,267.17c23.61,163.41,37.46,282.68,150.92,303C882.44,569,882.2,567.81,882,566.64Z"/><path class="cls-6" d="M1005.9,446l-11-12.3c-163.55,146.42-288.4,394.46-389,646.36h17.77C723.09,832.09,846,589.1,1005.9,446Z"/><path class="cls-6" d="M920.79,508.71c-82.51-68.33-44.32-192.27-113.16-311.07C883.36,402,818.36,455.5,922.79,517.32,922.08,514.49,921.42,511.61,920.79,508.71Z"/><path class="cls-6" d="M357.44,656.56C444.79,840,543.87,927.71,669.65,950.84,552.85,899.51,463,826.25,357.44,656.56Z"/><path class="cls-6" d="M617.1,1074.18C482.66,1031.08,394.83,813.81,317,781.93,397.7,835.82,454.92,1047.29,617.1,1074.18Z"/><path class="cls-6" d="M357.06,1080h32.71c-51.5-38.12-101.12-87.61-137.79-167.72C275,985.86,313.15,1039.3,357.06,1080Z"/><path class="cls-3" d="M1112.68,482.72c-47.19-4.91-86.46-13.73-131.61,3.13.78-.3,2.72.24,4,.2C1008,485.22,1099.54,491.41,1112.68,482.72Z"/><path class="cls-6" d="M1208.59,585.08c-195-16.06-264.27,5.33-306.71-39.72C941.44,606.17,1018.74,584.35,1208.59,585.08Z"/><path class="cls-6" d="M1216.22,498.16c-123.89-11.19-247.67,1.34-271.13-3.45C961.45,513.23,1005.1,501.87,1216.22,498.16Z"/><path class="cls-6" d="M1191.09,668.42c-168.93,13.31-274.75,7.09-335.48-60.82C877,676.59,999.06,699.45,1191.09,668.42Z"/><path class="cls-6" d="M1211.9,775.76C1080.59,736.18,873,798.17,798.12,695.59,853.43,820,1082.66,745.78,1211.9,775.76Z"/><path class="cls-6" d="M746,787.18c129,117.31,247.84,121.32,418.11,72.37C961.63,896.54,876.33,863,746,787.18Z"/><path class="cls-6" d="M695.41,895c152.89,132.25,288.32,100.82,462.45,60C934.76,998.23,817.81,969.78,695.41,895Z"/><path class="cls-6" d="M1028.26,1080a607.07,607.07,0,0,0,105.56-19.09c-204,39.41-357-29.62-497.06-34.83,84.45,16.2,175.18,45.25,277.52,53.92Z"/><path class="cls-6" d="M948.84,208.82C944.79,400.65,920.36,415,967.69,470.39,941.75,424.79,963.42,306.75,948.84,208.82Z"/><path class="cls-6" d="M1177.94,244.79C1056.25,321.59,987.43,424.66,984.42,458a138.31,138.31,0,0,0,22.8-10.12C1003.49,409.26,1058.83,342.66,1177.94,244.79Z"/><path class="cls-2" d="M914.65,782.08C835,703.75,904.93,670.34,882.49,471,947,615.71,914.52,708.35,914.65,782.08Z"/><path class="cls-4" d="M914.65,782.08C835,703.75,904.93,670.34,882.49,471c35.22,121.37-26.32,223.64,32.27,302.93C914.69,776.68,914.65,779.4,914.65,782.08Z"/><path class="cls-2" d="M1202.89,595.06c-105.08,109.45-174.51,144.05-220.07,147.68C992.89,713.6,1077.18,636.75,1202.89,595.06Z"/><path class="cls-2" d="M1006.17,512.24c16.69,168.4-13.39,184.37-41,237.85C935.11,690.12,960.12,682.72,1006.17,512.24Z"/><path class="cls-2" d="M939.57,766.81c27.25-13.26,78.16-23.53,241.46,63.07C991.6,786.49,950.09,787,939.57,766.81Z"/><path class="cls-2" d="M1155,905.85C985.54,863.2,911.65,865.58,889.76,802.5,942.48,791.34,999.14,831.94,1155,905.85Z"/><path class="cls-2" d="M799.31,516.34c12.26,162.89,73.45,205.95,67.79,304.09C770.23,777.16,784.25,667.54,799.31,516.34Z"/><path class="cls-2" d="M1120.91,976.43C942.49,961.66,838.5,914.24,834.65,847.88,905.22,866.92,969.81,937.93,1120.91,976.43Z"/><path class="cls-2" d="M713.77,551.77c-47.37,188.79,78.17,178.45,80.44,333.16C672.11,793.69,639.24,677.87,713.77,551.77Z"/><path class="cls-2" d="M763.83,913.76c69.78,59.77,219.25,52.51,351.92,163.17C1006.92,1021.55,785.72,1037.1,763.83,913.76Z"/><path class="cls-2" d="M596.91,585.7C581.47,791.41,701.58,837.12,725.74,951.31,585.26,882.59,540,765.25,596.91,585.7Z"/><path class="cls-2" d="M697,984.06c74.86,23.37,120.8,60.91,186.82,95.94H785.6C753.73,1056.56,724.61,1025.26,697,984.06Z"/><path class="cls-2" d="M669.51,1016.92C485.08,967.4,500.44,807.51,466.05,689.43,528.56,735.13,558.94,948.67,669.51,1016.92Z"/><path class="cls-2" d="M674.28,1080h-38.4c-2.65-3.54-5.29-7.14-7.92-10.86A238.94,238.94,0,0,1,674.28,1080Z"/><path class="cls-2" d="M378.78,781.39C442.52,923.32,513.38,941.75,578.06,1080h-42.4C460.27,1023.89,409.12,929.9,378.78,781.39Z"/><path class="cls-2" d="M416.81,1080h-54c-25.64-62.35-30.13-134.54-47.9-195.56C352.33,911.83,378.26,999.46,416.81,1080Z"/><path class="cls-2" d="M276.76,1080h-30.9A359.91,359.91,0,0,1,228,986.53C242.89,1025,259.52,1055.2,276.76,1080Z"/><path class="cls-3" d="M1153.78,633.71s-115,91.81-130.79,91.1C1000.34,723.79,1107.46,652.31,1153.78,633.71Z"/><path class="cls-3" d="M1001,572.66c11.2,57.2-5.43,105-23.87,134.1C974.11,672.33,999,624.89,1001,572.66Z"/><path class="cls-3" d="M914.26,614.67c-3.74,27.82.73,113.43-7,135.64C895.59,713.68,899.61,649.55,914.26,614.67Z"/><path class="cls-3" d="M852.37,769.23c-5.41-10.49-9.93-24-16.88-33.09-18-23.53-29.13-51.39-22.58-82.67,3.76,26.47,26.28,59.39,34.76,86.52C848.38,742.24,860,784,852.37,769.23Z"/><path class="cls-3" d="M1052.8,863.69c-57.68-7.46-119-44.92-139.08-50.42C944.12,800.18,1021.89,854.12,1052.8,863.69Z"/><path class="cls-3" d="M777.46,834.22c-16.38-42.58-66.83-69.89-63.36-124.5C717.37,743.21,774.21,784.71,777.46,834.22Z"/><path class="cls-3" d="M866,872.93c24.93-.51,84.22,41.14,129.58,66.79C927.63,919.22,918.25,898,866,872.93Z"/><path class="cls-3" d="M668.43,900.87c-64.41-47.36-77.53-109.6-81-166.27C603.3,799.53,625.07,843.36,668.43,900.87Z"/><path class="cls-3" d="M978.59,1007.55c-25,.84-99.82-16.37-161.16-51.67C854.56,974.55,941.64,988.31,978.59,1007.55Z"/><path class="cls-3" d="M524.76,800.52c12.39,35.68,38.31,104.36,70.11,153.81C557.54,930.08,519.82,849.23,524.76,800.52Z"/><path class="cls-3" d="M863.07,1080h-20.9c-59.15-26.42-94.43-67.72-108.14-72.62C764.72,1015.72,822.6,1055.14,863.07,1080Z"/><path class="cls-3" d="M539.74,1039.45C493.83,993,478.59,968.16,446.39,912c22.18,38.68,97.45,109.83,103.82,141.15C551.54,1059.67,541.57,1041.29,539.74,1039.45Z"/><path class="cls-3" d="M388.93,1080H372.81c-11.42-25.5-17.6-55.21-21.2-97.64C362.43,1008.24,375.81,1046.18,388.93,1080Z"/><path class="cls-4" d="M666,1014.64c1.17.77,2.34,1.54,3.53,2.28C485.08,967.4,500.44,807.51,466.05,689.43,523.49,785.41,492.73,947,666,1014.64Z"/><path class="cls-4" d="M716.94,946.86c-33.9-99.05-147.3-142.28-120-361.16C581.47,791.41,701.58,837.12,725.74,951.31,722.76,949.85,719.84,948.37,716.94,946.86Z"/><path class="cls-4" d="M793.63,870.72q.47,6.87.58,14.21c-122.1-91.24-155-207.06-80.44-333.16C658.32,672.45,686.89,782,793.63,870.72Z"/><path class="cls-4" d="M867.26,817.11c0,1.1-.09,2.2-.16,3.32-96.87-43.27-82.85-152.89-67.79-304.09C789.62,673.89,806.17,778.43,867.26,817.11Z"/><path class="cls-4" d="M628.8,1080H607.66C727.54,929.3,858.75,796.12,997.27,722.69l7.72,14.64C871.93,807.86,745.2,935.08,628.8,1080Z"/><path class="cls-4" d="M378.78,781.39C427,930.14,480.57,1014.11,552.7,1080h-17C460.27,1023.89,409.12,929.9,378.78,781.39Z"/><path class="cls-4" d="M416.81,1080H399.5c-33.86-74.88-50-157.62-84.62-195.56C352.33,911.83,378.26,999.46,416.81,1080Z"/><path class="cls-4" d="M257.86,1080h-12A359.91,359.91,0,0,1,228,986.53,385.19,385.19,0,0,0,257.86,1080Z"/><path class="cls-3" d="M973.67,766.86c44.07-5.07,77.21,11.5,118.27,26.33-13.66,4.85-94.07-20.94-114.76-25.27C976.05,767.68,974.43,766.77,973.67,766.86Z"/><path class="cls-4" d="M1155,905.85C985.54,863.2,911.65,865.58,889.76,802.5,917.7,852.15,984.31,848.36,1155,905.85Z"/><path class="cls-4" d="M939.57,766.81c19.9,9.47,133.25,25.67,241.46,63.07C991.6,786.49,950.09,787,939.57,766.81Z"/><path class="cls-4" d="M1120.91,976.43c-178.42-14.77-282.42-62.19-286.26-128.55C873.89,922,967,951,1120.91,976.43Z"/><path class="cls-4" d="M763.83,913.76c44.22,108.21,243.36,98.76,351.92,163.17C1006.92,1021.55,785.72,1037.1,763.83,913.76Z"/><path class="cls-4" d="M697,984.06c41.15,39.86,77,71.59,118.31,95.94H785.6C753.73,1056.56,724.61,1025.26,697,984.06Z"/><path class="cls-4" d="M638.92,1080h-3c-2.65-3.54-5.29-7.14-7.92-10.86Q633.43,1074.67,638.92,1080Z"/><path class="cls-4" d="M1006.17,512.24c-8.64,90.71-54.11,191.38-41,237.85C935.11,690.12,960.12,682.72,1006.17,512.24Z"/><path class="cls-4" d="M1005.43,738.75a128.78,128.78,0,0,1-22.61,4c10.07-29.14,94.36-106,220.07-147.67C1074.82,656.15,1010.65,703.39,1005.43,738.75Z"/></g></g></g></svg>