<svg xmlns="http://www.w3.org/2000/svg" viewBox="0 0 797.46 231.4"><defs><style>.cls-1,.cls-2{fill:#234441;}.cls-2{font-size:21.31px;font-family:Helvetica-Bold, Helvetica;font-weight:700;letter-spacing:0.1em;}.cls-3{fill:#c5e8e7;}.cls-3,.cls-4{fill-rule:evenodd;}.cls-4{fill:#91b706;}</style></defs><g id="Capa_2" data-name="Capa 2"><g id="Layer_1" data-name="Layer 1"><path class="cls-1" d="M0,189.52a27.22,27.22,0,0,1,2.37-11.3A29.52,29.52,0,0,1,8.79,169a30.78,30.78,0,0,1,9.46-6.24,29,29,0,0,1,11.44-2.29,29.16,29.16,0,0,1,11.51,2.29A30.83,30.83,0,0,1,50.67,169a29.24,29.24,0,0,1,6.38,9.22,28.66,28.66,0,0,1,1.29,19,29,29,0,0,1-2.94,6.88,27.07,27.07,0,0,1-4.59,5.85,31.86,31.86,0,0,1-5.91,4.55,28.1,28.1,0,0,0,3.69,2.23,8.19,8.19,0,0,0,3.62.86c.19,0,.48,0,.86-.07a6.45,6.45,0,0,0,1.29-.33,5.53,5.53,0,0,0,1.44-.75,5,5,0,0,0,1.29-1.36l10.83,8.75a16.51,16.51,0,0,1-3.41,3.51,20.3,20.3,0,0,1-4,2.37A19,19,0,0,1,56.34,231a22.54,22.54,0,0,1-4.06.39,17.91,17.91,0,0,1-7.67-1.61A47.49,47.49,0,0,1,38,226q-3.19-2.19-6.35-4.42a26.28,26.28,0,0,0-6.81-3.44,29.44,29.44,0,0,1-9.76-3.4,29.62,29.62,0,0,1-13.12-15A27.32,27.32,0,0,1,0,189.52Zm14.49,0a15.12,15.12,0,0,0,1.18,5.95,14.91,14.91,0,0,0,3.26,4.84,15.65,15.65,0,0,0,4.85,3.23,14.82,14.82,0,0,0,5.91,1.18,15,15,0,0,0,6-1.18,15.36,15.36,0,0,0,4.81-3.23,15.4,15.4,0,0,0,0-21.59,15.09,15.09,0,0,0-10.8-4.41,15,15,0,0,0-5.91,1.18,15.65,15.65,0,0,0-4.85,3.23,14.91,14.91,0,0,0-3.26,4.84A15.13,15.13,0,0,0,14.49,189.52Z"/><path class="cls-1" d="M139.71,161.55V193a29.15,29.15,0,0,1-1.69,10,22.35,22.35,0,0,1-13,13.52,32.14,32.14,0,0,1-22.16,0,22.53,22.53,0,0,1-8-5.41,22.89,22.89,0,0,1-4.87-8.11,29.87,29.87,0,0,1-1.65-10V161.55h14.34v30.62q0,6.09,2.87,9.32t8.46,3.23q5.67,0,8.57-3.23t2.91-9.32V161.55Z"/><path class="cls-1" d="M198.52,161.55a24.43,24.43,0,0,1,9.32,1.61,17.5,17.5,0,0,1,10.37,10.94,24.7,24.7,0,0,1,1.25,7.89,24.28,24.28,0,0,1-.68,5.73,20.56,20.56,0,0,1-2,5.2,18.72,18.72,0,0,1-3.45,4.38,18,18,0,0,1-4.87,3.26l12.12,16.93H203.4l-10.62-15h-7.31v15H171.19V161.55Zm-13.05,13v14.92h12.26a9.94,9.94,0,0,0,3.66-.61,6.85,6.85,0,0,0,2.44-1.62,6.25,6.25,0,0,0,1.36-2.36,9.15,9.15,0,0,0,.43-2.8,8.14,8.14,0,0,0-1.79-5.38q-1.8-2.15-6.1-2.15Z"/><path class="cls-1" d="M282.36,161.55,305,217.49H289.32l-3.09-8.18h-22l-3.08,8.18H245.49l22.67-55.94Zm-7.1,18.36-6.17,16.42h12.26Z"/><path class="cls-1" d="M333.18,161.55h24.67a24.71,24.71,0,0,1,9.72,1.75,19.43,19.43,0,0,1,6.85,4.74,19.06,19.06,0,0,1,4.05,6.85,24.66,24.66,0,0,1,1.33,8.1,26,26,0,0,1-1.33,8.39,19,19,0,0,1-4.05,6.92,19.56,19.56,0,0,1-6.85,4.74,24.71,24.71,0,0,1-9.72,1.75H347.52v12.7H333.18Zm14.34,13v17.14h9.54c3,0,5.14-.83,6.39-2.48a10,10,0,0,0,1.86-6.2,11.69,11.69,0,0,0-.43-3.19,7.15,7.15,0,0,0-1.43-2.73,6.93,6.93,0,0,0-2.59-1.86,9.63,9.63,0,0,0-3.8-.68Z"/><path class="cls-1" d="M409,161.55h14.27v42.09h26.82v13.85H409Z"/><path class="cls-1" d="M511.55,161.55l22.59,55.94H518.5l-3.08-8.18h-22l-3.08,8.18H474.68l22.67-55.94Zm-7.1,18.36-6.17,16.42h12.26Z"/><path class="cls-1" d="M562.11,217.49V161.55H574.3l25,31.26V161.55h14.27v55.94H601.41l-25-31.2v31.2Z"/><path class="cls-1" d="M645.8,161.55h43v13.91H660.15v8h23.52v13H660.15v7.17h28.61v13.85h-43Z"/><path class="cls-1" d="M715.94,161.55h49.2v13.91H747.72v42H733.37v-42H715.94Z"/><text class="cls-2" transform="translate(779.63 175.95)">®</text><path class="cls-3" d="M398.65,2.58a66.1,66.1,0,1,1-66,66.18,66.21,66.21,0,0,1,66-66.18Z"/><path class="cls-4" d="M464.83,68.76a63.27,63.27,0,0,0-1.72-14.52h-7.8c-3.43-.47-6.24,0-11.86-2.81-5.62-2.65-15.3-2.81-19.67,4.84-4.21,7.65-6.71,11.71,2.65,15.45s16.86,15,14.68,21.54a33.89,33.89,0,0,0-1.89,8.41c-7.19-1.85-15.42.56-19.81,7-6.09,9.36-9.68,18.1-17.33,23.72,20.14,3.9,35.59,3.28,44-4.68,3.75-3.59,5.62-7.81,5.62-11.86a14.87,14.87,0,0,0-1.49-5.82A65.89,65.89,0,0,0,464.83,68.76Z"/><path class="cls-4" d="M418.47,30.52c11.4-5,15.3.46,28.1-7.34A64.05,64.05,0,0,0,426.43,8.82a58,58,0,0,0-7.49,6.4c-2.5,2.81-6.4,8.27-7.65,12.33C410.2,31.61,414.73,32.08,418.47,30.52Z"/><path class="cls-4" d="M376.8,61.11c-12.49-1.56-17.48-3.43-19.2-9.37s17.33-4.21,25.91-7c5.15-1.72,4.84-6.09,2.5-11.39a53.8,53.8,0,0,0-5.25-9c4.6-7.59,8.17-14.56,14.61-19.43-20.13-3.75-35.59-3.28-44,4.68a16.32,16.32,0,0,0-5.62,12,14.22,14.22,0,0,0,2.18,6.87l.15.21c-6.95,7.53-11.22,15.18-12.79,23-.16.16.62.32,2.34.78,10.46,2,20.14,14.21,22.48,26.54,2.18,12.33,12.64,37.46,25.13,41.52s3.74-19.67,8-27.32,12.48-9.36,12.95-18C406.45,66.73,389.44,62.51,376.8,61.11Z"/><path class="cls-1" d="M408.79,75.41c.44-12.06-22-15.86-31.66-16.93-13.24-1.66-15.85-3.56-17.11-7.07,1.05-1.2,7.71-1.82,11.69-2.19,4.53-.42,9.21-.86,12.64-2a8.26,8.26,0,0,0,5.26-4.41c1.19-2.69.82-6.06-1.18-10.57a2.63,2.63,0,0,0-3.49-1.36,2.66,2.66,0,0,0-1.36,3.5c1.63,3.7,1.54,5.46,1.18,6.28-.11.24-.43,1-2.08,1.52-2.84.93-7.23,1.34-11.46,1.74-8.3.77-13.49,1.4-15.57,4.45a4.71,4.71,0,0,0-.6,4.09c2.19,7.57,8.65,9.66,21.46,11.27,16.07,1.78,27.16,6.5,27,11.42-.21,4-2.5,6-5.68,8.83a30.19,30.19,0,0,0-6.94,8c-2,3.57-1.7,9-1.4,14.69.21,4.14.53,10.39-1,11.54-.36.29-1.28.23-2.45-.15-11.23-3.65-21.31-28-23.35-39.49-2.59-13.7-13.11-26.12-24.08-28.55a58.82,58.82,0,0,1,9.23-17.38,20.77,20.77,0,0,0,15,6.31H363a20.66,20.66,0,0,0,17.27-8.84c1.71-2.58,3.22-5.12,4.67-7.58C388.64,16.3,391.85,10.9,397,7a2.65,2.65,0,0,0-1.11-4.73C372.69-2,358-.3,349.56,7.65a19,19,0,0,0-6.48,14,2.66,2.66,0,0,0,5.31,0,13.76,13.76,0,0,1,4.79-10.09c6.39-6,18.32-7.66,36.37-4.91-3.63,3.87-6.35,8.44-9.18,13.2-1.41,2.39-2.88,4.85-4.52,7.33a15.12,15.12,0,0,1-13,6.49,15.41,15.41,0,0,1-11.47-5,44.6,44.6,0,0,1,21.94-11.79,2.66,2.66,0,0,0-1.2-5.18,49.63,49.63,0,0,0-25.82,14.69,2.55,2.55,0,0,0-.66.73Q334.38,39.79,330,61.69a2.66,2.66,0,0,0,2.09,3.12,3.05,3.05,0,0,0,.52,0,2.66,2.66,0,0,0,2.6-2.14q.78-4,1.8-7.61l.09,0c9,1.75,18.15,12.71,20.36,24.39,2.36,13.27,13.36,39.17,26.93,43.58a10.8,10.8,0,0,0,3.38.59,6.26,6.26,0,0,0,3.94-1.27c3.72-2.85,3.39-9.25,3-16-.23-4.51-.5-9.62.74-11.86A25.35,25.35,0,0,1,401.34,88C404.84,84.85,408.45,81.64,408.79,75.41Z"/><path class="cls-1" d="M424.11,120.64a2.66,2.66,0,0,0,.61,5.25,3.16,3.16,0,0,0,.6-.07c22.43-5.25,36.6-22.12,42.11-50.15a2.65,2.65,0,1,0-5.2-1q-3.66,18.63-12.68,30a21,21,0,0,0-15.1-6.28,20.73,20.73,0,0,0-17.26,8.86c-1.64,2.52-3.1,5-4.51,7.37-3.75,6.36-7,11.86-12.17,15.66a2.66,2.66,0,0,0-1,2.72,2.62,2.62,0,0,0,2.08,2A114.14,114.14,0,0,0,423,137.4c11.22,0,19.45-2.57,24.92-7.73,4.15-4,6.43-8.86,6.43-13.77a2.65,2.65,0,1,0-5.3,0c0,3.44-1.71,7-4.79,9.93-6.52,6.16-18.44,7.79-36.34,5,3.69-3.9,6.44-8.57,9.31-13.44,1.37-2.32,2.79-4.72,4.36-7.13a15.28,15.28,0,0,1,12.8-6.49h0a15.63,15.63,0,0,1,11.56,5A44.5,44.5,0,0,1,424.11,120.64Z"/><path class="cls-1" d="M404.19,5.54a63.4,63.4,0,0,1,38,17.06,25.58,25.58,0,0,1-11.71,2.73,32.69,32.69,0,0,0-13,2.74c-2,.83-3.5.65-3.62.26,1-3.34,4.42-8.34,7.09-11.35a2.65,2.65,0,1,0-4-3.52c-2.17,2.44-6.68,8.36-8.23,13.4a5.39,5.39,0,0,0,1.43,5.67A6.65,6.65,0,0,0,414.6,34a13.25,13.25,0,0,0,4.94-1.05,27.89,27.89,0,0,1,11.15-2.32A30.67,30.67,0,0,0,446,26.57a63.27,63.27,0,0,1,13.46,24.09c-7.66,1.47-10.27.69-14.89-1.63-6.45-3-17.89-3.22-23.12,6l-.28.5c-2.65,4.81-4.75,8.61-3.41,12.36.93,2.6,3.37,4.61,7.7,6.34,6.81,2.64,15.18,11.73,12.81,18.86A2.64,2.64,0,0,0,440,96.4a2.79,2.79,0,0,0,.84.14,2.66,2.66,0,0,0,2.52-1.81c3.48-10.44-7.1-22.06-15.89-25.47-3.38-1.36-4.4-2.48-4.65-3.19-.54-1.51,1.13-4.52,3.06-8l.25-.47c3.55-6.2,11.63-5.94,16.18-3.79,5.86,2.94,9.67,3.73,18.5,2A63.74,63.74,0,0,1,462,66.5a2.66,2.66,0,0,0,2.65,2.57h.09a2.66,2.66,0,0,0,2.57-2.74,68.77,68.77,0,0,0-1.88-13.84,2.63,2.63,0,0,0-.06-.39,2.88,2.88,0,0,0-.17-.52,68.42,68.42,0,0,0-16.41-29.81,2.62,2.62,0,0,0-.72-.76A68.75,68.75,0,0,0,404.66.25a2.63,2.63,0,0,0-2.88,2.4A2.67,2.67,0,0,0,404.19,5.54Z"/><path class="cls-1" d="M393.27,132a63.82,63.82,0,0,1-58-61.14,2.65,2.65,0,0,0-5.3.2,69.15,69.15,0,0,0,62.82,66.23H393a2.66,2.66,0,0,0,.24-5.3Z"/></g></g></svg>